<?xml version="1.0" standalone="no"?>
<!DOCTYPE svg PUBLIC "-//W3C//DTD SVG 1.1//EN" "http://www.w3.org/Graphics/SVG/1.1/DTD/svg11.dtd" >
<svg xmlns="http://www.w3.org/2000/svg" xmlns:xlink="http://www.w3.org/1999/xlink" version="1.1">
<metadata>
Created by FontForge 20170731 at Wed Nov 28 13:25:51 2018
 By Aleksey,,,
If you used this font or saw where this font used please send me a photo, or link, or just few words where you saw. Thanks in advance
</metadata>
<defs>
<font id="Myra4FCaps-Light" horiz-adv-x="627" >
  <font-face 
    font-family="Myra 4F Caps Light"
    font-weight="300"
    font-variant="small-caps"
    font-stretch="normal"
    units-per-em="1000"
    panose-1="0 0 0 0 0 0 0 0 0 0"
    ascent="750"
    descent="-250"
    x-height="700"
    cap-height="700"
    bbox="-167 -215 1161 860"
    underline-thickness="50"
    underline-position="-150"
    unicode-range="U+0020-2212"
  />
<missing-glyph horiz-adv-x="300" 
 />
    <glyph glyph-name=".notdef" horiz-adv-x="300" 
 />
    <glyph glyph-name=".null" horiz-adv-x="0" 
 />
    <glyph glyph-name="nonmarkingreturn" horiz-adv-x="333" 
 />
    <glyph glyph-name="space" unicode=" " horiz-adv-x="300" 
 />
    <glyph glyph-name="exclam" unicode="!" horiz-adv-x="220" 
d="M65 700h90l-25 -550h-40zM70 -5q-15 15 -15 37t15 37t37 15t37 -15t15 -37t-15 -37t-37 -15t-37 15z" />
    <glyph glyph-name="quotedbl" unicode="&#x22;" horiz-adv-x="335" 
d="M60 700h90l-30 -250h-30zM185 700h90l-30 -250h-30z" />
    <glyph glyph-name="numbersign" unicode="#" horiz-adv-x="640" 
d="M295 0l63 235h-138l-62 -235h-63l63 235h-113v50h126l38 140h-113v50h126l60 225h63l-60 -225h137l60 225h63l-60 -225h110v-50h-124l-37 -140h110v-50h-124l-62 -235h-63zM371 285l38 140h-138l-37 -140h137z" />
    <glyph glyph-name="dollar" unicode="$" horiz-adv-x="563" 
d="M255 -24q-63 2 -123 22t-103 53l32 53q35 -29 87.5 -47.5t106.5 -20.5v288q-68 15 -111 33t-69.5 55t-26.5 99q0 94 58.5 148t148.5 63v128h52v-127q53 -2 106.5 -19t92.5 -45l-32 -52q-33 24 -78 39t-89 17v-289q66 -13 111 -31t75.5 -55.5t30.5 -100.5
q0 -92 -61.5 -145.5t-155.5 -63.5v-128h-52v126zM149.5 615q-41.5 -38 -41.5 -100q0 -60 38 -87.5t109 -42.5v276q-64 -8 -105.5 -46zM420 84.5q44 37.5 44 100.5q0 53 -36.5 80t-120.5 47v-274q69 9 113 46.5z" />
    <glyph glyph-name="percent" unicode="%" horiz-adv-x="657" 
d="M268.5 682q36.5 -38 36.5 -112t-36.5 -112t-93.5 -38t-93.5 38t-36.5 112t36.5 112t93.5 38t93.5 -38zM461 700h61l-326 -700h-61zM233 492.5q22 24.5 22 77.5q0 54 -22 78t-58 24t-58 -24t-22 -78t21.5 -78t58.5 -24q36 0 58 24.5zM388.5 18q-36.5 38 -36.5 112
t36.5 112t93.5 38t93.5 -38t36.5 -112t-36.5 -112t-93.5 -38t-93.5 38zM540 52q22 24 22 78t-21.5 78t-58.5 24q-36 0 -58 -24.5t-22 -77.5q0 -54 22 -78t58 -24t58 24z" />
    <glyph glyph-name="ampersand" unicode="&#x26;" horiz-adv-x="708" 
d="M600 -20q-71 0 -156 52q-71 -52 -174 -52q-114 0 -167 58.5t-53 148.5q0 64 27 114.5t85 79.5q-22 68 -22 128q0 88 46 151.5t149 63.5q42 0 84 -12t74 -33l-32 -51q-25 16 -58.5 26t-66.5 10q-74 0 -105 -46t-31 -111q0 -72 33 -148t87.5 -142.5t116.5 -111.5
q50 49 71 118.5t25 126.5h60q-5 -65 -28 -142t-76 -136q58 -32 109 -32q29 0 74 14l17 -58q-54 -16 -89 -16zM110 187q0 -64 38.5 -105.5t122.5 -41.5q67 0 119 29q-63 49 -116.5 115.5t-88.5 139.5q-75 -44 -75 -137z" />
    <glyph glyph-name="quotesingle" unicode="'" horiz-adv-x="210" 
d="M60 700h90l-30 -250h-30z" />
    <glyph glyph-name="parenleft" unicode="(" horiz-adv-x="300" 
d="M97.5 45q-52.5 99 -52.5 305t52.5 305t157.5 99v-58q-75 0 -112.5 -85t-37.5 -261t37.5 -261t112.5 -85v-58q-105 0 -157.5 99z" />
    <glyph glyph-name="parenright" unicode=")" horiz-adv-x="300" 
d="M157.5 89q37.5 85 37.5 261t-37.5 261t-112.5 85v58q105 0 157.5 -99t52.5 -305t-52.5 -305t-157.5 -99v58q75 0 112.5 85z" />
    <glyph glyph-name="asterisk" unicode="*" horiz-adv-x="427" 
d="M213 488l-83 -111l-40 33l79 107l-126 42l18 48l125 -40v133h54v-134q84 28 126 41l18 -48l-129 -42l81 -107l-40 -32z" />
    <glyph glyph-name="plus" unicode="+" horiz-adv-x="701" 
d="M321 321h-246v58h246v246h58v-246h247v-58h-247v-247h-58v247z" />
    <glyph glyph-name="comma" unicode="," horiz-adv-x="212" 
d="M106 -21q-26 1 -43.5 18.5t-17.5 42.5t18 43.5t43 18.5q26 0 43.5 -18t17.5 -44q0 -45 -21.5 -87t-60.5 -78l-37 32q40 38 58 72z" />
    <glyph glyph-name="hyphen" unicode="-" horiz-adv-x="401" 
d="M75 379h251v-58h-251v58z" />
    <glyph glyph-name="period" unicode="." horiz-adv-x="212" 
d="M63 -2q-18 18 -18 43t18 43t43 18q26 0 43.5 -17.5t17.5 -43.5q0 -25 -18 -43t-43 -18t-43 18z" />
    <glyph glyph-name="slash" unicode="/" horiz-adv-x="387" 
d="M326 700h61l-326 -700h-61z" />
    <glyph glyph-name="zero" unicode="0" horiz-adv-x="610" 
d="M439.5 683q58.5 -41 92 -125t33.5 -208t-33.5 -208t-92 -125t-134.5 -41t-134.5 41t-92 125t-33.5 208t33.5 208t92 125t134.5 41t134.5 -41zM408.5 68.5q45.5 34.5 71 105.5t25.5 176t-25.5 176t-71 105.5t-103.5 34.5t-103.5 -34.5t-71 -105.5t-25.5 -176t25.5 -176
t71 -105.5t103.5 -34.5t103.5 34.5z" />
    <glyph glyph-name="one" unicode="1" horiz-adv-x="373" 
d="M208 450l4 161l-179 -93l-28 50l252 130l1 2h10v-700h-60v450z" />
    <glyph glyph-name="two" unicode="2" horiz-adv-x="566" 
d="M45 38q-4 -3 43 34q129 100 198 161.5t112 130t43 145.5q0 82 -46.5 119.5t-120.5 37.5q-83 0 -126 -53t-43 -183h-60q0 146 63.5 220t175.5 74q75 0 124 -31.5t71 -80.5t22 -103q0 -120 -101.5 -239t-274.5 -222l126 10h270v-58h-476v38z" />
    <glyph glyph-name="three" unicode="3" horiz-adv-x="544" 
d="M239 359h53q62 0 96.5 38t34.5 107q0 80 -43.5 121t-108.5 41q-77 0 -121.5 -59.5t-44.5 -176.5h-60q0 145 61 219.5t163 74.5q62 0 110.5 -25.5t76 -74.5t27.5 -118t-28.5 -112.5t-81.5 -61.5q126 -28 126 -155q0 -62 -28.5 -107.5t-78.5 -69.5t-113 -24
q-65 0 -125.5 25.5t-106.5 69.5l41 43q38 -37 87.5 -58.5t102.5 -21.5q71 0 116 38t45 107q0 59 -37 90.5t-113 31.5h-50v58z" />
    <glyph glyph-name="four" unicode="4" horiz-adv-x="582" 
d="M396 180h-361v38l188 482h62l-179 -462h290v244l60 12v-256h91v-58h-91v-180h-60v180z" />
    <glyph glyph-name="five" unicode="5" horiz-adv-x="544" 
d="M166.5 51.5q49.5 -17.5 97.5 -17.5q79 0 127 49t48 135q0 81 -43 123t-117 42q-46 0 -81 -15.5t-66 -44.5v-1h-1l-58 13l23 365h366v-58h-310l-16 -249q33 24 67 36t79 12q99 0 158 -57t59 -165q0 -76 -30 -131t-83 -83.5t-120 -28.5q-60 0 -118.5 21t-100.5 54l35 47
q35 -29 84.5 -46.5z" />
    <glyph glyph-name="six" unicode="6" horiz-adv-x="578" 
d="M399.5 653q-47.5 11 -86.5 11q-91 0 -145 -67t-62 -208q95 51 194 51q104 0 168.5 -59t64.5 -172q0 -109 -61.5 -171t-171.5 -62q-255 0 -255 362q0 197 71 291.5t196 94.5q49 0 104 -13t93 -34l-29 -51q-33 16 -80.5 27zM160.5 100q52.5 -64 140.5 -64q81 0 126.5 46
t45.5 127q0 84 -47.5 127.5t-127.5 43.5q-49 0 -99.5 -16.5t-93.5 -45.5q3 -154 55.5 -218z" />
    <glyph glyph-name="seven" unicode="7" horiz-adv-x="472" 
d="M382 642h-363v58h434v-38l-287 -662h-64z" />
    <glyph glyph-name="eight" unicode="8" horiz-adv-x="584" 
d="M508.5 283q30.5 -45 30.5 -103q0 -63 -32.5 -109t-88.5 -70.5t-126 -24.5t-126 24.5t-88.5 70.5t-32.5 109q0 125 127 173q-56 27 -83.5 70t-27.5 99q0 60 29.5 105.5t82 71t119.5 25.5q66 0 118.5 -25t82.5 -70.5t30 -106.5q0 -116 -111 -169q66 -25 96.5 -70z
M414 627.5q-49 38.5 -122 38.5t-122 -38.5t-49 -104.5t49 -103.5t122 -37.5t122 38.5t49 103.5t-49 103.5zM426.5 283.5q-52.5 38.5 -133.5 38.5q-87 0 -137.5 -39t-50.5 -105q0 -68 54 -106t134 -38q78 0 132 38t54 107q0 66 -52.5 104.5z" />
    <glyph glyph-name="nine" unicode="9" horiz-adv-x="578" 
d="M178.5 47q47.5 -11 86.5 -11q90 0 144 67t62 207q-44 -24 -93.5 -37t-99.5 -13q-104 0 -168.5 59t-64.5 172q0 109 61.5 171t171.5 62q255 0 255 -362q0 -197 -71 -291.5t-196 -94.5q-49 0 -104 13t-93 34l29 51q33 -16 80.5 -27zM277 664q-81 0 -126.5 -46t-45.5 -127
q0 -84 47.5 -127.5t127.5 -43.5q49 0 100 16t93 45q-6 283 -196 283z" />
    <glyph glyph-name="colon" unicode=":" horiz-adv-x="272" 
d="M63 298q-18 18 -18 43t18 43t43 18q26 0 43.5 -17.5t17.5 -43.5q0 -25 -18 -43t-43 -18t-43 18zM63 -2q-18 18 -18 43t18 43t43 18q26 0 43.5 -17.5t17.5 -43.5q0 -25 -18 -43t-43 -18t-43 18z" />
    <glyph glyph-name="semicolon" unicode=";" horiz-adv-x="272" 
d="M63 298q-18 18 -18 43t18 43t43 18q26 0 43.5 -17.5t17.5 -43.5q0 -25 -18 -43t-43 -18t-43 18zM106 -21q-26 1 -43.5 18.5t-17.5 42.5t18 43.5t43 18.5q26 0 43.5 -18t17.5 -44q0 -45 -21.5 -87t-60.5 -78l-37 32q40 38 58 72z" />
    <glyph glyph-name="less" unicode="&#x3c;" horiz-adv-x="598" 
d="M50 370l473 262v-66l-281 -156l-128 -60l128 -60l281 -155v-66l-473 261v40z" />
    <glyph glyph-name="equal" unicode="=" horiz-adv-x="601" 
d="M75 468h451v-58h-451v58zM75 290h451v-58h-451v58z" />
    <glyph glyph-name="greater" unicode="&#x3e;" horiz-adv-x="598" 
d="M75 135l281 155l128 60l-128 60l-281 156v66l473 -262v-40l-473 -261v66z" />
    <glyph glyph-name="question" unicode="?" horiz-adv-x="553" 
d="M247 376l55 11q59 12 96 45t37 93q0 71 -51 105t-127 34q-50 0 -99 -15t-84 -42l-32 52q41 31 98.5 48t116.5 17q101 0 169.5 -50.5t68.5 -152.5q0 -89 -52 -131t-145 -64l-4 -176h-40zM234 -5q-15 15 -15 37t15 37t37 15t37 -15t15 -37t-15 -37t-37 -15t-37 15z" />
    <glyph glyph-name="at" unicode="@" horiz-adv-x="750" 
d="M409 -24q-182 0 -273 91.5t-91 285.5q0 190 86.5 280.5t257.5 90.5q165 0 240.5 -80.5t75.5 -235.5q0 -126 -43.5 -185t-109.5 -59q-28 0 -49.5 9.5t-39.5 30.5q-43 -40 -103 -40q-68 0 -105.5 46.5t-37.5 138.5t37.5 138.5t105.5 46.5q62 0 106 -44l6 35h48v-293
q18 -10 33 -10q38 0 65 47.5t27 140.5q0 126 -60 191t-196 65q-143 0 -213.5 -75.5t-70.5 -235.5q0 -166 75.5 -243.5t229.5 -77.5q70 0 132.5 14.5t108.5 38.5l26 -54q-118 -57 -268 -57zM414 464q-25 12 -51 12q-86 0 -86 -127t86 -127q56 0 97 49v156q-21 25 -46 37z" />
    <glyph glyph-name="A" unicode="A" horiz-adv-x="775" 
d="M646 161h-356l-65 -161h-64l263 642h-119q-123 0 -174.5 -36t-51.5 -100q0 -53 38 -88t110 -35v-58q-102 0 -155 51t-53 130q0 194 286 194h183l287 -700h-64zM468 617l-41 -118l-114 -280h309l-113 280z" />
    <glyph glyph-name="B" unicode="B" horiz-adv-x="804" 
d="M304 642q-122 0 -173.5 -36t-51.5 -100q0 -53 38 -88t110 -35v-58q-102 0 -155 51t-53 130q0 193 285 194h205q101 0 165.5 -45.5t64.5 -138.5q0 -59 -28 -100t-78 -62q59 -20 92.5 -62.5t33.5 -107.5q0 -93 -64.5 -138.5t-165.5 -45.5h-225v642zM630.5 414.5
q48.5 35.5 48.5 101.5q0 64 -47 94t-123 30h-145v-261h145q73 0 121.5 35.5zM652 90q47 30 47 94q0 66 -48.5 101.5t-121.5 35.5h-165v-261h165q76 0 123 30z" />
    <glyph glyph-name="C" unicode="C" horiz-adv-x="600" 
d="M347 -24q-138 0 -220 95t-82 284q0 122 35 204.5t96 123.5t139 41q70 0 126 -32.5t88 -98.5t32 -163h-60q0 115 -52 175.5t-134 60.5q-61 0 -108.5 -34.5t-74.5 -104t-27 -171.5q0 -161 66 -241.5t177 -80.5q95 0 172 55l36 -48q-92 -65 -209 -65z" />
    <glyph glyph-name="D" unicode="D" horiz-adv-x="849" 
d="M305 642q-123 0 -174.5 -36t-51.5 -100q0 -53 38 -88t110 -35v-58q-102 0 -155 51t-53 130q0 194 286 194h181q93 0 165 -38.5t112.5 -117t40.5 -194.5t-40.5 -194.5t-112.5 -117t-165 -38.5h-181v642zM673 132q71 74 71 218t-71 218t-187 74h-121v-584h121q116 0 187 74
z" />
    <glyph glyph-name="E" unicode="E" horiz-adv-x="771" 
d="M305 642q-123 0 -174.5 -36t-51.5 -100q0 -53 38 -88t110 -35v-58q-102 0 -155 51t-53 130q0 194 286 194h415v-58h-355v-263h305v-58h-305v-263h355v-58h-415v642z" />
    <glyph glyph-name="F" unicode="F" horiz-adv-x="754" 
d="M305 642q-123 0 -174.5 -36t-51.5 -100q0 -53 38 -88t110 -35v-58q-102 0 -155 51t-53 130q0 194 286 194h415v-58h-355v-263h305v-58h-305v-321h-60v642z" />
    <glyph glyph-name="G" unicode="G" horiz-adv-x="640" 
d="M529 29q-84 -53 -184 -53q-89 0 -156.5 41.5t-105.5 126t-38 210.5q0 183 80 276.5t217 93.5q60 0 115.5 -17.5t100.5 -47.5l-33 -51q-33 27 -82.5 41.5t-102.5 14.5q-110 0 -167.5 -72.5t-57.5 -240.5q0 -172 59 -243.5t169 -71.5q97 0 158 46v239h-168v59h238v-381h-27
z" />
    <glyph glyph-name="H" unicode="H" horiz-adv-x="871" 
d="M736 321h-371v-321h-60v642q-123 0 -174.5 -36t-51.5 -100q0 -53 38 -88t110 -35v-58q-102 0 -155 51t-53 130q0 194 286 194h60v-321h371v321h60v-700h-60v321z" />
    <glyph glyph-name="I" unicode="I" horiz-adv-x="440" 
d="M305 642q-123 0 -174.5 -36t-51.5 -100q0 -53 38 -88t110 -35v-58q-102 0 -155 51t-53 130q0 194 286 194h60v-700h-60v642z" />
    <glyph glyph-name="J" unicode="J" horiz-adv-x="433" 
d="M130.5 606q-51.5 -36 -51.5 -100q0 -53 38 -88t110 -35v-58q-102 0 -155 51t-53 130q0 193 285 194h60v-480q0 -115 -51.5 -174.5t-137.5 -59.5q-57 0 -125 26l20 57q58 -23 105 -23q60 0 94.5 44t34.5 130v422q-122 0 -173.5 -36z" />
    <glyph glyph-name="K" unicode="K" horiz-adv-x="791" 
d="M365 333v-333h-60v642q-123 0 -174.5 -36t-51.5 -100q0 -53 38 -88t110 -35v-58q-102 0 -155 51t-53 130q0 194 286 194h60v-334l327 334h81l-343 -350l343 -350h-81z" />
    <glyph glyph-name="L" unicode="L" horiz-adv-x="687" 
d="M305 642q-123 0 -174.5 -36t-51.5 -100q0 -53 38 -88t110 -35v-58q-102 0 -155 51t-53 130q0 194 286 194h60v-642h305v-58h-365v642z" />
    <glyph glyph-name="M" unicode="M" horiz-adv-x="1020" 
d="M885 559l-240 -379h-40l-240 379v-559h-60v642q-123 0 -174.5 -36t-51.5 -100q0 -53 38 -88t110 -35v-58q-102 0 -155 51t-53 130q0 194 286 194h40l280 -445l280 445h40v-700h-60v559z" />
    <glyph glyph-name="N" unicode="N" horiz-adv-x="871" 
d="M365 568v-568h-60v642q-123 0 -174.5 -36t-51.5 -100q0 -53 38 -88t110 -35v-58q-102 0 -155 51t-53 130q0 194 286 194h40l391 -568v568h60v-700h-40z" />
    <glyph glyph-name="O" unicode="O" horiz-adv-x="670" 
d="M485.5 683q65.5 -41 102.5 -125t37 -208t-37 -208t-102.5 -125t-150.5 -41t-150.5 41t-102.5 125t-37 208t37 208t102.5 125t150.5 41t150.5 -41zM502 114q63 80 63 236t-63 236t-167 80t-167 -80t-63 -236t63 -236t167 -80t167 80z" />
    <glyph glyph-name="P" unicode="P" horiz-adv-x="782" 
d="M305 642q-123 0 -174.5 -36t-51.5 -100q0 -53 38 -88t110 -35v-58q-102 0 -155 51t-53 130q0 194 286 194h225q64 0 116 -25t83 -77t31 -129q0 -114 -64 -171.5t-166 -57.5h-165v-240h-60v642zM652.5 341q47.5 43 47.5 128t-48 129t-122 44h-165v-344h165q75 0 122.5 43z
" />
    <glyph glyph-name="Q" unicode="Q" horiz-adv-x="671" 
d="M513.5 -93q-39.5 39 -65.5 91q-51 -22 -113 -22q-85 0 -150.5 41t-102.5 125t-37 208t37 208t102.5 125t150.5 41t150.5 -41t102.5 -125t37 -208q0 -117 -33 -198.5t-94 -125.5q22 -43 55.5 -76t72.5 -53l-28 -53q-45 24 -84.5 63zM502 114q63 80 63 236t-63 236t-167 80
t-167 -80t-63 -236t63 -236t167 -80t167 80z" />
    <glyph glyph-name="R" unicode="R" horiz-adv-x="793" 
d="M541 240h-176v-240h-60v642q-123 0 -174.5 -36t-51.5 -100q0 -53 38 -88t110 -35v-58q-102 0 -155 51t-53 130q0 194 286 194h225q64 0 116 -25t83 -77t31 -129q0 -91 -42 -146.5t-113 -73.5l161 -249h-68zM652.5 341q47.5 43 47.5 128t-48 129t-122 44h-165v-344h165
q75 0 122.5 43z" />
    <glyph glyph-name="S" unicode="S" horiz-adv-x="563" 
d="M156 54.5q57 -18.5 114 -18.5q82 0 138 39t56 110q0 40 -20.5 64.5t-59.5 39.5t-110 31q-78 17 -123 34.5t-74 54.5t-29 102q0 70 33 118t88 71.5t120 23.5q57 0 116 -17t101 -48l-32 -52q-36 27 -86 42t-98 15q-76 0 -129 -39t-53 -110q0 -45 22 -71t56 -39t88 -24
q85 -17 131.5 -32t82.5 -53.5t36 -108.5q0 -69 -35 -116.5t-93 -71t-126 -23.5q-65 0 -130 20.5t-111 54.5l32 53q38 -31 95 -49.5z" />
    <glyph glyph-name="T" unicode="T" horiz-adv-x="707" 
d="M418 642h-113q-123 0 -174.5 -36t-51.5 -100q0 -53 38 -88t110 -35v-58q-102 0 -155 51t-53 130q0 194 286 194h383v-58h-210v-642h-60v642z" />
    <glyph glyph-name="U" unicode="U" horiz-adv-x="878" 
d="M809 700v-467q0 -82 -35 -140.5t-92.5 -87.5t-124.5 -29t-124.5 29t-92.5 87.5t-35 140.5v409q-123 0 -174.5 -36t-51.5 -100q0 -53 38 -88t110 -35v-58q-102 0 -155 51t-53 130q0 194 286 194h60v-467q0 -64 26.5 -109t70.5 -67.5t95 -22.5t95 22.5t70.5 67.5t26.5 109
v467h60z" />
    <glyph glyph-name="V" unicode="V" horiz-adv-x="853" 
d="M263 641q-100 -6 -142 -41.5t-42 -93.5q0 -53 38 -88t110 -35v-58q-102 0 -155 51t-53 130q0 88 68 141t198 53h18l202 -499l41 -118l41 118l202 499h64l-287 -700h-40z" />
    <glyph glyph-name="W" unicode="W" horiz-adv-x="1018" 
d="M677 418l-41 163l-41 -163l-122 -418h-40l-174 640q-180 -12 -180 -134q0 -53 38 -88t110 -35v-58q-102 0 -155 51t-53 130q0 88 68 141t198 53h20l119 -438l31 -143l33 143l128 438h40l128 -438l33 -143l31 143l109 438h61l-179 -700h-40z" />
    <glyph glyph-name="X" unicode="X" horiz-adv-x="764" 
d="M478 312l-206 -312h-70l241 365l-182 275q-98 -6 -140 -41t-42 -93q0 -53 38 -88t110 -35v-58q-102 0 -155 51t-53 130q0 88 68 141t198 53h7l186 -282l187 282h70l-222 -335l242 -365h-70z" />
    <glyph glyph-name="Y" unicode="Y" horiz-adv-x="788" 
d="M477 244l-218 396q-180 -12 -180 -134q0 -53 38 -88t110 -35v-58q-102 0 -155 51t-53 130q0 88 68 141t198 53h7l215 -390l215 390h66l-251 -456v-244h-60v244z" />
    <glyph glyph-name="Z" unicode="Z" horiz-adv-x="658" 
d="M24 38l354 604h-354v58h434v-38l-354 -604h249q123 0 174.5 36t51.5 100q0 53 -38 88t-110 35v58q102 0 155 -51t53 -130q0 -194 -286 -194h-329v38z" />
    <glyph glyph-name="bracketleft" unicode="[" horiz-adv-x="341" 
d="M75 755h215v-58h-155v-694h155v-58h-215v810z" />
    <glyph glyph-name="backslash" unicode="\" horiz-adv-x="387" 
d="M0 700h61l326 -700h-61z" />
    <glyph glyph-name="bracketright" unicode="]" horiz-adv-x="341" 
d="M51 3h155v694h-155v58h215v-810h-215v58z" />
    <glyph glyph-name="underscore" unicode="_" horiz-adv-x="550" 
d="M0 -100h551v-58h-551v58z" />
    <glyph glyph-name="grave" unicode="`" horiz-adv-x="391" 
d="M101 809l38 51l170 -92l-10 -20z" />
    <glyph glyph-name="a" unicode="a" horiz-adv-x="614" 
d="M485 161h-356l-65 -161h-64l287 700h40l287 -700h-64zM307 617l-41 -118l-114 -280h309l-113 280z" />
    <glyph glyph-name="b" unicode="b" horiz-adv-x="575" 
d="M75 700h205q101 0 165.5 -45.5t64.5 -138.5q0 -59 -28 -100t-78 -62q59 -20 92.5 -62.5t33.5 -107.5q0 -93 -64.5 -138.5t-165.5 -45.5h-225v700zM401.5 414.5q48.5 35.5 48.5 101.5q0 64 -47 94t-123 30h-145v-261h145q73 0 121.5 35.5zM423 90q47 30 47 94
q0 66 -48.5 101.5t-121.5 35.5h-165v-261h165q76 0 123 30z" />
    <glyph glyph-name="c" unicode="c" horiz-adv-x="600" 
d="M347 -24q-138 0 -220 95t-82 284q0 122 35 204.5t96 123.5t139 41q70 0 126 -32.5t88 -98.5t32 -163h-60q0 115 -52 175.5t-134 60.5q-61 0 -108.5 -34.5t-74.5 -104t-27 -171.5q0 -161 66 -241.5t177 -80.5q95 0 172 55l36 -48q-92 -65 -209 -65z" />
    <glyph glyph-name="d" unicode="d" horiz-adv-x="619" 
d="M75 700h181q93 0 165 -38.5t112.5 -117t40.5 -194.5t-40.5 -194.5t-112.5 -117t-165 -38.5h-181v700zM443 132q71 74 71 218t-71 218t-187 74h-121v-584h121q116 0 187 74z" />
    <glyph glyph-name="e" unicode="e" horiz-adv-x="541" 
d="M75 700h415v-58h-355v-263h305v-58h-305v-263h355v-58h-415v700z" />
    <glyph glyph-name="f" unicode="f" horiz-adv-x="524" 
d="M75 700h415v-58h-355v-263h305v-58h-305v-321h-60v700z" />
    <glyph glyph-name="g" unicode="g" horiz-adv-x="640" 
d="M529 29q-84 -53 -184 -53q-89 0 -156.5 41.5t-105.5 126t-38 210.5q0 183 80 276.5t217 93.5q60 0 115.5 -17.5t100.5 -47.5l-33 -51q-33 27 -82.5 41.5t-102.5 14.5q-110 0 -167.5 -72.5t-57.5 -240.5q0 -172 59 -243.5t169 -71.5q97 0 158 46v239h-168v59h238v-381h-27
z" />
    <glyph glyph-name="h" unicode="h" horiz-adv-x="641" 
d="M506 321h-371v-321h-60v700h60v-321h371v321h60v-700h-60v321z" />
    <glyph glyph-name="i" unicode="i" horiz-adv-x="210" 
d="M75 700h60v-700h-60v700z" />
    <glyph glyph-name="j" unicode="j" horiz-adv-x="388" 
d="M319 700v-480q0 -115 -51.5 -174.5t-137.5 -59.5q-57 0 -125 26l20 57q58 -23 105 -23q60 0 94.5 44t34.5 130v480h60z" />
    <glyph glyph-name="k" unicode="k" horiz-adv-x="561" 
d="M135 333v-333h-60v700h60v-334l327 334h81l-343 -350l343 -350h-81z" />
    <glyph glyph-name="l" unicode="l" horiz-adv-x="457" 
d="M75 0v700h60v-642h305v-58h-365z" />
    <glyph glyph-name="m" unicode="m" horiz-adv-x="790" 
d="M655 559l-240 -379h-40l-240 379v-559h-60v700h40l280 -445l280 445h40v-700h-60v559z" />
    <glyph glyph-name="n" unicode="n" horiz-adv-x="641" 
d="M135 568v-568h-60v700h40l391 -568v568h60v-700h-40z" />
    <glyph glyph-name="o" unicode="o" horiz-adv-x="670" 
d="M485.5 683q65.5 -41 102.5 -125t37 -208t-37 -208t-102.5 -125t-150.5 -41t-150.5 41t-102.5 125t-37 208t37 208t102.5 125t150.5 41t150.5 -41zM502 114q63 80 63 236t-63 236t-167 80t-167 -80t-63 -236t63 -236t167 -80t167 80z" />
    <glyph glyph-name="p" unicode="p" horiz-adv-x="552" 
d="M75 700h225q64 0 116 -25t83 -77t31 -129q0 -114 -64 -171.5t-166 -57.5h-165v-240h-60v700zM422.5 341q47.5 43 47.5 128t-48 129t-122 44h-165v-344h165q75 0 122.5 43z" />
    <glyph glyph-name="q" unicode="q" horiz-adv-x="671" 
d="M513.5 -93q-39.5 39 -65.5 91q-51 -22 -113 -22q-85 0 -150.5 41t-102.5 125t-37 208t37 208t102.5 125t150.5 41t150.5 -41t102.5 -125t37 -208q0 -117 -33 -198.5t-94 -125.5q22 -43 55.5 -76t72.5 -53l-28 -53q-45 24 -84.5 63zM502 114q63 80 63 236t-63 236t-167 80
t-167 -80t-63 -236t63 -236t167 -80t167 80z" />
    <glyph glyph-name="r" unicode="r" horiz-adv-x="564" 
d="M312 240h-176v-240h-60v700h225q64 0 116 -25t83 -77t31 -129q0 -91 -42 -146.5t-113 -73.5l161 -249h-68zM423.5 341q47.5 43 47.5 128t-48 129t-122 44h-165v-344h165q75 0 122.5 43z" />
    <glyph glyph-name="s" unicode="s" horiz-adv-x="563" 
d="M156 54.5q57 -18.5 114 -18.5q83 0 138.5 39t55.5 112q0 41 -20 65t-58 37.5t-112 30.5q-79 17 -123.5 34t-73.5 54t-29 102q0 70 33 118.5t88 72t120 23.5q55 0 113 -17t99 -48l-32 -52q-35 27 -83.5 42t-95.5 15q-77 0 -129.5 -39t-52.5 -111q0 -44 21 -70t55 -39
t90 -24q83 -16 130.5 -31.5t83.5 -54t36 -108.5q0 -69 -35 -116.5t-93 -71t-126 -23.5q-65 0 -130 20.5t-111 54.5l32 53q38 -31 95 -49.5z" />
    <glyph glyph-name="t" unicode="t" horiz-adv-x="518" 
d="M229 642h-210v58h480v-58h-210v-642h-60v642z" />
    <glyph glyph-name="u" unicode="u" horiz-adv-x="642" 
d="M573 700v-467q0 -82 -35 -140.5t-92.5 -87.5t-124.5 -29t-124.5 29t-92.5 87.5t-35 140.5v467h60v-467q0 -64 26.5 -109t70.5 -67.5t95 -22.5t95 22.5t70.5 67.5t26.5 109v467h60z" />
    <glyph glyph-name="v" unicode="v" horiz-adv-x="614" 
d="M287 0l-287 700h64l202 -499l41 -118l41 118l202 499h64l-287 -700h-40z" />
    <glyph glyph-name="w" unicode="w" horiz-adv-x="774" 
d="M433 418l-41 163l-41 -163l-122 -418h-40l-189 700h61l119 -438l31 -143l33 143l128 438h40l128 -438l33 -143l31 143l109 438h61l-179 -700h-40z" />
    <glyph glyph-name="x" unicode="x" horiz-adv-x="571" 
d="M285 312l-206 -312h-70l241 365l-221 335h70l186 -282l187 282h70l-222 -335l242 -365h-70z" />
    <glyph glyph-name="y" unicode="y" horiz-adv-x="562" 
d="M251 244l-251 456h66l215 -390l215 390h66l-251 -456v-244h-60v244z" />
    <glyph glyph-name="z" unicode="z" horiz-adv-x="495" 
d="M24 38l354 604h-354v58h434v-38l-354 -604h354v-58h-434v38z" />
    <glyph glyph-name="braceleft" unicode="{" horiz-adv-x="401" 
d="M222.5 -22q-34.5 33 -45 84t-13.5 134q-1 49 -16.5 88t-64.5 39h-33v54h33q49 0 64.5 39t16.5 88q3 83 13.5 134t45 84t103.5 33v-58q-48 0 -69 -24t-25.5 -57.5t-7.5 -110.5q-2 -61 -15 -102t-57 -53q44 -12 57 -53t15 -102q3 -77 7.5 -110.5t25.5 -57.5t69 -24v-58
q-69 0 -103.5 33z" />
    <glyph glyph-name="bar" unicode="|" horiz-adv-x="190" 
d="M65 850h60v-1000h-60v1000z" />
    <glyph glyph-name="braceright" unicode="}" horiz-adv-x="401" 
d="M143 26.5q21 23.5 26 58t8 110.5q2 61 15 102t56 53q-43 12 -56 53t-15 102q-3 76 -8 110.5t-26 58t-68 23.5v58q69 0 103.5 -33t45 -84t13.5 -134q1 -49 16.5 -88t64.5 -39h33v-54h-33q-49 0 -64.5 -39t-16.5 -88q-3 -83 -13.5 -134t-45 -84t-103.5 -33v58q47 0 68 23.5
z" />
    <glyph glyph-name="exclamdown" unicode="&#xa1;" horiz-adv-x="220" 
d="M144 631q-15 -15 -37 -15t-37 15t-15 37t15 37t37 15t37 -15t15 -37t-15 -37zM65 0l25 550h40l25 -550h-90z" />
    <glyph glyph-name="yen" unicode="&#xa5;" horiz-adv-x="562" 
d="M311 0h-60v94h-196v50h196v100h-196v50h168l-223 406h66l215 -390l215 390h66l-224 -406h168v-50h-195v-100h195v-50h-195v-94z" />
    <glyph glyph-name="dieresis" unicode="&#xa8;" horiz-adv-x="374" 
d="M86 751.5q-11 11.5 -11 28.5q0 16 11.5 28t28.5 12q16 0 28 -12t12 -28q0 -17 -11.5 -28.5t-28.5 -11.5q-18 0 -29 11.5zM230.5 751.5q-11.5 11.5 -11.5 28.5q0 16 11.5 28t28.5 12q18 0 29 -11.5t11 -28.5t-11.5 -28.5t-28.5 -11.5t-28.5 11.5z" />
    <glyph glyph-name="copyright" unicode="&#xa9;" horiz-adv-x="810" 
d="M221 29.5q-82 49.5 -129 134.5t-47 186t47 186t129 134.5t184 49.5t184 -49.5t129 -134.5t47 -186t-47 -186t-129 -134.5t-184 -49.5t-184 49.5zM247 620.5q-68 -41.5 -105 -113t-37 -157.5t37 -157.5t105 -113t158 -41.5t158 41.5t105 113t37 157.5t-37 157.5t-105 113
t-158 41.5t-158 -41.5zM430 126q-86 0 -137.5 57t-51.5 170q0 109 47 165t125 56q68 0 112 -45t44 -131h-63q0 59 -25.5 88t-67.5 29q-50 0 -79.5 -40t-29.5 -121q0 -88 33.5 -128.5t92.5 -40.5q60 0 103 36l36 -47q-60 -48 -139 -48z" />
    <glyph glyph-name="guillemotleft" unicode="&#xab;" horiz-adv-x="492" 
d="M305 602l-189 -252l189 -252h-71l-189 252l189 252h71zM447 574l-168 -224l168 -224h-71l-169 224l169 224h71z" />
    <glyph glyph-name="registered" unicode="&#xae;" horiz-adv-x="810" 
d="M221 29.5q-82 49.5 -129 134.5t-47 186t47 186t129 134.5t184 49.5t184 -49.5t129 -134.5t47 -186t-47 -186t-129 -134.5t-184 -49.5t-184 49.5zM247 620.5q-68 -41.5 -105 -113t-37 -157.5t37 -157.5t105 -113t158 -41.5t158 41.5t105 113t37 157.5t-37 157.5t-105 113
t-158 41.5t-158 -41.5zM402 284h-73v-144h-63v420h153q60 0 99 -35.5t39 -103.5q0 -53 -24 -85.5t-65 -44.5l96 -151h-72zM473 361.5q21 18.5 21 59.5q0 42 -21 61t-54 19h-90v-158h90q33 0 54 18.5z" />
    <glyph glyph-name="macron" unicode="&#xaf;" horiz-adv-x="406" 
d="M40 805h326v-50h-326v50z" />
    <glyph glyph-name="degree" unicode="&#xb0;" horiz-adv-x="380" 
d="M114.5 440q-34.5 20 -54.5 54.5t-20 75.5q0 40 20 74.5t54.5 55t75.5 20.5t75.5 -20t54.5 -54.5t20 -75.5t-20 -75.5t-54.5 -54.5t-75.5 -20t-75.5 20zM260.5 498q29.5 30 29.5 72t-29.5 72t-70.5 30t-70.5 -30t-29.5 -72t29.5 -72t70.5 -30t70.5 30z" />
    <glyph glyph-name="acute" unicode="&#xb4;" horiz-adv-x="391" 
d="M101 768l170 92l38 -51l-198 -61z" />
    <glyph glyph-name="cedilla" unicode="&#xb8;" horiz-adv-x="286" 
d="M106.5 -142q9.5 -6 22.5 -6t21 6.5t8 17.5t-7.5 16.5t-18.5 10t-16 6.5l-11 5l29 87h32l-15 -53l10 -4q50 -20 50 -69q0 -33 -22 -51t-56 -18q-19 0 -30.5 5.5t-27.5 18.5l19 36q3 -2 12.5 -8z" />
    <glyph glyph-name="guillemotright" unicode="&#xbb;" horiz-adv-x="492" 
d="M258 98h-71l189 252l-189 252h71l189 -252zM116 126h-71l168 224l-168 224h71l169 -224z" />
    <glyph glyph-name="questiondown" unicode="&#xbf;" horiz-adv-x="553" 
d="M303 635q-15 -15 -37 -15t-37 15t-15 37t15 37t37 15t37 -15t15 -37t-15 -37zM396.5 -3q-57.5 -17 -116.5 -17q-101 0 -169.5 50.5t-68.5 152.5q0 89 52 131t145 64l4 176h40l7 -226l-55 -11q-59 -12 -96 -45t-37 -93q0 -71 51 -105t127 -34q50 0 99 15t84 42l32 -52
q-41 -31 -98.5 -48z" />
    <glyph glyph-name="Agrave" unicode="&#xc0;" horiz-adv-x="775" 
d="M283 809l38 51l170 -92l-10 -20zM646 161h-356l-65 -161h-64l263 642h-119q-123 0 -174.5 -36t-51.5 -100q0 -53 38 -88t110 -35v-58q-102 0 -155 51t-53 130q0 194 286 194h183l287 -700h-64zM468 617l-41 -118l-114 -280h309l-113 280z" />
    <glyph glyph-name="Aacute" unicode="&#xc1;" horiz-adv-x="775" 
d="M354 768l170 92l38 -51l-198 -61zM646 161h-356l-65 -161h-64l263 642h-119q-123 0 -174.5 -36t-51.5 -100q0 -53 38 -88t110 -35v-58q-102 0 -155 51t-53 130q0 194 286 194h183l287 -700h-64zM468 617l-41 -118l-114 -280h309l-113 280z" />
    <glyph glyph-name="Acircumflex" unicode="&#xc2;" horiz-adv-x="775" 
d="M436 805l-69 -55h-36l80 98h52l80 -98h-38zM646 161h-356l-65 -161h-64l263 642h-119q-123 0 -174.5 -36t-51.5 -100q0 -53 38 -88t110 -35v-58q-102 0 -155 51t-53 130q0 194 286 194h183l287 -700h-64zM468 617l-41 -118l-114 -280h309l-113 280z" />
    <glyph glyph-name="Atilde" unicode="&#xc3;" horiz-adv-x="775" 
d="M559.5 760.5q-15.5 -16.5 -40.5 -16.5q-10 0 -25 5.5t-29 11.5q-34 16 -48 16t-22.5 -8.5t-17.5 -31.5l-27 7q11 42 26.5 58.5t40.5 16.5q10 0 25 -5.5t29 -11.5q34 -16 48 -16t22.5 8.5t17.5 31.5l27 -7q-11 -42 -26.5 -58.5zM646 161h-356l-65 -161h-64l263 642h-119
q-123 0 -174.5 -36t-51.5 -100q0 -53 38 -88t110 -35v-58q-102 0 -155 51t-53 130q0 194 286 194h183l287 -700h-64zM468 617l-41 -118l-114 -280h309l-113 280z" />
    <glyph glyph-name="Adieresis" unicode="&#xc4;" horiz-adv-x="775" 
d="M347 751.5q-11 11.5 -11 28.5q0 16 11.5 28t28.5 12q16 0 28 -12t12 -28q0 -17 -11.5 -28.5t-28.5 -11.5q-18 0 -29 11.5zM491.5 751.5q-11.5 11.5 -11.5 28.5q0 16 11.5 28t28.5 12q18 0 29 -11.5t11 -28.5t-11.5 -28.5t-28.5 -11.5t-28.5 11.5zM646 161h-356l-65 -161
h-64l263 642h-119q-123 0 -174.5 -36t-51.5 -100q0 -53 38 -88t110 -35v-58q-102 0 -155 51t-53 130q0 194 286 194h183l287 -700h-64zM468 617l-41 -118l-114 -280h309l-113 280z" />
    <glyph glyph-name="Aring" unicode="&#xc5;" horiz-adv-x="775" 
d="M646 161h-356l-65 -161h-64l263 642h-119q-123 0 -174.5 -36t-51.5 -100q0 -53 38 -88t110 -35v-58q-102 0 -155 51t-53 130q0 194 286 194h117q-32 22 -32 65q0 34 22.5 56.5t56.5 22.5t56.5 -22.5t22.5 -56.5q0 -28 -15.5 -48.5t-40.5 -27.5l283 -689h-64zM497.5 793.5
q-11.5 11.5 -28.5 11.5q-16 0 -28 -11.5t-12 -28.5t11.5 -28.5t28.5 -11.5t28.5 11.5t11.5 28.5t-11.5 28.5zM468 617l-41 -118l-114 -280h309l-113 280z" />
    <glyph glyph-name="AE" unicode="&#xc6;" horiz-adv-x="965" 
d="M559 161h-269l-65 -161h-64l263 642h-119q-123 0 -174.5 -36t-51.5 -100q0 -53 38 -88t110 -35v-58q-102 0 -155 51t-53 130q0 194 286 194h609v-58h-295v-263h245v-58h-245v-263h295v-58h-355v161zM484 642l-171 -423h246v423h-75z" />
    <glyph glyph-name="Ccedilla" unicode="&#xc7;" horiz-adv-x="600" 
d="M347 -24l-26 1l-8 -29l10 -4q50 -20 50 -69q0 -33 -22 -51t-56 -18q-19 0 -30.5 5.5t-27.5 18.5l19 36q3 -2 12.5 -8t22.5 -6t21 6.5t8 17.5t-7.5 16.5t-18.5 10t-16 6.5l-11 5l22 67q-113 18 -178.5 112.5t-65.5 262.5q0 121 35 204t96 123.5t141 40.5q69 0 124 -32.5
t87.5 -98.5t32.5 -163h-60q0 77 -24.5 130t-66 79.5t-93.5 26.5q-62 0 -110 -34.5t-75 -104t-27 -171.5q0 -161 66 -241.5t177 -80.5q95 0 172 55l36 -48q-92 -65 -209 -65z" />
    <glyph glyph-name="Egrave" unicode="&#xc8;" horiz-adv-x="771" 
d="M372 809l38 51l170 -92l-10 -20zM305 642q-123 0 -174.5 -36t-51.5 -100q0 -53 38 -88t110 -35v-58q-102 0 -155 51t-53 130q0 194 286 194h415v-58h-355v-263h305v-58h-305v-263h355v-58h-415v642z" />
    <glyph glyph-name="Eacute" unicode="&#xc9;" horiz-adv-x="771" 
d="M419 768l170 92l38 -51l-198 -61zM305 642q-123 0 -174.5 -36t-51.5 -100q0 -53 38 -88t110 -35v-58q-102 0 -155 51t-53 130q0 194 286 194h415v-58h-355v-263h305v-58h-305v-263h355v-58h-415v642z" />
    <glyph glyph-name="Ecircumflex" unicode="&#xca;" horiz-adv-x="771" 
d="M492 805l-69 -55h-36l80 98h52l80 -98h-38zM305 642q-123 0 -174.5 -36t-51.5 -100q0 -53 38 -88t110 -35v-58q-102 0 -155 51t-53 130q0 194 286 194h415v-58h-355v-263h305v-58h-305v-263h355v-58h-415v642z" />
    <glyph glyph-name="Edieresis" unicode="&#xcb;" horiz-adv-x="771" 
d="M423 751.5q-11 11.5 -11 28.5q0 16 11.5 28t28.5 12q16 0 28 -12t12 -28q0 -17 -11.5 -28.5t-28.5 -11.5q-18 0 -29 11.5zM567.5 751.5q-11.5 11.5 -11.5 28.5q0 16 11.5 28t28.5 12q18 0 29 -11.5t11 -28.5t-11.5 -28.5t-28.5 -11.5t-28.5 11.5zM305 642
q-123 0 -174.5 -36t-51.5 -100q0 -53 38 -88t110 -35v-58q-102 0 -155 51t-53 130q0 194 286 194h415v-58h-355v-263h305v-58h-305v-263h355v-58h-415v642z" />
    <glyph glyph-name="Igrave" unicode="&#xcc;" horiz-adv-x="443" 
d="M160 809l38 51l170 -92l-10 -20zM305 642q-123 0 -174.5 -36t-51.5 -100q0 -53 38 -88t110 -35v-58q-102 0 -155 51t-53 130q0 194 286 194h60v-700h-60v642z" />
    <glyph glyph-name="Iacute" unicode="&#xcd;" horiz-adv-x="477" 
d="M233 768l170 92l38 -51l-198 -61zM305 642q-123 0 -174.5 -36t-51.5 -100q0 -53 38 -88t110 -35v-58q-102 0 -155 51t-53 130q0 194 286 194h60v-700h-60v642z" />
    <glyph glyph-name="Icircumflex" unicode="&#xce;" horiz-adv-x="444" 
d="M305 805l-69 -55h-36l80 98h52l80 -98h-38zM305 642q-123 0 -174.5 -36t-51.5 -100q0 -53 38 -88t110 -35v-58q-102 0 -155 51t-53 130q0 194 286 194h60v-700h-60v642z" />
    <glyph glyph-name="Idieresis" unicode="&#xcf;" horiz-adv-x="469" 
d="M234 751.5q-11 11.5 -11 28.5q0 16 11.5 28t28.5 12q16 0 28 -12t12 -28q0 -17 -11.5 -28.5t-28.5 -11.5q-18 0 -29 11.5zM378.5 751.5q-11.5 11.5 -11.5 28.5q0 16 11.5 28t28.5 12q18 0 29 -11.5t11 -28.5t-11.5 -28.5t-28.5 -11.5t-28.5 11.5zM305 642
q-123 0 -174.5 -36t-51.5 -100q0 -53 38 -88t110 -35v-58q-102 0 -155 51t-53 130q0 194 286 194h60v-700h-60v642z" />
    <glyph glyph-name="Eth" unicode="&#xd0;" horiz-adv-x="849" 
d="M305 325h-78q-102 0 -155 51t-53 130q0 194 286 194h181q93 0 165 -38.5t112.5 -117t40.5 -194.5t-40.5 -194.5t-112.5 -117t-165 -38.5h-181v325zM130.5 606q-51.5 -36 -51.5 -100q0 -53 38 -88t110 -35h78v259q-123 0 -174.5 -36zM673 132q71 74 71 218t-71 218
t-187 74h-121v-259h195v-58h-195v-267h121q116 0 187 74z" />
    <glyph glyph-name="Ntilde" unicode="&#xd1;" horiz-adv-x="871" 
d="M646.5 760.5q-15.5 -16.5 -40.5 -16.5q-10 0 -25 5.5t-29 11.5q-34 16 -48 16t-22.5 -8.5t-17.5 -31.5l-27 7q11 42 26.5 58.5t40.5 16.5q10 0 25 -5.5t29 -11.5q34 -16 48 -16t22.5 8.5t17.5 31.5l27 -7q-11 -42 -26.5 -58.5zM365 568v-568h-60v642q-123 0 -174.5 -36
t-51.5 -100q0 -53 38 -88t110 -35v-58q-102 0 -155 51t-53 130q0 194 286 194h40l391 -568v568h60v-700h-40z" />
    <glyph glyph-name="Ograve" unicode="&#xd2;" horiz-adv-x="670" 
d="M231 809l38 51l170 -92l-10 -20zM485.5 683q65.5 -41 102.5 -125t37 -208t-37 -208t-102.5 -125t-150.5 -41t-150.5 41t-102.5 125t-37 208t37 208t102.5 125t150.5 41t150.5 -41zM502 114q63 80 63 236t-63 236t-167 80t-167 -80t-63 -236t63 -236t167 -80t167 80z" />
    <glyph glyph-name="Oacute" unicode="&#xd3;" horiz-adv-x="670" 
d="M231 768l170 92l38 -51l-198 -61zM485.5 683q65.5 -41 102.5 -125t37 -208t-37 -208t-102.5 -125t-150.5 -41t-150.5 41t-102.5 125t-37 208t37 208t102.5 125t150.5 41t150.5 -41zM502 114q63 80 63 236t-63 236t-167 80t-167 -80t-63 -236t63 -236t167 -80t167 80z" />
    <glyph glyph-name="Ocircumflex" unicode="&#xd4;" horiz-adv-x="670" 
d="M304 805l-69 -55h-36l80 98h52l80 -98h-38zM485.5 683q65.5 -41 102.5 -125t37 -208t-37 -208t-102.5 -125t-150.5 -41t-150.5 41t-102.5 125t-37 208t37 208t102.5 125t150.5 41t150.5 -41zM502 114q63 80 63 236t-63 236t-167 80t-167 -80t-63 -236t63 -236t167 -80
t167 80z" />
    <glyph glyph-name="Otilde" unicode="&#xd5;" horiz-adv-x="670" 
d="M426.5 760.5q-15.5 -16.5 -40.5 -16.5q-10 0 -25 5.5t-29 11.5q-34 16 -48 16t-22.5 -8.5t-17.5 -31.5l-27 7q11 42 26.5 58.5t40.5 16.5q10 0 25 -5.5t29 -11.5q34 -16 48 -16t22.5 8.5t17.5 31.5l27 -7q-11 -42 -26.5 -58.5zM485.5 683q65.5 -41 102.5 -125t37 -208
t-37 -208t-102.5 -125t-150.5 -41t-150.5 41t-102.5 125t-37 208t37 208t102.5 125t150.5 41t150.5 -41zM502 114q63 80 63 236t-63 236t-167 80t-167 -80t-63 -236t63 -236t167 -80t167 80z" />
    <glyph glyph-name="Odieresis" unicode="&#xd6;" horiz-adv-x="670" 
d="M234 751.5q-11 11.5 -11 28.5q0 16 11.5 28t28.5 12q16 0 28 -12t12 -28q0 -17 -11.5 -28.5t-28.5 -11.5q-18 0 -29 11.5zM378.5 751.5q-11.5 11.5 -11.5 28.5q0 16 11.5 28t28.5 12q18 0 29 -11.5t11 -28.5t-11.5 -28.5t-28.5 -11.5t-28.5 11.5zM485.5 683
q65.5 -41 102.5 -125t37 -208t-37 -208t-102.5 -125t-150.5 -41t-150.5 41t-102.5 125t-37 208t37 208t102.5 125t150.5 41t150.5 -41zM502 114q63 80 63 236t-63 236t-167 80t-167 -80t-63 -236t63 -236t167 -80t167 80z" />
    <glyph glyph-name="multiply" unicode="&#xd7;" horiz-adv-x="637" 
d="M142 136l-38 38l175 175l-175 176l38 38l175 -176l177 177l38 -38l-177 -177l177 -176l-38 -38l-177 176z" />
    <glyph glyph-name="Oslash" unicode="&#xd8;" horiz-adv-x="660" 
d="M91 113q-51 94 -51 237q0 124 37 208t102.5 125t150.5 41q61 0 112.5 -21.5t89.5 -64.5l64 76l46 -39l-74 -88q52 -93 52 -237q0 -124 -37 -208t-102.5 -125t-150.5 -41q-126 0 -203 86l-63 -76l-46 39zM497 114q63 80 63 236t-63 236t-167 80t-167 -80t-63 -236t63 -236
t167 -80t167 80z" />
    <glyph glyph-name="Ugrave" unicode="&#xd9;" horiz-adv-x="878" 
d="M392 809l38 51l170 -92l-10 -20zM810 700v-467q0 -82 -35 -140.5t-92.5 -87.5t-124.5 -29t-124.5 29t-92.5 87.5t-35 140.5v409q-123 0 -174.5 -36t-51.5 -100q0 -53 38 -88t110 -35v-58q-102 0 -155 51t-53 130q0 194 286 194h60v-467q0 -64 26.5 -109t70.5 -67.5
t95 -22.5t95 22.5t70.5 67.5t26.5 109v467h60z" />
    <glyph glyph-name="Uacute" unicode="&#xda;" horiz-adv-x="878" 
d="M475 768l170 92l38 -51l-198 -61zM810 700v-467q0 -82 -35 -140.5t-92.5 -87.5t-124.5 -29t-124.5 29t-92.5 87.5t-35 140.5v409q-123 0 -174.5 -36t-51.5 -100q0 -53 38 -88t110 -35v-58q-102 0 -155 51t-53 130q0 194 286 194h60v-467q0 -64 26.5 -109t70.5 -67.5
t95 -22.5t95 22.5t70.5 67.5t26.5 109v467h60z" />
    <glyph glyph-name="Ucircumflex" unicode="&#xdb;" horiz-adv-x="878" 
d="M529 805l-69 -55h-36l80 98h52l80 -98h-38zM810 700v-467q0 -82 -35 -140.5t-92.5 -87.5t-124.5 -29t-124.5 29t-92.5 87.5t-35 140.5v409q-123 0 -174.5 -36t-51.5 -100q0 -53 38 -88t110 -35v-58q-102 0 -155 51t-53 130q0 194 286 194h60v-467q0 -64 26.5 -109
t70.5 -67.5t95 -22.5t95 22.5t70.5 67.5t26.5 109v467h60z" />
    <glyph glyph-name="Udieresis" unicode="&#xdc;" horiz-adv-x="878" 
d="M459 751.5q-11 11.5 -11 28.5q0 16 11.5 28t28.5 12q16 0 28 -12t12 -28q0 -17 -11.5 -28.5t-28.5 -11.5q-18 0 -29 11.5zM603.5 751.5q-11.5 11.5 -11.5 28.5q0 16 11.5 28t28.5 12q18 0 29 -11.5t11 -28.5t-11.5 -28.5t-28.5 -11.5t-28.5 11.5zM810 700v-467
q0 -82 -35 -140.5t-92.5 -87.5t-124.5 -29t-124.5 29t-92.5 87.5t-35 140.5v409q-123 0 -174.5 -36t-51.5 -100q0 -53 38 -88t110 -35v-58q-102 0 -155 51t-53 130q0 194 286 194h60v-467q0 -64 26.5 -109t70.5 -67.5t95 -22.5t95 22.5t70.5 67.5t26.5 109v467h60z" />
    <glyph glyph-name="Yacute" unicode="&#xdd;" horiz-adv-x="788" 
d="M403 768l170 92l38 -51l-198 -61zM477 244l-218 396q-180 -12 -180 -134q0 -53 38 -88t110 -35v-58q-102 0 -155 51t-53 130q0 88 68 141t198 53h7l215 -390l215 390h66l-251 -456v-244h-60v244z" />
    <glyph glyph-name="Thorn" unicode="&#xde;" horiz-adv-x="552" 
d="M135 0h-60v700h60v-120h165q64 0 116 -25t83 -77t31 -129q0 -114 -64 -171.5t-166 -57.5h-165v-120zM422.5 221q47.5 43 47.5 128t-48 129t-122 44h-165v-344h165q75 0 122.5 43z" />
    <glyph glyph-name="germandbls" unicode="&#xdf;" horiz-adv-x="574" 
d="M269 60h37q73 0 118 40.5t45 116.5q0 65 -37.5 99.5t-112.5 34.5h-50v59h33q57 0 89 31.5t32 88.5q0 67 -40 100.5t-99 33.5q-70 0 -109.5 -51t-39.5 -153v-460h-60v460q0 131 56 197.5t153 66.5q87 0 143 -51t56 -143q0 -50 -18 -85.5t-51 -56.5q115 -37 115 -172
q0 -103 -62 -159.5t-161 -56.5h-37v60z" />
    <glyph glyph-name="agrave" unicode="&#xe0;" horiz-adv-x="614" 
d="M235 809l38 51l170 -92l-10 -20zM485 161h-356l-65 -161h-64l287 700h40l287 -700h-64zM307 617l-41 -118l-114 -280h309l-113 280z" />
    <glyph glyph-name="aacute" unicode="&#xe1;" horiz-adv-x="614" 
d="M235 768l170 92l38 -51l-198 -61zM485 161h-356l-65 -161h-64l287 700h40l287 -700h-64zM307 617l-41 -118l-114 -280h309l-113 280z" />
    <glyph glyph-name="acircumflex" unicode="&#xe2;" horiz-adv-x="614" 
d="M276 805l-69 -55h-36l80 98h52l80 -98h-38zM485 161h-356l-65 -161h-64l287 700h40l287 -700h-64zM307 617l-41 -118l-114 -280h309l-113 280z" />
    <glyph glyph-name="atilde" unicode="&#xe3;" horiz-adv-x="614" 
d="M398.5 760.5q-15.5 -16.5 -40.5 -16.5q-10 0 -25 5.5t-29 11.5q-34 16 -48 16t-22.5 -8.5t-17.5 -31.5l-27 7q11 42 26.5 58.5t40.5 16.5q10 0 25 -5.5t29 -11.5q34 -16 48 -16t22.5 8.5t17.5 31.5l27 -7q-11 -42 -26.5 -58.5zM485 161h-356l-65 -161h-64l287 700h40
l287 -700h-64zM307 617l-41 -118l-114 -280h309l-113 280z" />
    <glyph glyph-name="adieresis" unicode="&#xe4;" horiz-adv-x="614" 
d="M230 751.5q-11 11.5 -11 28.5q0 16 11.5 28t28.5 12q16 0 28 -12t12 -28q0 -17 -11.5 -28.5t-28.5 -11.5q-18 0 -29 11.5zM374.5 751.5q-11.5 11.5 -11.5 28.5q0 16 11.5 28t28.5 12q18 0 29 -11.5t11 -28.5t-11.5 -28.5t-28.5 -11.5t-28.5 11.5zM485 161h-356l-65 -161
h-64l287 700h40l287 -700h-64zM307 617l-41 -118l-114 -280h309l-113 280z" />
    <glyph glyph-name="aring" unicode="&#xe5;" horiz-adv-x="614" 
d="M485 161h-356l-65 -161h-64l282 689q-25 8 -39.5 28t-14.5 48q0 34 22.5 56.5t56.5 22.5t56.5 -22.5t22.5 -56.5q0 -27 -15 -47.5t-40 -28.5l283 -689h-64zM335.5 793.5q-11.5 11.5 -28.5 11.5q-16 0 -28 -11.5t-12 -28.5t11.5 -28.5t28.5 -11.5t28.5 11.5t11.5 28.5
t-11.5 28.5zM307 617l-41 -118l-114 -280h309l-113 280z" />
    <glyph glyph-name="ae" unicode="&#xe6;" horiz-adv-x="804" 
d="M398 161h-269l-65 -161h-64l287 700h466v-58h-295v-263h245v-58h-245v-263h295v-58h-355v161zM323 642l-171 -423h246v423h-75z" />
    <glyph glyph-name="ccedilla" unicode="&#xe7;" horiz-adv-x="600" 
d="M347 -24l-26 1l-8 -29l10 -4q50 -20 50 -69q0 -33 -22 -51t-56 -18q-19 0 -30.5 5.5t-27.5 18.5l19 36q3 -2 12.5 -8t22.5 -6t21 6.5t8 17.5t-7.5 16.5t-18.5 10t-16 6.5l-11 5l22 67q-113 18 -178.5 112.5t-65.5 262.5q0 121 35 204t96 123.5t141 40.5q69 0 124 -32.5
t87.5 -98.5t32.5 -163h-60q0 77 -24.5 130t-66 79.5t-93.5 26.5q-62 0 -110 -34.5t-75 -104t-27 -171.5q0 -161 66 -241.5t177 -80.5q95 0 172 55l36 -48q-92 -65 -209 -65z" />
    <glyph glyph-name="egrave" unicode="&#xe8;" horiz-adv-x="541" 
d="M166 809l38 51l170 -92l-10 -20zM75 700h415v-58h-355v-263h305v-58h-305v-263h355v-58h-415v700z" />
    <glyph glyph-name="eacute" unicode="&#xe9;" horiz-adv-x="541" 
d="M189 768l170 92l38 -51l-198 -61zM75 700h415v-58h-355v-263h305v-58h-305v-263h355v-58h-415v700z" />
    <glyph glyph-name="ecircumflex" unicode="&#xea;" horiz-adv-x="541" 
d="M239 805l-69 -55h-36l80 98h52l80 -98h-38zM75 700h415v-58h-355v-263h305v-58h-305v-263h355v-58h-415v700z" />
    <glyph glyph-name="edieresis" unicode="&#xeb;" horiz-adv-x="541" 
d="M183 751.5q-11 11.5 -11 28.5q0 16 11.5 28t28.5 12q16 0 28 -12t12 -28q0 -17 -11.5 -28.5t-28.5 -11.5q-18 0 -29 11.5zM327.5 751.5q-11.5 11.5 -11.5 28.5q0 16 11.5 28t28.5 12q18 0 29 -11.5t11 -28.5t-11.5 -28.5t-28.5 -11.5t-28.5 11.5zM75 700h415v-58h-355
v-263h305v-58h-305v-263h355v-58h-415v700z" />
    <glyph glyph-name="igrave" unicode="&#xec;" horiz-adv-x="285" 
d="M39 809l38 51l170 -92l-10 -20zM113 700h60v-700h-60v700z" />
    <glyph glyph-name="iacute" unicode="&#xed;" horiz-adv-x="285" 
d="M39 768l170 92l38 -51l-198 -61zM113 700h60v-700h-60v700z" />
    <glyph glyph-name="icircumflex" unicode="&#xee;" horiz-adv-x="220" 
d="M79 805l-69 -55h-36l80 98h52l80 -98h-38zM80 700h60v-700h-60v700z" />
    <glyph glyph-name="idieresis" unicode="&#xef;" horiz-adv-x="268" 
d="M33 751.5q-11 11.5 -11 28.5q0 16 11.5 28t28.5 12q16 0 28 -12t12 -28q0 -17 -11.5 -28.5t-28.5 -11.5q-18 0 -29 11.5zM177.5 751.5q-11.5 11.5 -11.5 28.5q0 16 11.5 28t28.5 12q18 0 29 -11.5t11 -28.5t-11.5 -28.5t-28.5 -11.5t-28.5 11.5zM104 700h60v-700h-60v700
z" />
    <glyph glyph-name="eth" unicode="&#xf0;" horiz-adv-x="671" 
d="M127 325h-108v58h108v317h181q93 0 165 -38.5t112.5 -117t40.5 -194.5t-40.5 -194.5t-112.5 -117t-165 -38.5h-181v325zM495 132q71 74 71 218t-71 218t-187 74h-121v-259h195v-58h-195v-267h121q116 0 187 74z" />
    <glyph glyph-name="ntilde" unicode="&#xf1;" horiz-adv-x="641" 
d="M411.5 760.5q-15.5 -16.5 -40.5 -16.5q-10 0 -25 5.5t-29 11.5q-34 16 -48 16t-22.5 -8.5t-17.5 -31.5l-27 7q11 42 26.5 58.5t40.5 16.5q10 0 25 -5.5t29 -11.5q34 -16 48 -16t22.5 8.5t17.5 31.5l27 -7q-11 -42 -26.5 -58.5zM135 568v-568h-60v700h40l391 -568v568h60
v-700h-40z" />
    <glyph glyph-name="ograve" unicode="&#xf2;" horiz-adv-x="670" 
d="M231 809l38 51l170 -92l-10 -20zM485.5 683q65.5 -41 102.5 -125t37 -208t-37 -208t-102.5 -125t-150.5 -41t-150.5 41t-102.5 125t-37 208t37 208t102.5 125t150.5 41t150.5 -41zM502 114q63 80 63 236t-63 236t-167 80t-167 -80t-63 -236t63 -236t167 -80t167 80z" />
    <glyph glyph-name="oacute" unicode="&#xf3;" horiz-adv-x="670" 
d="M231 768l170 92l38 -51l-198 -61zM485.5 683q65.5 -41 102.5 -125t37 -208t-37 -208t-102.5 -125t-150.5 -41t-150.5 41t-102.5 125t-37 208t37 208t102.5 125t150.5 41t150.5 -41zM502 114q63 80 63 236t-63 236t-167 80t-167 -80t-63 -236t63 -236t167 -80t167 80z" />
    <glyph glyph-name="ocircumflex" unicode="&#xf4;" horiz-adv-x="670" 
d="M304 805l-69 -55h-36l80 98h52l80 -98h-38zM485.5 683q65.5 -41 102.5 -125t37 -208t-37 -208t-102.5 -125t-150.5 -41t-150.5 41t-102.5 125t-37 208t37 208t102.5 125t150.5 41t150.5 -41zM502 114q63 80 63 236t-63 236t-167 80t-167 -80t-63 -236t63 -236t167 -80
t167 80z" />
    <glyph glyph-name="otilde" unicode="&#xf5;" horiz-adv-x="670" 
d="M426.5 760.5q-15.5 -16.5 -40.5 -16.5q-10 0 -25 5.5t-29 11.5q-34 16 -48 16t-22.5 -8.5t-17.5 -31.5l-27 7q11 42 26.5 58.5t40.5 16.5q10 0 25 -5.5t29 -11.5q34 -16 48 -16t22.5 8.5t17.5 31.5l27 -7q-11 -42 -26.5 -58.5zM485.5 683q65.5 -41 102.5 -125t37 -208
t-37 -208t-102.5 -125t-150.5 -41t-150.5 41t-102.5 125t-37 208t37 208t102.5 125t150.5 41t150.5 -41zM502 114q63 80 63 236t-63 236t-167 80t-167 -80t-63 -236t63 -236t167 -80t167 80z" />
    <glyph glyph-name="odieresis" unicode="&#xf6;" horiz-adv-x="670" 
d="M234 751.5q-11 11.5 -11 28.5q0 16 11.5 28t28.5 12q16 0 28 -12t12 -28q0 -17 -11.5 -28.5t-28.5 -11.5q-18 0 -29 11.5zM378.5 751.5q-11.5 11.5 -11.5 28.5q0 16 11.5 28t28.5 12q18 0 29 -11.5t11 -28.5t-11.5 -28.5t-28.5 -11.5t-28.5 11.5zM485.5 683
q65.5 -41 102.5 -125t37 -208t-37 -208t-102.5 -125t-150.5 -41t-150.5 41t-102.5 125t-37 208t37 208t102.5 125t150.5 41t150.5 -41zM502 114q63 80 63 236t-63 236t-167 80t-167 -80t-63 -236t63 -236t167 -80t167 80z" />
    <glyph glyph-name="oslash" unicode="&#xf8;" horiz-adv-x="660" 
d="M91 113q-51 94 -51 237q0 124 37 208t102.5 125t150.5 41q61 0 112.5 -21.5t89.5 -64.5l64 76l46 -39l-74 -88q52 -93 52 -237q0 -124 -37 -208t-102.5 -125t-150.5 -41q-126 0 -203 86l-63 -76l-46 39zM497 114q63 80 63 236t-63 236t-167 80t-167 -80t-63 -236t63 -236
t167 -80t167 80z" />
    <glyph glyph-name="ugrave" unicode="&#xf9;" horiz-adv-x="642" 
d="M217 809l38 51l170 -92l-10 -20zM573 700v-467q0 -82 -35 -140.5t-92.5 -87.5t-124.5 -29t-124.5 29t-92.5 87.5t-35 140.5v467h60v-467q0 -64 26.5 -109t70.5 -67.5t95 -22.5t95 22.5t70.5 67.5t26.5 109v467h60z" />
    <glyph glyph-name="uacute" unicode="&#xfa;" horiz-adv-x="642" 
d="M217 768l170 92l38 -51l-198 -61zM573 700v-467q0 -82 -35 -140.5t-92.5 -87.5t-124.5 -29t-124.5 29t-92.5 87.5t-35 140.5v467h60v-467q0 -64 26.5 -109t70.5 -67.5t95 -22.5t95 22.5t70.5 67.5t26.5 109v467h60z" />
    <glyph glyph-name="ucircumflex" unicode="&#xfb;" horiz-adv-x="642" 
d="M290 805l-69 -55h-36l80 98h52l80 -98h-38zM573 700v-467q0 -82 -35 -140.5t-92.5 -87.5t-124.5 -29t-124.5 29t-92.5 87.5t-35 140.5v467h60v-467q0 -64 26.5 -109t70.5 -67.5t95 -22.5t95 22.5t70.5 67.5t26.5 109v467h60z" />
    <glyph glyph-name="udieresis" unicode="&#xfc;" horiz-adv-x="642" 
d="M220 751.5q-11 11.5 -11 28.5q0 16 11.5 28t28.5 12q16 0 28 -12t12 -28q0 -17 -11.5 -28.5t-28.5 -11.5q-18 0 -29 11.5zM364.5 751.5q-11.5 11.5 -11.5 28.5q0 16 11.5 28t28.5 12q18 0 29 -11.5t11 -28.5t-11.5 -28.5t-28.5 -11.5t-28.5 11.5zM573 700v-467
q0 -82 -35 -140.5t-92.5 -87.5t-124.5 -29t-124.5 29t-92.5 87.5t-35 140.5v467h60v-467q0 -64 26.5 -109t70.5 -67.5t95 -22.5t95 22.5t70.5 67.5t26.5 109v467h60z" />
    <glyph glyph-name="yacute" unicode="&#xfd;" horiz-adv-x="562" 
d="M177 768l170 92l38 -51l-198 -61zM251 244l-251 456h66l215 -390l215 390h66l-251 -456v-244h-60v244z" />
    <glyph glyph-name="thorn" unicode="&#xfe;" horiz-adv-x="552" 
d="M135 0h-60v700h60v-120h165q64 0 116 -25t83 -77t31 -129q0 -114 -64 -171.5t-166 -57.5h-165v-120zM422.5 221q47.5 43 47.5 128t-48 129t-122 44h-165v-344h165q75 0 122.5 43z" />
    <glyph glyph-name="ydieresis" unicode="&#xff;" horiz-adv-x="562" 
d="M180 751.5q-11 11.5 -11 28.5q0 16 11.5 28t28.5 12q16 0 28 -12t12 -28q0 -17 -11.5 -28.5t-28.5 -11.5q-18 0 -29 11.5zM324.5 751.5q-11.5 11.5 -11.5 28.5q0 16 11.5 28t28.5 12q18 0 29 -11.5t11 -28.5t-11.5 -28.5t-28.5 -11.5t-28.5 11.5zM251 244l-251 456h66
l215 -390l215 390h66l-251 -456v-244h-60v244z" />
    <glyph glyph-name="Amacron" unicode="&#x100;" horiz-adv-x="775" 
d="M305 805h326v-50h-326v50zM646 161h-356l-65 -161h-64l263 642h-119q-123 0 -174.5 -36t-51.5 -100q0 -53 38 -88t110 -35v-58q-102 0 -155 51t-53 130q0 194 286 194h183l287 -700h-64zM468 617l-41 -118l-114 -280h309l-113 280z" />
    <glyph glyph-name="amacron" unicode="&#x101;" horiz-adv-x="614" 
d="M144 805h326v-50h-326v50zM485 161h-356l-65 -161h-64l287 700h40l287 -700h-64zM307 617l-41 -118l-114 -280h309l-113 280z" />
    <glyph glyph-name="Abreve" unicode="&#x102;" horiz-adv-x="775" 
d="M440 752q-60 0 -104 49l24 25q31 -37 82 -37q46 0 78 37l24 -25q-44 -49 -104 -49zM646 161h-356l-65 -161h-64l263 642h-119q-123 0 -174.5 -36t-51.5 -100q0 -53 38 -88t110 -35v-58q-102 0 -155 51t-53 130q0 194 286 194h183l287 -700h-64zM468 617l-41 -118
l-114 -280h309l-113 280z" />
    <glyph glyph-name="abreve" unicode="&#x103;" horiz-adv-x="614" 
d="M320 752q-60 0 -104 49l24 25q31 -37 82 -37q46 0 78 37l24 -25q-44 -49 -104 -49zM485 161h-356l-65 -161h-64l287 700h40l287 -700h-64zM307 617l-41 -118l-114 -280h309l-113 280z" />
    <glyph glyph-name="Aogonek" unicode="&#x104;" horiz-adv-x="775" 
d="M732 -159q-35 0 -54 18t-19 49t17.5 54t42.5 38h-8l-65 161h-356l-65 -161h-64l263 642h-119q-123 0 -174.5 -36t-51.5 -100q0 -53 38 -88t110 -35v-58q-102 0 -155 51t-53 130q0 194 286 194h183l287 -700q-25 -16 -43.5 -33t-18.5 -44q0 -18 10.5 -25.5t26.5 -7.5
q9 0 21 2l7 -43q-26 -8 -46 -8zM468 617l-41 -118l-114 -280h309l-113 280z" />
    <glyph glyph-name="aogonek" unicode="&#x105;" horiz-adv-x="614" 
d="M571 -159q-35 0 -54 18t-19 49t17.5 54t42.5 38h-8l-65 161h-356l-65 -161h-64l287 700h40l287 -700q-25 -16 -43.5 -33t-18.5 -44q0 -18 10.5 -25.5t26.5 -7.5q9 0 21 2l7 -43q-26 -8 -46 -8zM307 617l-41 -118l-114 -280h309l-113 280z" />
    <glyph glyph-name="Cacute" unicode="&#x106;" horiz-adv-x="600" 
d="M201 768l170 92l38 -51l-198 -61zM347 -24q-138 0 -220 95t-82 284q0 122 35 204.5t96 123.5t139 41q70 0 126 -32.5t88 -98.5t32 -163h-60q0 115 -52 175.5t-134 60.5q-61 0 -108.5 -34.5t-74.5 -104t-27 -171.5q0 -161 66 -241.5t177 -80.5q95 0 172 55l36 -48
q-92 -65 -209 -65z" />
    <glyph glyph-name="cacute" unicode="&#x107;" horiz-adv-x="600" 
d="M223 768l170 92l38 -51l-198 -61zM347 -24q-138 0 -220 95t-82 284q0 122 35 204.5t96 123.5t139 41q70 0 126 -32.5t88 -98.5t32 -163h-60q0 115 -52 175.5t-134 60.5q-61 0 -108.5 -34.5t-74.5 -104t-27 -171.5q0 -161 66 -241.5t177 -80.5q95 0 172 55l36 -48
q-92 -65 -209 -65z" />
    <glyph glyph-name="Ccaron" unicode="&#x10c;" horiz-adv-x="600" 
d="M295 750l-80 98h36l69 -55l69 55h38l-80 -98h-52zM347 -24q-138 0 -220 95t-82 284q0 122 35 204.5t96 123.5t139 41q70 0 126 -32.5t88 -98.5t32 -163h-60q0 115 -52 175.5t-134 60.5q-61 0 -108.5 -34.5t-74.5 -104t-27 -171.5q0 -161 66 -241.5t177 -80.5q95 0 172 55
l36 -48q-92 -65 -209 -65z" />
    <glyph glyph-name="ccaron" unicode="&#x10d;" horiz-adv-x="600" 
d="M285 750l-80 98h36l69 -55l69 55h38l-80 -98h-52zM347 -24q-138 0 -220 95t-82 284q0 122 35 204.5t96 123.5t139 41q70 0 126 -32.5t88 -98.5t32 -163h-60q0 115 -52 175.5t-134 60.5q-61 0 -108.5 -34.5t-74.5 -104t-27 -171.5q0 -161 66 -241.5t177 -80.5q95 0 172 55
l36 -48q-92 -65 -209 -65z" />
    <glyph glyph-name="Dcaron" unicode="&#x10e;" horiz-adv-x="849" 
d="M422 750l-80 98h36l69 -55l69 55h38l-80 -98h-52zM305 642q-123 0 -174.5 -36t-51.5 -100q0 -53 38 -88t110 -35v-58q-102 0 -155 51t-53 130q0 194 286 194h181q93 0 165 -38.5t112.5 -117t40.5 -194.5t-40.5 -194.5t-112.5 -117t-165 -38.5h-181v642zM673 132
q71 74 71 218t-71 218t-187 74h-121v-584h121q116 0 187 74z" />
    <glyph glyph-name="dcaron" unicode="&#x10f;" horiz-adv-x="619" 
d="M253 750l-80 98h36l69 -55l69 55h38l-80 -98h-52zM75 700h181q93 0 165 -38.5t112.5 -117t40.5 -194.5t-40.5 -194.5t-112.5 -117t-165 -38.5h-181v700zM443 132q71 74 71 218t-71 218t-187 74h-121v-584h121q116 0 187 74z" />
    <glyph glyph-name="Dcroat" unicode="&#x110;" horiz-adv-x="849" 
d="M305 325h-78q-102 0 -155 51t-53 130q0 194 286 194h181q93 0 165 -38.5t112.5 -117t40.5 -194.5t-40.5 -194.5t-112.5 -117t-165 -38.5h-181v325zM130.5 606q-51.5 -36 -51.5 -100q0 -53 38 -88t110 -35h78v259q-123 0 -174.5 -36zM673 132q71 74 71 218t-71 218
t-187 74h-121v-259h195v-58h-195v-267h121q116 0 187 74z" />
    <glyph glyph-name="dcroat" unicode="&#x111;" horiz-adv-x="671" 
d="M127 325h-108v58h108v317h181q93 0 165 -38.5t112.5 -117t40.5 -194.5t-40.5 -194.5t-112.5 -117t-165 -38.5h-181v325zM495 132q71 74 71 218t-71 218t-187 74h-121v-259h195v-58h-195v-267h121q116 0 187 74z" />
    <glyph glyph-name="Emacron" unicode="&#x112;" horiz-adv-x="771" 
d="M342 805h326v-50h-326v50zM305 642q-123 0 -174.5 -36t-51.5 -100q0 -53 38 -88t110 -35v-58q-102 0 -155 51t-53 130q0 194 286 194h415v-58h-355v-263h305v-58h-305v-263h355v-58h-415v642z" />
    <glyph glyph-name="emacron" unicode="&#x113;" horiz-adv-x="541" 
d="M107 805h326v-50h-326v50zM75 700h415v-58h-355v-263h305v-58h-305v-263h355v-58h-415v700z" />
    <glyph glyph-name="ebreve" unicode="&#x115;" horiz-adv-x="541" 
d="M274 752q-60 0 -104 49l24 25q31 -37 82 -37q46 0 78 37l24 -25q-44 -49 -104 -49zM75 700h415v-58h-355v-263h305v-58h-305v-263h355v-58h-415v700z" />
    <glyph glyph-name="Edotaccent" unicode="&#x116;" horiz-adv-x="771" 
d="M473 751.5q-11 11.5 -11 28.5q0 16 11.5 28t28.5 12q16 0 28 -12t12 -28q0 -17 -11.5 -28.5t-28.5 -11.5q-18 0 -29 11.5zM305 642q-123 0 -174.5 -36t-51.5 -100q0 -53 38 -88t110 -35v-58q-102 0 -155 51t-53 130q0 194 286 194h415v-58h-355v-263h305v-58h-305v-263
h355v-58h-415v642z" />
    <glyph glyph-name="edotaccent" unicode="&#x117;" horiz-adv-x="541" 
d="M241 751.5q-11 11.5 -11 28.5q0 16 11.5 28t28.5 12q16 0 28 -12t12 -28q0 -17 -11.5 -28.5t-28.5 -11.5q-18 0 -29 11.5zM75 700h415v-58h-355v-263h305v-58h-305v-263h355v-58h-415v700z" />
    <glyph glyph-name="Eogonek" unicode="&#x118;" horiz-adv-x="771" 
d="M677 -159q-35 0 -54 18t-19 49t17.5 54t42.5 38h-359v642q-123 0 -174.5 -36t-51.5 -100q0 -53 38 -88t110 -35v-58q-102 0 -155 51t-53 130q0 194 286 194h415v-58h-355v-263h305v-58h-305v-263h355v-58q-25 -16 -43.5 -33t-18.5 -44q0 -18 10.5 -25.5t26.5 -7.5
q9 0 21 2l7 -43q-26 -8 -46 -8z" />
    <glyph glyph-name="eogonek" unicode="&#x119;" horiz-adv-x="541" 
d="M447 -159q-35 0 -54 18t-19 49t17.5 54t42.5 38h-359v700h415v-58h-355v-263h305v-58h-305v-263h355v-58q-25 -16 -43.5 -33t-18.5 -44q0 -18 10.5 -25.5t26.5 -7.5q9 0 21 2l7 -43q-26 -8 -46 -8z" />
    <glyph glyph-name="Ecaron" unicode="&#x11a;" horiz-adv-x="771" 
d="M455 750l-80 98h36l69 -55l69 55h38l-80 -98h-52zM305 642q-123 0 -174.5 -36t-51.5 -100q0 -53 38 -88t110 -35v-58q-102 0 -155 51t-53 130q0 194 286 194h415v-58h-355v-263h305v-58h-305v-263h355v-58h-415v642z" />
    <glyph glyph-name="ecaron" unicode="&#x11b;" horiz-adv-x="541" 
d="M214 750l-80 98h36l69 -55l69 55h38l-80 -98h-52zM75 700h415v-58h-355v-263h305v-58h-305v-263h355v-58h-415v700z" />
    <glyph glyph-name="Gbreve" unicode="&#x11e;" horiz-adv-x="640" 
d="M342 752q-60 0 -104 49l24 25q31 -37 82 -37q46 0 78 37l24 -25q-44 -49 -104 -49zM529 29q-84 -53 -184 -53q-89 0 -156.5 41.5t-105.5 126t-38 210.5q0 183 80 276.5t217 93.5q60 0 115.5 -17.5t100.5 -47.5l-33 -51q-33 27 -82.5 41.5t-102.5 14.5
q-110 0 -167.5 -72.5t-57.5 -240.5q0 -172 59 -243.5t169 -71.5q97 0 158 46v239h-168v59h238v-381h-27z" />
    <glyph glyph-name="gbreve" unicode="&#x11f;" horiz-adv-x="640" 
d="M339 752q-60 0 -104 49l24 25q31 -37 82 -37q46 0 78 37l24 -25q-44 -49 -104 -49zM529 29q-84 -53 -184 -53q-89 0 -156.5 41.5t-105.5 126t-38 210.5q0 183 80 276.5t217 93.5q60 0 115.5 -17.5t100.5 -47.5l-33 -51q-33 27 -82.5 41.5t-102.5 14.5
q-110 0 -167.5 -72.5t-57.5 -240.5q0 -172 59 -243.5t169 -71.5q97 0 158 46v239h-168v59h238v-381h-27z" />
    <glyph glyph-name="uni0122" unicode="&#x122;" horiz-adv-x="640" 
d="M529 29q-84 -53 -184 -53q-89 0 -156.5 41.5t-105.5 126t-38 210.5q0 183 80 276.5t217 93.5q60 0 115.5 -17.5t100.5 -47.5l-33 -51q-33 27 -82.5 41.5t-102.5 14.5q-110 0 -167.5 -72.5t-57.5 -240.5q0 -172 59 -243.5t169 -71.5q97 0 158 46v239h-168v59h238v-381h-27
zM332 -143q-19 0 -32 13.5t-13 32.5t13.5 33t32.5 14t32.5 -14t13.5 -33q0 -64 -54 -118l-28 24q26 29 35 48z" />
    <glyph glyph-name="uni0123" unicode="&#x123;" horiz-adv-x="640" 
d="M529 29q-84 -53 -184 -53q-89 0 -156.5 41.5t-105.5 126t-38 210.5q0 183 80 276.5t217 93.5q60 0 115.5 -17.5t100.5 -47.5l-33 -51q-33 27 -82.5 41.5t-102.5 14.5q-110 0 -167.5 -72.5t-57.5 -240.5q0 -172 59 -243.5t169 -71.5q97 0 158 46v239h-168v59h238v-381h-27
zM332 -143q-19 0 -32 13.5t-13 32.5t13.5 33t32.5 14t32.5 -14t13.5 -33q0 -64 -54 -118l-28 24q26 29 35 48z" />
    <glyph glyph-name="Imacron" unicode="&#x12a;" horiz-adv-x="483" 
d="M171 805h326v-50h-326v50zM305 642q-123 0 -174.5 -36t-51.5 -100q0 -53 38 -88t110 -35v-58q-102 0 -155 51t-53 130q0 194 286 194h60v-700h-60v642z" />
    <glyph glyph-name="imacron" unicode="&#x12b;" horiz-adv-x="300" 
d="M-13 805h326v-50h-326v50zM120 700h60v-700h-60v700z" />
    <glyph glyph-name="Iogonek" unicode="&#x12e;" horiz-adv-x="440" 
d="M322 -159q-35 0 -54 18t-19 49t17.5 54t42.5 38h-4v642q-123 0 -174.5 -36t-51.5 -100q0 -53 38 -88t110 -35v-58q-102 0 -155 51t-53 130q0 194 286 194h60v-700q-25 -16 -43.5 -33t-18.5 -44q0 -18 10.5 -25.5t26.5 -7.5q9 0 21 2l7 -43q-26 -8 -46 -8z" />
    <glyph glyph-name="iogonek" unicode="&#x12f;" horiz-adv-x="266" 
d="M148 -159q-35 0 -54 18t-19 49t17.5 54t42.5 38h-4v700h60v-700q-25 -16 -43.5 -33t-18.5 -44q0 -18 10.5 -25.5t26.5 -7.5q9 0 21 2l7 -43q-26 -8 -46 -8z" />
    <glyph glyph-name="Idotaccent" unicode="&#x130;" horiz-adv-x="450" 
d="M306 751.5q-11 11.5 -11 28.5q0 16 11.5 28t28.5 12q16 0 28 -12t12 -28q0 -17 -11.5 -28.5t-28.5 -11.5q-18 0 -29 11.5zM305 642q-123 0 -174.5 -36t-51.5 -100q0 -53 38 -88t110 -35v-58q-102 0 -155 51t-53 130q0 194 286 194h60v-700h-60v642z" />
    <glyph glyph-name="dotlessi" unicode="&#x131;" horiz-adv-x="210" 
d="M75 700h60v-700h-60v700z" />
    <glyph glyph-name="uni0136" unicode="&#x136;" horiz-adv-x="791" 
d="M365 333v-333h-60v642q-123 0 -174.5 -36t-51.5 -100q0 -53 38 -88t110 -35v-58q-102 0 -155 51t-53 130q0 194 286 194h60v-334l327 334h81l-343 -350l343 -350h-81zM513 -143q-19 0 -32 13.5t-13 32.5t13.5 33t32.5 14t32.5 -14t13.5 -33q0 -64 -54 -118l-28 24
q26 29 35 48z" />
    <glyph glyph-name="uni0137" unicode="&#x137;" horiz-adv-x="561" 
d="M135 333v-333h-60v700h60v-334l327 334h81l-343 -350l343 -350h-81zM279 -143q-19 0 -32 13.5t-13 32.5t13.5 33t32.5 14t32.5 -14t13.5 -33q0 -64 -54 -118l-28 24q26 29 35 48z" />
    <glyph glyph-name="Lacute" unicode="&#x139;" horiz-adv-x="687" 
d="M239 768l170 92l38 -51l-198 -61zM305 642q-123 0 -174.5 -36t-51.5 -100q0 -53 38 -88t110 -35v-58q-102 0 -155 51t-53 130q0 194 286 194h60v-642h305v-58h-365v642z" />
    <glyph glyph-name="lacute" unicode="&#x13a;" horiz-adv-x="457" 
d="M124 768l170 92l38 -51l-198 -61zM75 0v700h60v-642h305v-58h-365z" />
    <glyph glyph-name="uni013B" unicode="&#x13b;" horiz-adv-x="687" 
d="M305 642q-123 0 -174.5 -36t-51.5 -100q0 -53 38 -88t110 -35v-58q-102 0 -155 51t-53 130q0 194 286 194h60v-642h305v-58h-365v642zM494 -143q-19 0 -32 13.5t-13 32.5t13.5 33t32.5 14t32.5 -14t13.5 -33q0 -64 -54 -118l-28 24q26 29 35 48z" />
    <glyph glyph-name="uni013C" unicode="&#x13c;" horiz-adv-x="457" 
d="M75 0v700h60v-642h305v-58h-365zM259 -143q-19 0 -32 13.5t-13 32.5t13.5 33t32.5 14t32.5 -14t13.5 -33q0 -64 -54 -118l-28 24q26 29 35 48z" />
    <glyph glyph-name="Lcaron" unicode="&#x13d;" horiz-adv-x="687" 
d="M280 750l-80 98h36l69 -55l69 55h38l-80 -98h-52zM305 642q-123 0 -174.5 -36t-51.5 -100q0 -53 38 -88t110 -35v-58q-102 0 -155 51t-53 130q0 194 286 194h60v-642h305v-58h-365v642z" />
    <glyph glyph-name="lcaron" unicode="&#x13e;" horiz-adv-x="463" 
d="M56 750l-80 98h36l69 -55l69 55h38l-80 -98h-52zM81 0v700h60v-642h305v-58h-365z" />
    <glyph glyph-name="Lslash" unicode="&#x141;" horiz-adv-x="687" 
d="M305 288l-130 -91l-33 47l163 114v284q-123 0 -174.5 -36t-51.5 -100q0 -53 38 -88t110 -35v-58q-102 0 -155 51t-53 130q0 194 286 194h60v-300l147 103l33 -47l-180 -126v-272h305v-58h-365v288z" />
    <glyph glyph-name="lslash" unicode="&#x142;" horiz-adv-x="545" 
d="M163 288l-130 -91l-33 47l163 114v342h60v-300l147 103l33 -47l-180 -126v-272h305v-58h-365v288z" />
    <glyph glyph-name="Nacute" unicode="&#x143;" horiz-adv-x="871" 
d="M468 768l170 92l38 -51l-198 -61zM365 568v-568h-60v642q-123 0 -174.5 -36t-51.5 -100q0 -53 38 -88t110 -35v-58q-102 0 -155 51t-53 130q0 194 286 194h40l391 -568v568h60v-700h-40z" />
    <glyph glyph-name="nacute" unicode="&#x144;" horiz-adv-x="641" 
d="M216 768l170 92l38 -51l-198 -61zM135 568v-568h-60v700h40l391 -568v568h60v-700h-40z" />
    <glyph glyph-name="uni0145" unicode="&#x145;" horiz-adv-x="871" 
d="M365 568v-568h-60v642q-123 0 -174.5 -36t-51.5 -100q0 -53 38 -88t110 -35v-58q-102 0 -155 51t-53 130q0 194 286 194h40l391 -568v568h60v-700h-40zM541 -143q-19 0 -32 13.5t-13 32.5t13.5 33t32.5 14t32.5 -14t13.5 -33q0 -64 -54 -118l-28 24q26 29 35 48z" />
    <glyph glyph-name="uni0146" unicode="&#x146;" horiz-adv-x="641" 
d="M135 568v-568h-60v700h40l391 -568v568h60v-700h-40zM319 -143q-19 0 -32 13.5t-13 32.5t13.5 33t32.5 14t32.5 -14t13.5 -33q0 -64 -54 -118l-28 24q26 29 35 48z" />
    <glyph glyph-name="Ncaron" unicode="&#x147;" horiz-adv-x="871" 
d="M503 750l-80 98h36l69 -55l69 55h38l-80 -98h-52zM365 568v-568h-60v642q-123 0 -174.5 -36t-51.5 -100q0 -53 38 -88t110 -35v-58q-102 0 -155 51t-53 130q0 194 286 194h40l391 -568v568h60v-700h-40z" />
    <glyph glyph-name="ncaron" unicode="&#x148;" horiz-adv-x="641" 
d="M264 750l-80 98h36l69 -55l69 55h38l-80 -98h-52zM135 568v-568h-60v700h40l391 -568v568h60v-700h-40z" />
    <glyph glyph-name="Omacron" unicode="&#x14c;" horiz-adv-x="670" 
d="M172 805h326v-50h-326v50zM485.5 683q65.5 -41 102.5 -125t37 -208t-37 -208t-102.5 -125t-150.5 -41t-150.5 41t-102.5 125t-37 208t37 208t102.5 125t150.5 41t150.5 -41zM502 114q63 80 63 236t-63 236t-167 80t-167 -80t-63 -236t63 -236t167 -80t167 80z" />
    <glyph glyph-name="omacron" unicode="&#x14d;" horiz-adv-x="670" 
d="M172 805h326v-50h-326v50zM485.5 683q65.5 -41 102.5 -125t37 -208t-37 -208t-102.5 -125t-150.5 -41t-150.5 41t-102.5 125t-37 208t37 208t102.5 125t150.5 41t150.5 -41zM502 114q63 80 63 236t-63 236t-167 80t-167 -80t-63 -236t63 -236t167 -80t167 80z" />
    <glyph glyph-name="Ohungarumlaut" unicode="&#x150;" horiz-adv-x="670" 
d="M135 768l170 92l38 -51l-198 -61zM326 768l170 92l38 -51l-198 -61zM485.5 683q65.5 -41 102.5 -125t37 -208t-37 -208t-102.5 -125t-150.5 -41t-150.5 41t-102.5 125t-37 208t37 208t102.5 125t150.5 41t150.5 -41zM502 114q63 80 63 236t-63 236t-167 80t-167 -80
t-63 -236t63 -236t167 -80t167 80z" />
    <glyph glyph-name="ohungarumlaut" unicode="&#x151;" horiz-adv-x="670" 
d="M135 768l170 92l38 -51l-198 -61zM326 768l170 92l38 -51l-198 -61zM485.5 683q65.5 -41 102.5 -125t37 -208t-37 -208t-102.5 -125t-150.5 -41t-150.5 41t-102.5 125t-37 208t37 208t102.5 125t150.5 41t150.5 -41zM502 114q63 80 63 236t-63 236t-167 80t-167 -80
t-63 -236t63 -236t167 -80t167 80z" />
    <glyph glyph-name="OE" unicode="&#x152;" horiz-adv-x="890" 
d="M475 90q-59 -114 -179 -114q-71 0 -127.5 41t-90 125t-33.5 208t33.5 208t90 125t127.5 41q120 0 179 -114v90h365v-58h-305v-263h255v-58h-255v-263h305v-58h-365v90zM427 113q48 79 48 236t-48 237t-131 80q-54 0 -97.5 -34.5t-68.5 -105.5t-25 -175t25.5 -175.5
t68 -106.5t94.5 -35q86 0 134 79z" />
    <glyph glyph-name="oe" unicode="&#x153;" horiz-adv-x="890" 
d="M475 90q-59 -114 -179 -114q-71 0 -127.5 41t-90 125t-33.5 208t33.5 208t90 125t127.5 41q120 0 179 -114v90h365v-58h-305v-263h255v-58h-255v-263h305v-58h-365v90zM427 113q48 79 48 236t-48 237t-131 80q-54 0 -97.5 -34.5t-68.5 -105.5t-25 -175t25.5 -175.5
t68 -106.5t94.5 -35q86 0 134 79z" />
    <glyph glyph-name="Racute" unicode="&#x154;" horiz-adv-x="793" 
d="M393 768l170 92l38 -51l-198 -61zM541 240h-176v-240h-60v642q-123 0 -174.5 -36t-51.5 -100q0 -53 38 -88t110 -35v-58q-102 0 -155 51t-53 130q0 194 286 194h225q64 0 116 -25t83 -77t31 -129q0 -91 -42 -146.5t-113 -73.5l161 -249h-68zM652.5 341q47.5 43 47.5 128
t-48 129t-122 44h-165v-344h165q75 0 122.5 43z" />
    <glyph glyph-name="racute" unicode="&#x155;" horiz-adv-x="564" 
d="M178 768l170 92l38 -51l-198 -61zM312 240h-176v-240h-60v700h225q64 0 116 -25t83 -77t31 -129q0 -91 -42 -146.5t-113 -73.5l161 -249h-68zM423.5 341q47.5 43 47.5 128t-48 129t-122 44h-165v-344h165q75 0 122.5 43z" />
    <glyph glyph-name="uni0156" unicode="&#x156;" horiz-adv-x="793" 
d="M541 240h-176v-240h-60v642q-123 0 -174.5 -36t-51.5 -100q0 -53 38 -88t110 -35v-58q-102 0 -155 51t-53 130q0 194 286 194h225q64 0 116 -25t83 -77t31 -129q0 -91 -42 -146.5t-113 -73.5l161 -249h-68zM652.5 341q47.5 43 47.5 128t-48 129t-122 44h-165v-344h165
q75 0 122.5 43zM512 -143q-19 0 -32 13.5t-13 32.5t13.5 33t32.5 14t32.5 -14t13.5 -33q0 -64 -54 -118l-28 24q26 29 35 48z" />
    <glyph glyph-name="uni0157" unicode="&#x157;" horiz-adv-x="564" 
d="M312 240h-176v-240h-60v700h225q64 0 116 -25t83 -77t31 -129q0 -91 -42 -146.5t-113 -73.5l161 -249h-68zM423.5 341q47.5 43 47.5 128t-48 129t-122 44h-165v-344h165q75 0 122.5 43zM281 -143q-19 0 -32 13.5t-13 32.5t13.5 33t32.5 14t32.5 -14t13.5 -33
q0 -64 -54 -118l-28 24q26 29 35 48z" />
    <glyph glyph-name="Rcaron" unicode="&#x158;" horiz-adv-x="793" 
d="M434 750l-80 98h36l69 -55l69 55h38l-80 -98h-52zM541 240h-176v-240h-60v642q-123 0 -174.5 -36t-51.5 -100q0 -53 38 -88t110 -35v-58q-102 0 -155 51t-53 130q0 194 286 194h225q64 0 116 -25t83 -77t31 -129q0 -91 -42 -146.5t-113 -73.5l161 -249h-68zM652.5 341
q47.5 43 47.5 128t-48 129t-122 44h-165v-344h165q75 0 122.5 43z" />
    <glyph glyph-name="rcaron" unicode="&#x159;" horiz-adv-x="564" 
d="M226 750l-80 98h36l69 -55l69 55h38l-80 -98h-52zM312 240h-176v-240h-60v700h225q64 0 116 -25t83 -77t31 -129q0 -91 -42 -146.5t-113 -73.5l161 -249h-68zM423.5 341q47.5 43 47.5 128t-48 129t-122 44h-165v-344h165q75 0 122.5 43z" />
    <glyph glyph-name="Sacute" unicode="&#x15a;" horiz-adv-x="563" 
d="M207 768l170 92l38 -51l-198 -61zM156 54.5q57 -18.5 114 -18.5q82 0 138 39t56 110q0 40 -20.5 64.5t-59.5 39.5t-110 31q-78 17 -123 34.5t-74 54.5t-29 102q0 70 33 118t88 71.5t120 23.5q57 0 116 -17t101 -48l-32 -52q-36 27 -86 42t-98 15q-76 0 -129 -39t-53 -110
q0 -45 22 -71t56 -39t88 -24q85 -17 131.5 -32t82.5 -53.5t36 -108.5q0 -69 -35 -116.5t-93 -71t-126 -23.5q-65 0 -130 20.5t-111 54.5l32 53q38 -31 95 -49.5z" />
    <glyph glyph-name="sacute" unicode="&#x15b;" horiz-adv-x="563" 
d="M207 768l170 92l38 -51l-198 -61zM156 54.5q57 -18.5 114 -18.5q83 0 138.5 39t55.5 112q0 41 -20 65t-58 37.5t-112 30.5q-79 17 -123.5 34t-73.5 54t-29 102q0 70 33 118.5t88 72t120 23.5q55 0 113 -17t99 -48l-32 -52q-35 27 -83.5 42t-95.5 15q-77 0 -129.5 -39
t-52.5 -111q0 -44 21 -70t55 -39t90 -24q83 -16 130.5 -31.5t83.5 -54t36 -108.5q0 -69 -35 -116.5t-93 -71t-126 -23.5q-65 0 -130 20.5t-111 54.5l32 53q38 -31 95 -49.5z" />
    <glyph glyph-name="Scedilla" unicode="&#x15e;" horiz-adv-x="563" 
d="M244.5 -142q9.5 -6 22.5 -6t21 6.5t8 17.5t-7.5 16.5t-18.5 10t-16 6.5l-11 5l20 62q-64 1 -127 21.5t-107 53.5l32 53q38 -31 95 -49.5t114 -18.5q82 0 138 39t56 110q0 40 -20.5 64.5t-59.5 39.5t-110 31q-78 17 -123 34.5t-74 54.5t-29 102q0 70 33 118t88 71.5
t120 23.5q57 0 116 -17t101 -48l-32 -52q-36 27 -86 42t-98 15q-76 0 -129 -39t-53 -110q0 -45 22 -71t56 -39t88 -24q85 -17 131.5 -32t82.5 -53.5t36 -108.5q0 -95 -65 -149t-162 -61l-8 -29l10 -4q50 -20 50 -69q0 -33 -22 -51t-56 -18q-19 0 -30.5 5.5t-27.5 18.5l19 36
q3 -2 12.5 -8z" />
    <glyph glyph-name="scedilla" unicode="&#x15f;" horiz-adv-x="563" 
d="M244.5 -142q9.5 -6 22.5 -6t21 6.5t8 17.5t-7.5 16.5t-18.5 10t-16 6.5l-11 5l20 62q-64 1 -127 21.5t-107 53.5l32 53q38 -31 95 -49.5t114 -18.5q83 0 138.5 39t55.5 112q0 41 -20 65t-58 37.5t-112 30.5q-79 17 -123.5 34t-73.5 54t-29 102q0 70 33 118.5t88 72
t120 23.5q55 0 113 -17t99 -48l-32 -52q-35 27 -83.5 42t-95.5 15q-77 0 -129.5 -39t-52.5 -111q0 -44 21 -70t55 -39t90 -24q83 -16 130.5 -31.5t83.5 -54t36 -108.5q0 -95 -65 -149t-162 -61l-8 -29l10 -4q50 -20 50 -69q0 -33 -22 -51t-56 -18q-19 0 -30.5 5.5
t-27.5 18.5l19 36q3 -2 12.5 -8z" />
    <glyph glyph-name="Scaron" unicode="&#x160;" horiz-adv-x="563" 
d="M225 750l-80 98h36l69 -55l69 55h38l-80 -98h-52zM156 54.5q57 -18.5 114 -18.5q82 0 138 39t56 110q0 40 -20.5 64.5t-59.5 39.5t-110 31q-78 17 -123 34.5t-74 54.5t-29 102q0 70 33 118t88 71.5t120 23.5q57 0 116 -17t101 -48l-32 -52q-36 27 -86 42t-98 15
q-76 0 -129 -39t-53 -110q0 -45 22 -71t56 -39t88 -24q85 -17 131.5 -32t82.5 -53.5t36 -108.5q0 -69 -35 -116.5t-93 -71t-126 -23.5q-65 0 -130 20.5t-111 54.5l32 53q38 -31 95 -49.5z" />
    <glyph glyph-name="scaron" unicode="&#x161;" horiz-adv-x="563" 
d="M225 750l-80 98h36l69 -55l69 55h38l-80 -98h-52zM156 54.5q57 -18.5 114 -18.5q83 0 138.5 39t55.5 112q0 41 -20 65t-58 37.5t-112 30.5q-79 17 -123.5 34t-73.5 54t-29 102q0 70 33 118.5t88 72t120 23.5q55 0 113 -17t99 -48l-32 -52q-35 27 -83.5 42t-95.5 15
q-77 0 -129.5 -39t-52.5 -111q0 -44 21 -70t55 -39t90 -24q83 -16 130.5 -31.5t83.5 -54t36 -108.5q0 -69 -35 -116.5t-93 -71t-126 -23.5q-65 0 -130 20.5t-111 54.5l32 53q38 -31 95 -49.5z" />
    <glyph glyph-name="uni0162" unicode="&#x162;" horiz-adv-x="707" 
d="M418 642h-113q-123 0 -174.5 -36t-51.5 -100q0 -53 38 -88t110 -35v-58q-102 0 -155 51t-53 130q0 194 286 194h383v-58h-210v-642h-60v642zM446 -143q-19 0 -32 13.5t-13 32.5t13.5 33t32.5 14t32.5 -14t13.5 -33q0 -64 -54 -118l-28 24q26 29 35 48z" />
    <glyph glyph-name="uni0163" unicode="&#x163;" horiz-adv-x="518" 
d="M229 642h-210v58h480v-58h-210v-642h-60v642zM258 -143q-19 0 -32 13.5t-13 32.5t13.5 33t32.5 14t32.5 -14t13.5 -33q0 -64 -54 -118l-28 24q26 29 35 48z" />
    <glyph glyph-name="Tcaron" unicode="&#x164;" horiz-adv-x="707" 
d="M392 750l-80 98h36l69 -55l69 55h38l-80 -98h-52zM418 642h-113q-123 0 -174.5 -36t-51.5 -100q0 -53 38 -88t110 -35v-58q-102 0 -155 51t-53 130q0 194 286 194h383v-58h-210v-642h-60v642z" />
    <glyph glyph-name="tcaron" unicode="&#x165;" horiz-adv-x="518" 
d="M203 750l-80 98h36l69 -55l69 55h38l-80 -98h-52zM229 642h-210v58h480v-58h-210v-642h-60v642z" />
    <glyph glyph-name="Umacron" unicode="&#x16a;" horiz-adv-x="878" 
d="M399 805h326v-50h-326v50zM810 700v-467q0 -82 -35 -140.5t-92.5 -87.5t-124.5 -29t-124.5 29t-92.5 87.5t-35 140.5v409q-123 0 -174.5 -36t-51.5 -100q0 -53 38 -88t110 -35v-58q-102 0 -155 51t-53 130q0 194 286 194h60v-467q0 -64 26.5 -109t70.5 -67.5t95 -22.5
t95 22.5t70.5 67.5t26.5 109v467h60z" />
    <glyph glyph-name="umacron" unicode="&#x16b;" horiz-adv-x="642" 
d="M158 805h326v-50h-326v50zM573 700v-467q0 -82 -35 -140.5t-92.5 -87.5t-124.5 -29t-124.5 29t-92.5 87.5t-35 140.5v467h60v-467q0 -64 26.5 -109t70.5 -67.5t95 -22.5t95 22.5t70.5 67.5t26.5 109v467h60z" />
    <glyph glyph-name="Uring" unicode="&#x16e;" horiz-adv-x="878" 
d="M493.5 708.5q-22.5 22.5 -22.5 56.5t22.5 56.5t56.5 22.5t56.5 -22.5t22.5 -56.5t-22.5 -56.5t-56.5 -22.5t-56.5 22.5zM578.5 793.5q-11.5 11.5 -28.5 11.5q-16 0 -28 -11.5t-12 -28.5t11.5 -28.5t28.5 -11.5t28.5 11.5t11.5 28.5t-11.5 28.5zM810 700v-467
q0 -82 -35 -140.5t-92.5 -87.5t-124.5 -29t-124.5 29t-92.5 87.5t-35 140.5v409q-123 0 -174.5 -36t-51.5 -100q0 -53 38 -88t110 -35v-58q-102 0 -155 51t-53 130q0 194 286 194h60v-467q0 -64 26.5 -109t70.5 -67.5t95 -22.5t95 22.5t70.5 67.5t26.5 109v467h60z" />
    <glyph glyph-name="uring" unicode="&#x16f;" horiz-adv-x="642" 
d="M255.5 708.5q-22.5 22.5 -22.5 56.5t22.5 56.5t56.5 22.5t56.5 -22.5t22.5 -56.5t-22.5 -56.5t-56.5 -22.5t-56.5 22.5zM340.5 793.5q-11.5 11.5 -28.5 11.5q-16 0 -28 -11.5t-12 -28.5t11.5 -28.5t28.5 -11.5t28.5 11.5t11.5 28.5t-11.5 28.5zM573 700v-467
q0 -82 -35 -140.5t-92.5 -87.5t-124.5 -29t-124.5 29t-92.5 87.5t-35 140.5v467h60v-467q0 -64 26.5 -109t70.5 -67.5t95 -22.5t95 22.5t70.5 67.5t26.5 109v467h60z" />
    <glyph glyph-name="Uhungarumlaut" unicode="&#x170;" horiz-adv-x="878" 
d="M374 768l170 92l38 -51l-198 -61zM565 768l170 92l38 -51l-198 -61zM810 700v-467q0 -82 -35 -140.5t-92.5 -87.5t-124.5 -29t-124.5 29t-92.5 87.5t-35 140.5v409q-123 0 -174.5 -36t-51.5 -100q0 -53 38 -88t110 -35v-58q-102 0 -155 51t-53 130q0 194 286 194h60v-467
q0 -64 26.5 -109t70.5 -67.5t95 -22.5t95 22.5t70.5 67.5t26.5 109v467h60z" />
    <glyph glyph-name="uhungarumlaut" unicode="&#x171;" horiz-adv-x="642" 
d="M121 768l170 92l38 -51l-198 -61zM312 768l170 92l38 -51l-198 -61zM573 700v-467q0 -82 -35 -140.5t-92.5 -87.5t-124.5 -29t-124.5 29t-92.5 87.5t-35 140.5v467h60v-467q0 -64 26.5 -109t70.5 -67.5t95 -22.5t95 22.5t70.5 67.5t26.5 109v467h60z" />
    <glyph glyph-name="Uogonek" unicode="&#x172;" horiz-adv-x="878" 
d="M628 -159q-35 0 -54 18t-19 49q0 39 31 70q-20 -2 -29 -2q-67 0 -124.5 29t-92.5 87.5t-35 140.5v409q-123 0 -174.5 -36t-51.5 -100q0 -53 38 -88t110 -35v-58q-102 0 -155 51t-53 130q0 194 286 194h60v-467q0 -64 26.5 -109t70.5 -67.5t95 -22.5t95 22.5t70.5 67.5
t26.5 109v467h60v-467q0 -86 -37.5 -145t-100.5 -88q-25 -16 -43.5 -33t-18.5 -44q0 -18 10.5 -25.5t26.5 -7.5q9 0 21 2l7 -43q-26 -8 -46 -8z" />
    <glyph glyph-name="uogonek" unicode="&#x173;" horiz-adv-x="642" 
d="M391 -159q-35 0 -54 18t-19 49q0 39 31 70q-18 -2 -28 -2q-67 0 -124.5 29t-92.5 87.5t-35 140.5v467h60v-467q0 -64 26.5 -109t70.5 -67.5t95 -22.5t95 22.5t70.5 67.5t26.5 109v467h60v-467q0 -88 -39 -147.5t-104 -87.5q-58 -35 -58 -75q0 -18 10.5 -25.5t26.5 -7.5
q9 0 21 2l7 -43q-26 -8 -46 -8z" />
    <glyph glyph-name="Ydieresis" unicode="&#x178;" horiz-adv-x="788" 
d="M406 751.5q-11 11.5 -11 28.5q0 16 11.5 28t28.5 12q16 0 28 -12t12 -28q0 -17 -11.5 -28.5t-28.5 -11.5q-18 0 -29 11.5zM550.5 751.5q-11.5 11.5 -11.5 28.5q0 16 11.5 28t28.5 12q18 0 29 -11.5t11 -28.5t-11.5 -28.5t-28.5 -11.5t-28.5 11.5zM477 244l-218 396
q-180 -12 -180 -134q0 -53 38 -88t110 -35v-58q-102 0 -155 51t-53 130q0 88 68 141t198 53h7l215 -390l215 390h66l-251 -456v-244h-60v244z" />
    <glyph glyph-name="Zacute" unicode="&#x179;" horiz-adv-x="658" 
d="M154 768l170 92l38 -51l-198 -61zM24 38l354 604h-354v58h434v-38l-354 -604h249q123 0 174.5 36t51.5 100q0 53 -38 88t-110 35v58q102 0 155 -51t53 -130q0 -194 -286 -194h-329v38z" />
    <glyph glyph-name="zacute" unicode="&#x17a;" horiz-adv-x="495" 
d="M143 768l170 92l38 -51l-198 -61zM24 38l354 604h-354v58h434v-38l-354 -604h354v-58h-434v38z" />
    <glyph glyph-name="Zdotaccent" unicode="&#x17b;" horiz-adv-x="658" 
d="M218 751.5q-11 11.5 -11 28.5q0 16 11.5 28t28.5 12q16 0 28 -12t12 -28q0 -17 -11.5 -28.5t-28.5 -11.5q-18 0 -29 11.5zM24 38l354 604h-354v58h434v-38l-354 -604h249q123 0 174.5 36t51.5 100q0 53 -38 88t-110 35v58q102 0 155 -51t53 -130q0 -194 -286 -194h-329
v38z" />
    <glyph glyph-name="zdotaccent" unicode="&#x17c;" horiz-adv-x="495" 
d="M218 751.5q-11 11.5 -11 28.5q0 16 11.5 28t28.5 12q16 0 28 -12t12 -28q0 -17 -11.5 -28.5t-28.5 -11.5q-18 0 -29 11.5zM24 38l354 604h-354v58h434v-38l-354 -604h354v-58h-434v38z" />
    <glyph glyph-name="Zcaron" unicode="&#x17d;" horiz-adv-x="658" 
d="M164 750l-80 98h36l69 -55l69 55h38l-80 -98h-52zM24 38l354 604h-354v58h434v-38l-354 -604h249q123 0 174.5 36t51.5 100q0 53 -38 88t-110 35v58q102 0 155 -51t53 -130q0 -194 -286 -194h-329v38z" />
    <glyph glyph-name="zcaron" unicode="&#x17e;" horiz-adv-x="495" 
d="M191 750l-80 98h36l69 -55l69 55h38l-80 -98h-52zM24 38l354 604h-354v58h434v-38l-354 -604h354v-58h-434v38z" />
    <glyph glyph-name="apostrophe" unicode="&#x2bc;" horiz-adv-x="212" 
d="M106 597q-26 1 -43.5 18.5t-17.5 42.5t18 43.5t43 18.5q26 0 43.5 -18t17.5 -44q0 -45 -21.5 -87t-60.5 -78l-37 32q40 38 58 72z" />
    <glyph glyph-name="circumflex" unicode="&#x2c6;" horiz-adv-x="232" 
d="M115 805l-69 -55h-36l80 98h52l80 -98h-38z" />
    <glyph glyph-name="caron" unicode="&#x2c7;" horiz-adv-x="232" 
d="M90 750l-80 98h36l69 -55l69 55h38l-80 -98h-52z" />
    <glyph glyph-name="breve" unicode="&#x2d8;" horiz-adv-x="311" 
d="M155 752q-60 0 -104 49l24 25q31 -37 82 -37q46 0 78 37l24 -25q-44 -49 -104 -49z" />
    <glyph glyph-name="dotaccent" unicode="&#x2d9;" horiz-adv-x="230" 
d="M86 751.5q-11 11.5 -11 28.5q0 16 11.5 28t28.5 12q16 0 28 -12t12 -28q0 -17 -11.5 -28.5t-28.5 -11.5q-18 0 -29 11.5z" />
    <glyph glyph-name="ring" unicode="&#x2da;" horiz-adv-x="308" 
d="M97.5 708.5q-22.5 22.5 -22.5 56.5t22.5 56.5t56.5 22.5t56.5 -22.5t22.5 -56.5t-22.5 -56.5t-56.5 -22.5t-56.5 22.5zM182.5 793.5q-11.5 11.5 -28.5 11.5q-16 0 -28 -11.5t-12 -28.5t11.5 -28.5t28.5 -11.5t28.5 11.5t11.5 28.5t-11.5 28.5z" />
    <glyph glyph-name="ogonek" unicode="&#x2db;" horiz-adv-x="269" 
d="M148 -159q-35 0 -54 18t-19 49q0 37 22.5 60.5t40 33.5t20.5 12l33 -14q-25 -16 -43.5 -33t-18.5 -44q0 -18 10.5 -25.5t26.5 -7.5q9 0 21 2l7 -43q-26 -8 -46 -8z" />
    <glyph glyph-name="tilde" unicode="&#x2dc;" horiz-adv-x="378" 
d="M278.5 760.5q-15.5 -16.5 -40.5 -16.5q-10 0 -25 5.5t-29 11.5q-34 16 -48 16t-22.5 -8.5t-17.5 -31.5l-27 7q11 42 26.5 58.5t40.5 16.5q10 0 25 -5.5t29 -11.5q34 -16 48 -16t22.5 8.5t17.5 31.5l27 -7q-11 -42 -26.5 -58.5z" />
    <glyph glyph-name="hungarumlaut" unicode="&#x2dd;" horiz-adv-x="549" 
d="M75 768l170 92l38 -51l-198 -61zM266 768l170 92l38 -51l-198 -61z" />
    <glyph glyph-name="uni0400" unicode="&#x400;" horiz-adv-x="771" 
d="M387 809l38 51l170 -92l-10 -20zM305 642q-123 0 -174.5 -36t-51.5 -100q0 -53 38 -88t110 -35v-58q-102 0 -155 51t-53 130q0 194 286 194h415v-58h-355v-263h305v-58h-305v-263h355v-58h-415v642z" />
    <glyph glyph-name="uni0401" unicode="&#x401;" horiz-adv-x="771" 
d="M387 751.5q-11 11.5 -11 28.5q0 16 11.5 28t28.5 12q16 0 28 -12t12 -28q0 -17 -11.5 -28.5t-28.5 -11.5q-18 0 -29 11.5zM531.5 751.5q-11.5 11.5 -11.5 28.5q0 16 11.5 28t28.5 12q18 0 29 -11.5t11 -28.5t-11.5 -28.5t-28.5 -11.5t-28.5 11.5zM305 642
q-123 0 -174.5 -36t-51.5 -100q0 -53 38 -88t110 -35v-58q-102 0 -155 51t-53 130q0 194 286 194h415v-58h-355v-263h305v-58h-305v-263h355v-58h-415v642z" />
    <glyph glyph-name="uni0402" unicode="&#x402;" horiz-adv-x="729" 
d="M423 58h31q74 0 122 44t48 129t-47.5 128t-122.5 43h-165v-402h-60v642h-210v58h480v-58h-210v-182h165q102 0 166 -57.5t64 -171.5q0 -77 -31 -129t-83 -77t-116 -25h-32z" />
    <glyph glyph-name="uni0403" unicode="&#x403;" horiz-adv-x="689" 
d="M371 768l170 92l38 -51l-198 -61zM304 642q-122 0 -173.5 -36t-51.5 -100q0 -53 38 -88t110 -35v-58q-102 0 -155 51t-53 130q0 194 286 194h364v-58h-305v-642h-60v642z" />
    <glyph glyph-name="uni0404" unicode="&#x404;" horiz-adv-x="571" 
d="M347 -24q-138 0 -220 95.5t-82 284.5q0 184 82 276t220 92q117 0 209 -65l-36 -48q-77 55 -172 55q-107 0 -172.5 -72t-70.5 -215h326v-58h-325q7 -144 72 -215.5t170 -71.5q95 0 172 55l36 -48q-92 -65 -209 -65z" />
    <glyph glyph-name="uni0405" unicode="&#x405;" horiz-adv-x="563" 
d="M156 54.5q57 -18.5 114 -18.5q82 0 138 39t56 110q0 40 -20.5 64.5t-59.5 39.5t-110 31q-78 17 -123 34.5t-74 54.5t-29 102q0 70 33 118t88 71.5t120 23.5q57 0 116 -17t101 -48l-32 -52q-36 27 -86 42t-98 15q-76 0 -129 -39t-53 -110q0 -45 22 -71t56 -39t88 -24
q85 -17 131.5 -32t82.5 -53.5t36 -108.5q0 -69 -35 -116.5t-93 -71t-126 -23.5q-65 0 -130 20.5t-111 54.5l32 53q38 -31 95 -49.5z" />
    <glyph glyph-name="uni0406" unicode="&#x406;" horiz-adv-x="440" 
d="M305 642q-123 0 -174.5 -36t-51.5 -100q0 -53 38 -88t110 -35v-58q-102 0 -155 51t-53 130q0 194 286 194h60v-700h-60v642z" />
    <glyph glyph-name="uni0407" unicode="&#x407;" horiz-adv-x="484" 
d="M240 755.5q-12 12.5 -12 29.5t12.5 29.5t29.5 12.5t29.5 -12.5t12.5 -29.5t-12 -29.5t-30 -12.5t-30 12.5zM370.5 755.5q-12.5 12.5 -12.5 29.5t12 29.5t30 12.5t30 -12.5t12 -29.5t-12.5 -29.5t-29.5 -12.5t-29.5 12.5zM305 642q-123 0 -174.5 -36t-51.5 -100
q0 -53 38 -88t110 -35v-58q-102 0 -155 51t-53 130q0 194 286 194h60v-700h-60v642z" />
    <glyph glyph-name="uni0408" unicode="&#x408;" horiz-adv-x="388" 
d="M130.5 606q-51.5 -36 -51.5 -100q0 -53 38 -88t110 -35v-58q-102 0 -155 51t-53 130q0 193 285 194h60v-480q0 -115 -51.5 -174.5t-137.5 -59.5q-57 0 -125 26l20 57q58 -23 105 -23q60 0 94.5 44t34.5 130v422q-122 0 -173.5 -36z" />
    <glyph glyph-name="uni0409" unicode="&#x409;" horiz-adv-x="1104" 
d="M644 642h-258l-34 -422q-10 -125 -43 -177t-95 -52q-37 0 -70 11l10 58q14 -5 32.5 -8t26.5 -3q32 -2 52 37.5t28 133.5l35 422h-23q-123 0 -174.5 -36t-51.5 -100q0 -53 38 -88t110 -35v-58q-102 0 -155 51t-53 130q0 194 286 194h399v-240h135q102 0 166 -57.5
t64 -171.5q0 -77 -31 -129t-83 -77t-116 -25h-195v642zM961 102q48 44 48 129t-47.5 128t-122.5 43h-135v-344h135q74 0 122 44z" />
    <glyph glyph-name="uni040A" unicode="&#x40a;" horiz-adv-x="1196" 
d="M706 321h-341v-321h-60v642q-123 0 -174.5 -36t-51.5 -100q0 -53 38 -88t110 -35v-58q-102 0 -155 51t-53 130q0 194 286 194h60v-321h341v321h60v-240h165q102 0 166 -57.5t64 -171.5q0 -77 -31 -129t-83 -77t-116 -25h-225v321zM1053 102q48 44 48 129t-47.5 128
t-122.5 43h-165v-344h165q74 0 122 44z" />
    <glyph glyph-name="uni040B" unicode="&#x40b;" horiz-adv-x="730" 
d="M635 261q0 85 -42 128t-108 43q-112 0 -196 -67v-365h-60v642h-210v58h480v-58h-210v-205q89 53 196 53q93 0 151.5 -57.5t58.5 -171.5v-261h-60v261z" />
    <glyph glyph-name="uni040C" unicode="&#x40c;" horiz-adv-x="791" 
d="M447 768l170 92l38 -51l-198 -61zM365 333v-333h-60v642q-123 0 -174.5 -36t-51.5 -100q0 -53 38 -88t110 -35v-58q-102 0 -155 51t-53 130q0 194 286 194h60v-334l327 334h81l-343 -350l343 -350h-81z" />
    <glyph glyph-name="uni040D" unicode="&#x40d;" horiz-adv-x="871" 
d="M405 809l38 51l170 -92l-10 -20zM736 542l-371 -476l-10 -66h-50v642q-123 0 -174.5 -36t-51.5 -100q0 -53 38 -88t110 -35v-58q-102 0 -155 51t-53 130q0 194 286 194h60v-542l371 475l10 67h50v-700h-60v542z" />
    <glyph glyph-name="uni040E" unicode="&#x40e;" horiz-adv-x="800" 
d="M509 752q-60 0 -104 49l24 25q31 -37 82 -37q46 0 78 37l24 -25q-44 -49 -104 -49zM118.5 596.5q-39.5 -34.5 -39.5 -90.5q0 -53 38 -88t110 -35v-58q-102 0 -155 51t-53 130q0 88 68 141t198 53l251 -483q6 16 18 44l183 439h63l-191 -460q-46 -112 -71.5 -160
t-58.5 -71t-89 -23q-45 0 -97 16l9 56q53 -14 86 -14q44 0 68.5 22.5t49.5 79.5l-257 494q-91 -9 -130.5 -43.5z" />
    <glyph glyph-name="uni040F" unicode="&#x40f;" horiz-adv-x="871" 
d="M580 -130h-60v130h-215v642q-123 0 -174.5 -36t-51.5 -100q0 -53 38 -88t110 -35v-58q-102 0 -155 51t-53 130q0 194 286 194h60v-642h371v642h60v-700h-216v-130z" />
    <glyph glyph-name="uni0410" unicode="&#x410;" horiz-adv-x="775" 
d="M646 161h-356l-65 -161h-64l263 642h-119q-123 0 -174.5 -36t-51.5 -100q0 -53 38 -88t110 -35v-58q-102 0 -155 51t-53 130q0 194 286 194h183l287 -700h-64zM468 617l-41 -118l-114 -280h309l-113 280z" />
    <glyph glyph-name="uni0411" unicode="&#x411;" horiz-adv-x="804" 
d="M304 642q-122 0 -173.5 -36t-51.5 -100q0 -53 38 -88t110 -35v-58q-102 0 -155 51t-53 130q0 193 285 194h405v-58h-345v-202h165q101 0 165.5 -55t64.5 -164q0 -74 -31 -123.5t-83 -73.5t-116 -24h-225v642zM651 99.5q48 41.5 48 121.5t-47.5 120.5t-122.5 40.5h-165
v-324h165q74 0 122 41.5z" />
    <glyph glyph-name="uni0412" unicode="&#x412;" horiz-adv-x="804" 
d="M304 642q-122 0 -173.5 -36t-51.5 -100q0 -53 38 -88t110 -35v-58q-102 0 -155 51t-53 130q0 193 285 194h205q101 0 165.5 -45.5t64.5 -138.5q0 -59 -28 -100t-78 -62q59 -20 92.5 -62.5t33.5 -107.5q0 -93 -64.5 -138.5t-165.5 -45.5h-225v642zM630.5 414.5
q48.5 35.5 48.5 101.5q0 64 -47 94t-123 30h-145v-261h145q73 0 121.5 35.5zM652 90q47 30 47 94q0 66 -48.5 101.5t-121.5 35.5h-165v-261h165q76 0 123 30z" />
    <glyph glyph-name="uni0413" unicode="&#x413;" horiz-adv-x="689" 
d="M304 642q-122 0 -173.5 -36t-51.5 -100q0 -53 38 -88t110 -35v-58q-102 0 -155 51t-53 130q0 194 286 194h364v-58h-305v-642h-60v642z" />
    <glyph glyph-name="uni0414" unicode="&#x414;" horiz-adv-x="774" 
d="M709 0h-459v-150h-60v208h23v1q32 -2 52 37.5t28 133.5l35 412h-23q-123 0 -174.5 -36t-51.5 -100q0 -53 38 -88t110 -35v-58q-102 0 -155 51t-53 130q0 194 286 194h399v-642h65v-208h-60v150zM386 642l-34 -412q-10 -121 -45 -172h337v584h-258z" />
    <glyph glyph-name="uni0415" unicode="&#x415;" horiz-adv-x="771" 
d="M305 642q-123 0 -174.5 -36t-51.5 -100q0 -53 38 -88t110 -35v-58q-102 0 -155 51t-53 130q0 194 286 194h415v-58h-355v-263h305v-58h-305v-263h355v-58h-415v642z" />
    <glyph glyph-name="uni0416" unicode="&#x416;" horiz-adv-x="1081" 
d="M639 331v-331h-60v331l-287 -331h-75l303 350l-252 291q-102 -6 -145.5 -41t-43.5 -94q0 -53 38 -88t110 -35v-58q-102 0 -155 51t-53 130q0 88 68 141t198 53h7l287 -332v332h60v-332l287 332h75l-303 -350l303 -350h-75z" />
    <glyph glyph-name="uni0417" unicode="&#x417;" horiz-adv-x="536" 
d="M150 53q48 -17 102 -17q80 0 129.5 38t49.5 111q0 65 -42.5 100.5t-127.5 35.5h-90v58h93q71 0 111 35.5t40 102.5q0 72 -45.5 109.5t-122.5 37.5q-53 0 -101.5 -17t-84.5 -45l-32 49q43 34 100 53.5t119 19.5q103 0 165 -54t62 -150q0 -66 -31 -108.5t-90 -60.5
q137 -31 137 -168q0 -66 -31 -113t-85 -70.5t-122 -23.5q-64 0 -120 19.5t-99 53.5l32 49q36 -28 84 -45z" />
    <glyph glyph-name="uni0418" unicode="&#x418;" horiz-adv-x="871" 
d="M736 542l-371 -476l-10 -66h-50v642q-123 0 -174.5 -36t-51.5 -100q0 -53 38 -88t110 -35v-58q-102 0 -155 51t-53 130q0 194 286 194h60v-542l371 475l10 67h50v-700h-60v542z" />
    <glyph glyph-name="uni0419" unicode="&#x419;" horiz-adv-x="871" 
d="M509 752q-60 0 -104 49l24 25q31 -37 82 -37q46 0 78 37l24 -25q-44 -49 -104 -49zM736 542l-371 -476l-10 -66h-50v642q-123 0 -174.5 -36t-51.5 -100q0 -53 38 -88t110 -35v-58q-102 0 -155 51t-53 130q0 194 286 194h60v-542l371 475l10 67h50v-700h-60v542z" />
    <glyph glyph-name="uni041A" unicode="&#x41a;" horiz-adv-x="791" 
d="M365 333v-333h-60v642q-123 0 -174.5 -36t-51.5 -100q0 -53 38 -88t110 -35v-58q-102 0 -155 51t-53 130q0 194 286 194h60v-334l327 334h81l-343 -350l343 -350h-81z" />
    <glyph glyph-name="uni041B" unicode="&#x41b;" horiz-adv-x="779" 
d="M644 642h-258l-34 -422q-10 -125 -43 -177t-95 -52q-37 0 -70 11l10 58q14 -5 32.5 -8t26.5 -3q32 -2 52 37.5t28 133.5l35 422h-23q-123 0 -174.5 -36t-51.5 -100q0 -53 38 -88t110 -35v-58q-102 0 -155 51t-53 130q0 194 286 194h399v-700h-60v642z" />
    <glyph glyph-name="uni041C" unicode="&#x41c;" horiz-adv-x="1020" 
d="M885 559l-240 -379h-40l-240 379v-559h-60v642q-123 0 -174.5 -36t-51.5 -100q0 -53 38 -88t110 -35v-58q-102 0 -155 51t-53 130q0 194 286 194h40l280 -445l280 445h40v-700h-60v559z" />
    <glyph glyph-name="uni041D" unicode="&#x41d;" horiz-adv-x="871" 
d="M736 321h-371v-321h-60v642q-123 0 -174.5 -36t-51.5 -100q0 -53 38 -88t110 -35v-58q-102 0 -155 51t-53 130q0 194 286 194h60v-321h371v321h60v-700h-60v321z" />
    <glyph glyph-name="uni041E" unicode="&#x41e;" horiz-adv-x="670" 
d="M485.5 683q65.5 -41 102.5 -125t37 -208t-37 -208t-102.5 -125t-150.5 -41t-150.5 41t-102.5 125t-37 208t37 208t102.5 125t150.5 41t150.5 -41zM502 114q63 80 63 236t-63 236t-167 80t-167 -80t-63 -236t63 -236t167 -80t167 80z" />
    <glyph glyph-name="uni041F" unicode="&#x41f;" horiz-adv-x="871" 
d="M736 642h-371v-642h-60v642q-123 0 -174.5 -36t-51.5 -100q0 -53 38 -88t110 -35v-58q-102 0 -155 51t-53 130q0 194 286 194h491v-700h-60v642z" />
    <glyph glyph-name="uni0420" unicode="&#x420;" horiz-adv-x="782" 
d="M305 642q-123 0 -174.5 -36t-51.5 -100q0 -53 38 -88t110 -35v-58q-102 0 -155 51t-53 130q0 194 286 194h225q64 0 116 -25t83 -77t31 -129q0 -114 -64 -171.5t-166 -57.5h-165v-240h-60v642zM652.5 341q47.5 43 47.5 128t-48 129t-122 44h-165v-344h165q75 0 122.5 43z
" />
    <glyph glyph-name="uni0421" unicode="&#x421;" horiz-adv-x="600" 
d="M347 -24q-138 0 -220 95t-82 284q0 122 35 204.5t96 123.5t139 41q70 0 126 -32.5t88 -98.5t32 -163h-60q0 115 -52 175.5t-134 60.5q-61 0 -108.5 -34.5t-74.5 -104t-27 -171.5q0 -161 66 -241.5t177 -80.5q95 0 172 55l36 -48q-92 -65 -209 -65z" />
    <glyph glyph-name="uni0422" unicode="&#x422;" horiz-adv-x="707" 
d="M418 642h-113q-123 0 -174.5 -36t-51.5 -100q0 -53 38 -88t110 -35v-58q-102 0 -155 51t-53 130q0 194 286 194h383v-58h-210v-642h-60v642z" />
    <glyph glyph-name="uni0423" unicode="&#x423;" horiz-adv-x="800" 
d="M118.5 596.5q-39.5 -34.5 -39.5 -90.5q0 -53 38 -88t110 -35v-58q-102 0 -155 51t-53 130q0 88 68 141t198 53l251 -483q6 16 18 44l183 439h63l-191 -460q-46 -112 -71.5 -160t-58.5 -71t-89 -23q-45 0 -97 16l9 56q53 -14 86 -14q44 0 68.5 22.5t49.5 79.5l-257 494
q-91 -9 -130.5 -43.5z" />
    <glyph glyph-name="uni0424" unicode="&#x424;" horiz-adv-x="738" 
d="M339 120h-50q-111 0 -180.5 65t-69.5 194q0 87 33.5 145.5t90 87t126.5 28.5h50v60h60v-60h50q70 0 126.5 -28.5t90 -87t33.5 -145.5t-33 -145t-89.5 -86t-127.5 -28h-50v-120h-60v120zM289 582q-82 0 -136 -51.5t-54 -151.5t52.5 -150.5t137.5 -50.5h50v404h-50z
M586.5 228.5q52.5 50.5 52.5 150.5t-54 151.5t-136 51.5h-50v-404h50q85 0 137.5 50.5z" />
    <glyph glyph-name="uni0425" unicode="&#x425;" horiz-adv-x="764" 
d="M478 312l-206 -312h-70l241 365l-182 275q-98 -6 -140 -41t-42 -93q0 -53 38 -88t110 -35v-58q-102 0 -155 51t-53 130q0 88 68 141t198 53h7l186 -282l187 282h70l-222 -335l242 -365h-70z" />
    <glyph glyph-name="uni0426" unicode="&#x426;" horiz-adv-x="860" 
d="M800 0h-496v642q-122 0 -173.5 -36t-51.5 -100q0 -53 38 -88t110 -35v-58q-102 0 -155 51t-53 130q0 193 285 194h60v-642h371v642h60v-642h65v-208h-60v150z" />
    <glyph glyph-name="uni0427" unicode="&#x427;" horiz-adv-x="845" 
d="M710 262q-88 -52 -195 -52q-93 0 -151.5 57.5t-58.5 171.5v203q-123 0 -174.5 -36t-51.5 -100q0 -53 38 -88t110 -35v-58q-102 0 -155 51t-53 130q0 194 286 194h60v-261q0 -85 42 -128t108 -43q110 0 195 65v367h60v-700h-60v262z" />
    <glyph glyph-name="uni0428" unicode="&#x428;" horiz-adv-x="1071" 
d="M305 642q-123 0 -174.5 -36t-51.5 -100q0 -53 38 -88t110 -35v-58q-102 0 -155 51t-53 130q0 194 286 194h60v-642h255v642h60v-642h256v642h60v-700h-691v642z" />
    <glyph glyph-name="uni0429" unicode="&#x429;" horiz-adv-x="1061" 
d="M1001 0h-696v642q-123 0 -174.5 -36t-51.5 -100q0 -53 38 -88t110 -35v-58q-102 0 -155 51t-53 130q0 194 286 194h60v-642h255v642h60v-642h256v642h60v-642h65v-208h-60v150z" />
    <glyph glyph-name="uni042A" unicode="&#x42a;" horiz-adv-x="654" 
d="M170 642h-170v58h230v-240h165q101 0 165.5 -57.5t64.5 -171.5q0 -77 -31 -129t-83 -77t-116 -25h-225v642zM517 102q48 44 48 129t-47.5 128t-122.5 43h-165v-344h165q74 0 122 44z" />
    <glyph glyph-name="uni042B" unicode="&#x42b;" horiz-adv-x="994" 
d="M859 569l-260 -126q61 -23 96 -76t35 -136q0 -77 -31 -129t-83 -77t-116 -25h-195v642q-123 0 -174.5 -36t-51.5 -100q0 -53 38 -88t110 -35v-58q-102 0 -155 51t-53 130q0 194 286 194h60v-642h135q74 0 122 44t48 129t-47.5 128t-122.5 43h-24v58h25l358 173l10 67h50
v-700h-60v569z" />
    <glyph glyph-name="uni042C" unicode="&#x42c;" horiz-adv-x="788" 
d="M304 642q-122 0 -173.5 -36t-51.5 -100q0 -53 38 -88t110 -35v-58q-102 0 -155 51t-53 130q0 194 286 194h59v-240h165q102 0 166 -57.5t64 -171.5q0 -77 -31 -129t-83 -77t-116 -25h-225v642zM651 102q48 44 48 129t-47.5 128t-122.5 43h-165v-344h165q74 0 122 44z" />
    <glyph glyph-name="uni042D" unicode="&#x42d;" horiz-adv-x="571" 
d="M140 379h326q-5 149 -70.5 224t-172.5 75q-95 0 -172 -55l-36 48q92 65 209 65q138 0 220 -95.5t82 -284.5t-82 -284.5t-220 -95.5q-117 0 -209 65l36 48q77 -55 172 -55q105 0 170 72t72 215h-325v58z" />
    <glyph glyph-name="uni042E" unicode="&#x42e;" horiz-adv-x="1110" 
d="M305 642q-123 0 -174.5 -36t-51.5 -100q0 -53 38 -88t110 -35v-58q-102 0 -155 51t-53 130q0 194 286 194h60v-321h160q4 115 40 192t95 115t135 38q79 0 140 -41t95.5 -125t34.5 -208t-34.5 -208t-95.5 -125t-140 -41q-76 0 -135 38t-95 115t-40 192h-160v-321h-60v642z
M904 68.5q47 34.5 74 105.5t27 176t-27 176t-74 105.5t-109 34.5t-109 -34.5t-74 -105.5t-27 -176t27 -176t74 -105.5t109 -34.5t109 34.5z" />
    <glyph glyph-name="uni042F" unicode="&#x42f;" horiz-adv-x="565" 
d="M430 0v240h-177l-156 -240h-68l161 249q-71 18 -113 73.5t-42 146.5q0 77 31 129t83 77t116 25h225v-700h-60zM430 642h-165q-74 0 -122 -44t-48 -129t47.5 -128t122.5 -43h165v344z" />
    <glyph glyph-name="uni0430" unicode="&#x430;" horiz-adv-x="614" 
d="M485 161h-356l-65 -161h-64l287 700h40l287 -700h-64zM307 617l-41 -118l-114 -280h309l-113 280z" />
    <glyph glyph-name="uni0431" unicode="&#x431;" horiz-adv-x="575" 
d="M75 700h405v-58h-345v-202h165q101 0 165.5 -55t64.5 -164q0 -74 -31 -123.5t-83 -73.5t-116 -24h-225v700zM422 99.5q48 41.5 48 121.5t-47.5 120.5t-122.5 40.5h-165v-324h165q74 0 122 41.5z" />
    <glyph glyph-name="uni0432" unicode="&#x432;" horiz-adv-x="575" 
d="M75 700h205q101 0 165.5 -45.5t64.5 -138.5q0 -59 -28 -100t-78 -62q59 -20 92.5 -62.5t33.5 -107.5q0 -93 -64.5 -138.5t-165.5 -45.5h-225v700zM401.5 414.5q48.5 35.5 48.5 101.5q0 64 -47 94t-123 30h-145v-261h145q73 0 121.5 35.5zM423 90q47 30 47 94
q0 66 -48.5 101.5t-121.5 35.5h-165v-261h165q76 0 123 30z" />
    <glyph glyph-name="uni0433" unicode="&#x433;" horiz-adv-x="457" 
d="M75 700h365v-58h-305v-642h-60v700z" />
    <glyph glyph-name="uni0434" unicode="&#x434;" horiz-adv-x="589" 
d="M524 0h-459v-150h-60v208h23v1q32 -2 52 37.5t28 133.5l40 470h371v-642h65v-208h-60v150zM201 642l-34 -412q-10 -121 -45 -172h337v584h-258z" />
    <glyph glyph-name="uni0435" unicode="&#x435;" horiz-adv-x="541" 
d="M75 700h415v-58h-355v-263h305v-58h-305v-263h355v-58h-415v700z" />
    <glyph glyph-name="uni0436" unicode="&#x436;" horiz-adv-x="944" 
d="M502 331v-331h-60v331l-287 -331h-75l303 350l-303 350h75l287 -332v332h60v-332l287 332h75l-303 -350l303 -350h-75z" />
    <glyph glyph-name="uni0437" unicode="&#x437;" horiz-adv-x="536" 
d="M150 53q48 -17 102 -17q80 0 129.5 38t49.5 111q0 65 -42.5 100.5t-127.5 35.5h-90v58h93q71 0 111 35.5t40 102.5q0 72 -45.5 109.5t-122.5 37.5q-53 0 -101.5 -17t-84.5 -45l-32 49q43 34 100 53.5t119 19.5q103 0 165 -54t62 -150q0 -66 -31 -108.5t-90 -60.5
q137 -31 137 -168q0 -66 -31 -113t-85 -70.5t-122 -23.5q-64 0 -120 19.5t-99 53.5l32 49q36 -28 84 -45z" />
    <glyph glyph-name="uni0438" unicode="&#x438;" horiz-adv-x="641" 
d="M506 542l-371 -476l-10 -66h-50v700h60v-542l371 475l10 67h50v-700h-60v542z" />
    <glyph glyph-name="uni0439" unicode="&#x439;" horiz-adv-x="641" 
d="M324 752q-60 0 -104 49l24 25q31 -37 82 -37q46 0 78 37l24 -25q-44 -49 -104 -49zM506 542l-371 -476l-10 -66h-50v700h60v-542l371 475l10 67h50v-700h-60v542z" />
    <glyph glyph-name="uni043A" unicode="&#x43a;" horiz-adv-x="561" 
d="M135 333v-333h-60v700h60v-334l327 334h81l-343 -350l343 -350h-81z" />
    <glyph glyph-name="uni043B" unicode="&#x43b;" horiz-adv-x="640" 
d="M505 642h-258l-34 -422q-10 -125 -43 -177t-95 -52q-37 0 -70 11l10 58q14 -5 32.5 -8t26.5 -3q32 -2 52 37.5t28 133.5l40 480h371v-700h-60v642z" />
    <glyph glyph-name="uni043C" unicode="&#x43c;" horiz-adv-x="790" 
d="M655 559l-240 -379h-40l-240 379v-559h-60v700h40l280 -445l280 445h40v-700h-60v559z" />
    <glyph glyph-name="uni043D" unicode="&#x43d;" horiz-adv-x="641" 
d="M506 321h-371v-321h-60v700h60v-321h371v321h60v-700h-60v321z" />
    <glyph glyph-name="uni043E" unicode="&#x43e;" horiz-adv-x="670" 
d="M485.5 683q65.5 -41 102.5 -125t37 -208t-37 -208t-102.5 -125t-150.5 -41t-150.5 41t-102.5 125t-37 208t37 208t102.5 125t150.5 41t150.5 -41zM502 114q63 80 63 236t-63 236t-167 80t-167 -80t-63 -236t63 -236t167 -80t167 80z" />
    <glyph glyph-name="uni043F" unicode="&#x43f;" horiz-adv-x="641" 
d="M506 642h-371v-642h-60v700h491v-700h-60v642z" />
    <glyph glyph-name="uni0440" unicode="&#x440;" horiz-adv-x="552" 
d="M75 700h225q64 0 116 -25t83 -77t31 -129q0 -114 -64 -171.5t-166 -57.5h-165v-240h-60v700zM422.5 341q47.5 43 47.5 128t-48 129t-122 44h-165v-344h165q75 0 122.5 43z" />
    <glyph glyph-name="uni0441" unicode="&#x441;" horiz-adv-x="600" 
d="M347 -24q-138 0 -220 95t-82 284q0 122 35 204.5t96 123.5t139 41q70 0 126 -32.5t88 -98.5t32 -163h-60q0 115 -52 175.5t-134 60.5q-61 0 -108.5 -34.5t-74.5 -104t-27 -171.5q0 -161 66 -241.5t177 -80.5q95 0 172 55l36 -48q-92 -65 -209 -65z" />
    <glyph glyph-name="uni0442" unicode="&#x442;" horiz-adv-x="518" 
d="M229 642h-210v58h480v-58h-210v-642h-60v642z" />
    <glyph glyph-name="uni0443" unicode="&#x443;" horiz-adv-x="587" 
d="M72 700l251 -483q6 16 18 44l183 439h63l-191 -460q-46 -112 -71.5 -160t-58.5 -71t-89 -23q-45 0 -97 16l9 56q53 -14 86 -14q44 0 68.5 22.5t49.5 79.5l-288 554h67z" />
    <glyph glyph-name="uni0444" unicode="&#x444;" horiz-adv-x="738" 
d="M339 120h-50q-111 0 -180.5 65t-69.5 194q0 87 33.5 145.5t90 87t126.5 28.5h50v60h60v-60h50q70 0 126.5 -28.5t90 -87t33.5 -145.5t-33 -145t-89.5 -86t-127.5 -28h-50v-120h-60v120zM289 582q-82 0 -136 -51.5t-54 -151.5t52.5 -150.5t137.5 -50.5h50v404h-50z
M586.5 228.5q52.5 50.5 52.5 150.5t-54 151.5t-136 51.5h-50v-404h50q85 0 137.5 50.5z" />
    <glyph glyph-name="uni0445" unicode="&#x445;" horiz-adv-x="571" 
d="M285 312l-206 -312h-70l241 365l-221 335h70l186 -282l187 282h70l-222 -335l242 -365h-70z" />
    <glyph glyph-name="uni0446" unicode="&#x446;" horiz-adv-x="631" 
d="M571 0h-496v700h60v-642h371v642h60v-642h65v-208h-60v150z" />
    <glyph glyph-name="uni0447" unicode="&#x447;" horiz-adv-x="585" 
d="M450 262q-88 -52 -195 -52q-93 0 -151.5 57.5t-58.5 171.5v261h60v-261q0 -85 42 -128t108 -43q110 0 195 65v367h60v-700h-60v262z" />
    <glyph glyph-name="uni0448" unicode="&#x448;" horiz-adv-x="841" 
d="M75 700h60v-642h255v642h60v-642h256v642h60v-700h-691v700z" />
    <glyph glyph-name="uni0449" unicode="&#x449;" horiz-adv-x="831" 
d="M771 0h-696v700h60v-642h255v642h60v-642h256v642h60v-642h65v-208h-60v150z" />
    <glyph glyph-name="uni044A" unicode="&#x44a;" horiz-adv-x="654" 
d="M170 642h-170v58h230v-240h165q101 0 165.5 -57.5t64.5 -171.5q0 -77 -31 -129t-83 -77t-116 -25h-225v642zM517 102q48 44 48 129t-47.5 128t-122.5 43h-165v-344h165q74 0 122 44z" />
    <glyph glyph-name="uni044B" unicode="&#x44b;" horiz-adv-x="764" 
d="M629 569l-260 -126q61 -23 96 -76t35 -136q0 -77 -31 -129t-83 -77t-116 -25h-195v700h60v-642h135q74 0 122 44t48 129t-47.5 128t-122.5 43h-24v58h25l358 173l10 67h50v-700h-60v569z" />
    <glyph glyph-name="uni044C" unicode="&#x44c;" horiz-adv-x="559" 
d="M75 700h60v-240h165q102 0 166 -57.5t64 -171.5q0 -77 -31 -129t-83 -77t-116 -25h-225v700zM422 102q48 44 48 129t-47.5 128t-122.5 43h-165v-344h165q74 0 122 44z" />
    <glyph glyph-name="uni044D" unicode="&#x44d;" horiz-adv-x="571" 
d="M140 379h326q-5 149 -70.5 224t-172.5 75q-95 0 -172 -55l-36 48q92 65 209 65q138 0 220 -95.5t82 -284.5t-82 -284.5t-220 -95.5q-117 0 -209 65l36 48q77 -55 172 -55q105 0 170 72t72 215h-325v58z" />
    <glyph glyph-name="uni044E" unicode="&#x44e;" horiz-adv-x="880" 
d="M75 700h60v-321h160q4 115 40 192t95 115t135 38q79 0 140 -41t95.5 -125t34.5 -208t-34.5 -208t-95.5 -125t-140 -41q-76 0 -135 38t-95 115t-40 192h-160v-321h-60v700zM674 68.5q47 34.5 74 105.5t27 176t-27 176t-74 105.5t-109 34.5t-109 -34.5t-74 -105.5t-27 -176
t27 -176t74 -105.5t109 -34.5t109 34.5z" />
    <glyph glyph-name="uni044F" unicode="&#x44f;" horiz-adv-x="565" 
d="M430 0v240h-177l-156 -240h-68l161 249q-71 18 -113 73.5t-42 146.5q0 77 31 129t83 77t116 25h225v-700h-60zM430 642h-165q-74 0 -122 -44t-48 -129t47.5 -128t122.5 -43h165v344z" />
    <glyph glyph-name="uni0450" unicode="&#x450;" horiz-adv-x="541" 
d="M166 809l38 51l170 -92l-10 -20zM75 700h415v-58h-355v-263h305v-58h-305v-263h355v-58h-415v700z" />
    <glyph glyph-name="uni0451" unicode="&#x451;" horiz-adv-x="541" 
d="M183 751.5q-11 11.5 -11 28.5q0 16 11.5 28t28.5 12q16 0 28 -12t12 -28q0 -17 -11.5 -28.5t-28.5 -11.5q-18 0 -29 11.5zM327.5 751.5q-11.5 11.5 -11.5 28.5q0 16 11.5 28t28.5 12q18 0 29 -11.5t11 -28.5t-11.5 -28.5t-28.5 -11.5t-28.5 11.5zM75 700h415v-58h-355
v-263h305v-58h-305v-263h355v-58h-415v700z" />
    <glyph glyph-name="uni0452" unicode="&#x452;" horiz-adv-x="729" 
d="M423 58h31q74 0 122 44t48 129t-47.5 128t-122.5 43h-165v-402h-60v642h-210v58h480v-58h-210v-182h165q102 0 166 -57.5t64 -171.5q0 -77 -31 -129t-83 -77t-116 -25h-32z" />
    <glyph glyph-name="uni0453" unicode="&#x453;" horiz-adv-x="457" 
d="M204 768l170 92l38 -51l-198 -61zM75 700h365v-58h-305v-642h-60v700z" />
    <glyph glyph-name="uni0454" unicode="&#x454;" horiz-adv-x="571" 
d="M347 -24q-138 0 -220 95.5t-82 284.5q0 184 82 276t220 92q117 0 209 -65l-36 -48q-77 55 -172 55q-107 0 -172.5 -72t-70.5 -215h326v-58h-325q7 -144 72 -215.5t170 -71.5q95 0 172 55l36 -48q-92 -65 -209 -65z" />
    <glyph glyph-name="uni0455" unicode="&#x455;" horiz-adv-x="563" 
d="M156 54.5q57 -18.5 114 -18.5q83 0 138.5 39t55.5 112q0 41 -20 65t-58 37.5t-112 30.5q-79 17 -123.5 34t-73.5 54t-29 102q0 70 33 118.5t88 72t120 23.5q55 0 113 -17t99 -48l-32 -52q-35 27 -83.5 42t-95.5 15q-77 0 -129.5 -39t-52.5 -111q0 -44 21 -70t55 -39
t90 -24q83 -16 130.5 -31.5t83.5 -54t36 -108.5q0 -69 -35 -116.5t-93 -71t-126 -23.5q-65 0 -130 20.5t-111 54.5l32 53q38 -31 95 -49.5z" />
    <glyph glyph-name="uni0456" unicode="&#x456;" horiz-adv-x="210" 
d="M75 700h60v-700h-60v700z" />
    <glyph glyph-name="uni0457" unicode="&#x457;" horiz-adv-x="224" 
d="M51 764.5q-8 8.5 -8 20.5t8 20.5t21 8.5t21 -8.5t8 -20.5t-8 -20.5t-21 -8.5t-21 8.5zM131.5 764.5q-8.5 8.5 -8.5 20.5t8 20.5t21 8.5t21 -8.5t8 -20.5t-8.5 -20.5t-20.5 -8.5t-20.5 8.5zM82 700h60v-700h-60v700z" />
    <glyph glyph-name="uni0458" unicode="&#x458;" horiz-adv-x="388" 
d="M319 700v-480q0 -115 -51.5 -174.5t-137.5 -59.5q-57 0 -125 26l20 57q58 -23 105 -23q60 0 94.5 44t34.5 130v480h60z" />
    <glyph glyph-name="uni0459" unicode="&#x459;" horiz-adv-x="965" 
d="M505 642h-258l-34 -422q-10 -125 -43 -177t-95 -52q-37 0 -70 11l10 58q14 -5 32.5 -8t26.5 -3q32 -2 52 37.5t28 133.5l40 480h371v-240h135q102 0 166 -57.5t64 -171.5q0 -77 -31 -129t-83 -77t-116 -25h-195v642zM822 102q48 44 48 129t-47.5 128t-122.5 43h-135v-344
h135q74 0 122 44z" />
    <glyph glyph-name="uni045A" unicode="&#x45a;" horiz-adv-x="966" 
d="M476 321h-341v-321h-60v700h60v-321h341v321h60v-240h165q102 0 166 -57.5t64 -171.5q0 -77 -31 -129t-83 -77t-116 -25h-225v321zM823 102q48 44 48 129t-47.5 128t-122.5 43h-165v-344h165q74 0 122 44z" />
    <glyph glyph-name="uni045B" unicode="&#x45b;" horiz-adv-x="730" 
d="M635 261q0 85 -42 128t-108 43q-112 0 -196 -67v-365h-60v642h-210v58h480v-58h-210v-205q89 53 196 53q93 0 151.5 -57.5t58.5 -171.5v-261h-60v261z" />
    <glyph glyph-name="uni045C" unicode="&#x45c;" horiz-adv-x="561" 
d="M278 768l170 92l38 -51l-198 -61zM135 333v-333h-60v700h60v-334l327 334h81l-343 -350l343 -350h-81z" />
    <glyph glyph-name="uni045D" unicode="&#x45d;" horiz-adv-x="641" 
d="M216 809l38 51l170 -92l-10 -20zM506 542l-371 -476l-10 -66h-50v700h60v-542l371 475l10 67h50v-700h-60v542z" />
    <glyph glyph-name="uni045E" unicode="&#x45e;" horiz-adv-x="587" 
d="M297 752q-60 0 -104 49l24 25q31 -37 82 -37q46 0 78 37l24 -25q-44 -49 -104 -49zM72 700l251 -483q6 16 18 44l183 439h63l-191 -460q-46 -112 -71.5 -160t-58.5 -71t-89 -23q-45 0 -97 16l9 56q53 -14 86 -14q44 0 68.5 22.5t49.5 79.5l-288 554h67z" />
    <glyph glyph-name="uni045F" unicode="&#x45f;" horiz-adv-x="641" 
d="M350 -130h-60v130h-215v700h60v-642h371v642h60v-700h-216v-130z" />
    <glyph glyph-name="uni0462" unicode="&#x462;" horiz-adv-x="729" 
d="M229 642h-210v58h480v-58h-210v-182h165q102 0 166 -57.5t64 -171.5q0 -77 -31 -129t-83 -77t-116 -25h-225v642zM576 102q48 44 48 129t-47.5 128t-122.5 43h-165v-344h165q74 0 122 44z" />
    <glyph glyph-name="uni0463" unicode="&#x463;" horiz-adv-x="729" 
d="M229 642h-210v58h480v-58h-210v-182h165q102 0 166 -57.5t64 -171.5q0 -77 -31 -129t-83 -77t-116 -25h-225v642zM576 102q48 44 48 129t-47.5 128t-122.5 43h-165v-344h165q74 0 122 44z" />
    <glyph glyph-name="uni0490" unicode="&#x490;" horiz-adv-x="689" 
d="M304 642q-122 0 -173.5 -36t-51.5 -100q0 -53 38 -88t110 -35v-58q-102 0 -155 51t-53 130q0 194 286 194h304l10 87h50v-145h-305v-642h-60v642z" />
    <glyph glyph-name="uni0491" unicode="&#x491;" horiz-adv-x="480" 
d="M95 700h305l10 87h50v-145h-305v-642h-60v700z" />
    <glyph glyph-name="endash" unicode="&#x2013;" horiz-adv-x="601" 
d="M75 379h451v-58h-451v58z" />
    <glyph glyph-name="emdash" unicode="&#x2014;" horiz-adv-x="701" 
d="M75 379h551v-58h-551v58z" />
    <glyph glyph-name="quoteleft" unicode="&#x2018;" horiz-adv-x="212" 
d="M106 616q26 -1 43.5 -18.5t17.5 -42.5t-18 -43.5t-43 -18.5q-26 0 -43.5 18t-17.5 44q0 45 21.5 87t60.5 78l37 -32q-40 -38 -58 -72z" />
    <glyph glyph-name="quoteright" unicode="&#x2019;" horiz-adv-x="212" 
d="M106 597q-26 1 -43.5 18.5t-17.5 42.5t18 43.5t43 18.5q26 0 43.5 -18t17.5 -44q0 -45 -21.5 -87t-60.5 -78l-37 32q40 38 58 72z" />
    <glyph glyph-name="quotesinglbase" unicode="&#x201a;" horiz-adv-x="212" 
d="M106 -21q-26 1 -43.5 18.5t-17.5 42.5t18 43.5t43 18.5q26 0 43.5 -18t17.5 -44q0 -45 -21.5 -87t-60.5 -78l-37 32q40 38 58 72z" />
    <glyph glyph-name="quotedblleft" unicode="&#x201c;" horiz-adv-x="372" 
d="M106 616q26 -1 43.5 -18.5t17.5 -42.5t-18 -43.5t-43 -18.5q-26 0 -43.5 18t-17.5 44q0 45 21.5 87t60.5 78l37 -32q-40 -38 -58 -72zM266 616q26 -1 43.5 -18.5t17.5 -42.5t-18 -43.5t-43 -18.5q-26 0 -43.5 18t-17.5 44q0 45 21.5 87t60.5 78l37 -32q-40 -38 -58 -72z
" />
    <glyph glyph-name="quotedblright" unicode="&#x201d;" horiz-adv-x="372" 
d="M106 597q-26 1 -43.5 18.5t-17.5 42.5t18 43.5t43 18.5q26 0 43.5 -18t17.5 -44q0 -45 -21.5 -87t-60.5 -78l-37 32q40 38 58 72zM266 597q-26 1 -43.5 18.5t-17.5 42.5t18 43.5t43 18.5q26 0 43.5 -18t17.5 -44q0 -45 -21.5 -87t-60.5 -78l-37 32q40 38 58 72z" />
    <glyph glyph-name="quotedblbase" unicode="&#x201e;" horiz-adv-x="372" 
d="M106 -21q-26 1 -43.5 18.5t-17.5 42.5t18 43.5t43 18.5q26 0 43.5 -18t17.5 -44q0 -45 -21.5 -87t-60.5 -78l-37 32q40 38 58 72zM266 -21q-26 1 -43.5 18.5t-17.5 42.5t18 43.5t43 18.5q26 0 43.5 -18t17.5 -44q0 -45 -21.5 -87t-60.5 -78l-37 32q40 38 58 72z" />
    <glyph glyph-name="bullet" unicode="&#x2022;" horiz-adv-x="354" 
d="M105 278.5q-30 30.5 -30 71.5t30 71.5t72 30.5t72 -30t30 -72t-30 -72t-72 -30t-72 30.5z" />
    <glyph glyph-name="ellipsis" unicode="&#x2026;" horiz-adv-x="636" 
d="M63 -2q-18 18 -18 43t18 43t43 18q26 0 43.5 -17.5t17.5 -43.5q0 -25 -18 -43t-43 -18t-43 18zM275 -2q-18 18 -18 43t18 43t43 18q26 0 43.5 -17.5t17.5 -43.5q0 -25 -18 -43t-43 -18t-43 18zM487 -2q-18 18 -18 43t18 43t43 18q26 0 43.5 -17.5t17.5 -43.5
q0 -25 -18 -43t-43 -18t-43 18z" />
    <glyph glyph-name="guilsinglleft" unicode="&#x2039;" horiz-adv-x="350" 
d="M305 602l-189 -252l189 -252h-71l-189 252l189 252h71z" />
    <glyph glyph-name="guilsinglright" unicode="&#x203a;" horiz-adv-x="350" 
d="M116 98h-71l189 252l-189 252h71l189 -252z" />
    <glyph glyph-name="Euro" unicode="&#x20ac;" horiz-adv-x="676" 
d="M452 -24q-118 0 -196 69.5t-99 209.5h-112v50h106q-1 16 -1 51q0 33 1 49h-106v50h112q21 134 99 201.5t196 67.5q117 0 209 -65l-36 -48q-77 55 -172 55q-92 0 -153.5 -52.5t-81.5 -158.5h278v-50h-284q-2 -16 -2 -49q0 -35 2 -51h284v-50h-278q19 -111 81 -166t154 -55
q95 0 172 55l36 -48q-92 -65 -209 -65z" />
    <glyph glyph-name="uni20B4" unicode="&#x20b4;" horiz-adv-x="683" 
d="M45 455h431q24 36 24 78q0 66 -46 98.5t-112 32.5q-52 0 -105 -19t-91 -52l-39 46q47 41 110 63t125 22q57 0 106.5 -19.5t80.5 -62t31 -107.5q0 -46 -19 -80h97v-50h-593v50zM477.5 8q-66.5 -22 -131.5 -22q-93 0 -158 46.5t-65 142.5q0 46 19 80h-97v50h593v-50h-431
q-24 -36 -24 -79q0 -66 46.5 -98t115.5 -32q53 0 111.5 18.5t102.5 53.5l37 -47q-52 -41 -118.5 -63z" />
    <glyph glyph-name="uni20B8" unicode="&#x20b8;" horiz-adv-x="518" 
d="M19 700h480v-50h-480v50zM229 500h-210v50h480v-50h-210v-500h-60v500z" />
    <glyph glyph-name="uni20BB" unicode="&#x20bb;" 
d="M210 0h-60v118h-105v50h105v100h-105v50h105v382h225q64 0 116 -25t83 -77t31 -129q0 -99 -64.5 -150t-165.5 -51h-165v-100h266v-50h-266v-118zM497.5 356q47.5 38 47.5 113q0 85 -48 129t-122 44h-165v-324h165q75 0 122.5 38z" />
    <glyph glyph-name="uni20BC" unicode="&#x20bc;" 
d="M210 0h-60v118h-105v50h105v100h-105v50h105v382h225q64 0 116 -25t83 -77t31 -129q0 -99 -64.5 -150t-165.5 -51h-165v-100h266v-50h-266v-118zM497.5 356q47.5 38 47.5 113q0 85 -48 129t-122 44h-165v-324h165q75 0 122.5 38z" />
    <glyph glyph-name="uni20BD" unicode="&#x20bd;" 
d="M210 0h-60v118h-105v50h105v100h-105v50h105v382h225q64 0 116 -25t83 -77t31 -129q0 -99 -64.5 -150t-165.5 -51h-165v-100h266v-50h-266v-118zM497.5 356q47.5 38 47.5 113q0 85 -48 129t-122 44h-165v-324h165q75 0 122.5 38z" />
    <glyph glyph-name="uni20BE" unicode="&#x20be;" 
d="M210 0h-60v118h-105v50h105v100h-105v50h105v382h225q64 0 116 -25t83 -77t31 -129q0 -99 -64.5 -150t-165.5 -51h-165v-100h266v-50h-266v-118zM497.5 356q47.5 38 47.5 113q0 85 -48 129t-122 44h-165v-324h165q75 0 122.5 38z" />
    <glyph glyph-name="uni20BF" unicode="&#x20bf;" 
d="M210 0h-60v118h-105v50h105v100h-105v50h105v382h225q64 0 116 -25t83 -77t31 -129q0 -99 -64.5 -150t-165.5 -51h-165v-100h266v-50h-266v-118zM497.5 356q47.5 38 47.5 113q0 85 -48 129t-122 44h-165v-324h165q75 0 122.5 38z" />
    <glyph glyph-name="uni20C0" unicode="&#x20c0;" 
d="M210 0h-60v118h-105v50h105v100h-105v50h105v382h225q64 0 116 -25t83 -77t31 -129q0 -99 -64.5 -150t-165.5 -51h-165v-100h266v-50h-266v-118zM497.5 356q47.5 38 47.5 113q0 85 -48 129t-122 44h-165v-324h165q75 0 122.5 38z" />
    <glyph glyph-name="uni20C1" unicode="&#x20c1;" 
d="M210 0h-60v118h-105v50h105v100h-105v50h105v382h225q64 0 116 -25t83 -77t31 -129q0 -99 -64.5 -150t-165.5 -51h-165v-100h266v-50h-266v-118zM497.5 356q47.5 38 47.5 113q0 85 -48 129t-122 44h-165v-324h165q75 0 122.5 38z" />
    <glyph glyph-name="uni20C2" unicode="&#x20c2;" 
d="M210 0h-60v118h-105v50h105v100h-105v50h105v382h225q64 0 116 -25t83 -77t31 -129q0 -99 -64.5 -150t-165.5 -51h-165v-100h266v-50h-266v-118zM497.5 356q47.5 38 47.5 113q0 85 -48 129t-122 44h-165v-324h165q75 0 122.5 38z" />
    <glyph glyph-name="uni20C3" unicode="&#x20c3;" 
d="M210 0h-60v118h-105v50h105v100h-105v50h105v382h225q64 0 116 -25t83 -77t31 -129q0 -99 -64.5 -150t-165.5 -51h-165v-100h266v-50h-266v-118zM497.5 356q47.5 38 47.5 113q0 85 -48 129t-122 44h-165v-324h165q75 0 122.5 38z" />
    <glyph glyph-name="uni20C4" unicode="&#x20c4;" 
d="M210 0h-60v118h-105v50h105v100h-105v50h105v382h225q64 0 116 -25t83 -77t31 -129q0 -99 -64.5 -150t-165.5 -51h-165v-100h266v-50h-266v-118zM497.5 356q47.5 38 47.5 113q0 85 -48 129t-122 44h-165v-324h165q75 0 122.5 38z" />
    <glyph glyph-name="uni20C5" unicode="&#x20c5;" 
d="M210 0h-60v118h-105v50h105v100h-105v50h105v382h225q64 0 116 -25t83 -77t31 -129q0 -99 -64.5 -150t-165.5 -51h-165v-100h266v-50h-266v-118zM497.5 356q47.5 38 47.5 113q0 85 -48 129t-122 44h-165v-324h165q75 0 122.5 38z" />
    <glyph glyph-name="uni20C6" unicode="&#x20c6;" 
d="M210 0h-60v118h-105v50h105v100h-105v50h105v382h225q64 0 116 -25t83 -77t31 -129q0 -99 -64.5 -150t-165.5 -51h-165v-100h266v-50h-266v-118zM497.5 356q47.5 38 47.5 113q0 85 -48 129t-122 44h-165v-324h165q75 0 122.5 38z" />
    <glyph glyph-name="uni20C7" unicode="&#x20c7;" 
d="M210 0h-60v118h-105v50h105v100h-105v50h105v382h225q64 0 116 -25t83 -77t31 -129q0 -99 -64.5 -150t-165.5 -51h-165v-100h266v-50h-266v-118zM497.5 356q47.5 38 47.5 113q0 85 -48 129t-122 44h-165v-324h165q75 0 122.5 38z" />
    <glyph glyph-name="uni20C8" unicode="&#x20c8;" 
d="M210 0h-60v118h-105v50h105v100h-105v50h105v382h225q64 0 116 -25t83 -77t31 -129q0 -99 -64.5 -150t-165.5 -51h-165v-100h266v-50h-266v-118zM497.5 356q47.5 38 47.5 113q0 85 -48 129t-122 44h-165v-324h165q75 0 122.5 38z" />
    <glyph glyph-name="uni20C9" unicode="&#x20c9;" 
d="M210 0h-60v118h-105v50h105v100h-105v50h105v382h225q64 0 116 -25t83 -77t31 -129q0 -99 -64.5 -150t-165.5 -51h-165v-100h266v-50h-266v-118zM497.5 356q47.5 38 47.5 113q0 85 -48 129t-122 44h-165v-324h165q75 0 122.5 38z" />
    <glyph glyph-name="uni20CA" unicode="&#x20ca;" 
d="M210 0h-60v118h-105v50h105v100h-105v50h105v382h225q64 0 116 -25t83 -77t31 -129q0 -99 -64.5 -150t-165.5 -51h-165v-100h266v-50h-266v-118zM497.5 356q47.5 38 47.5 113q0 85 -48 129t-122 44h-165v-324h165q75 0 122.5 38z" />
    <glyph glyph-name="uni20CB" unicode="&#x20cb;" 
d="M210 0h-60v118h-105v50h105v100h-105v50h105v382h225q64 0 116 -25t83 -77t31 -129q0 -99 -64.5 -150t-165.5 -51h-165v-100h266v-50h-266v-118zM497.5 356q47.5 38 47.5 113q0 85 -48 129t-122 44h-165v-324h165q75 0 122.5 38z" />
    <glyph glyph-name="uni20CC" unicode="&#x20cc;" 
d="M210 0h-60v118h-105v50h105v100h-105v50h105v382h225q64 0 116 -25t83 -77t31 -129q0 -99 -64.5 -150t-165.5 -51h-165v-100h266v-50h-266v-118zM497.5 356q47.5 38 47.5 113q0 85 -48 129t-122 44h-165v-324h165q75 0 122.5 38z" />
    <glyph glyph-name="uni20CD" unicode="&#x20cd;" 
d="M210 0h-60v118h-105v50h105v100h-105v50h105v382h225q64 0 116 -25t83 -77t31 -129q0 -99 -64.5 -150t-165.5 -51h-165v-100h266v-50h-266v-118zM497.5 356q47.5 38 47.5 113q0 85 -48 129t-122 44h-165v-324h165q75 0 122.5 38z" />
    <glyph glyph-name="uni20CE" unicode="&#x20ce;" 
d="M210 0h-60v118h-105v50h105v100h-105v50h105v382h225q64 0 116 -25t83 -77t31 -129q0 -99 -64.5 -150t-165.5 -51h-165v-100h266v-50h-266v-118zM497.5 356q47.5 38 47.5 113q0 85 -48 129t-122 44h-165v-324h165q75 0 122.5 38z" />
    <glyph glyph-name="uni20CF" unicode="&#x20cf;" 
d="M210 0h-60v118h-105v50h105v100h-105v50h105v382h225q64 0 116 -25t83 -77t31 -129q0 -99 -64.5 -150t-165.5 -51h-165v-100h266v-50h-266v-118zM497.5 356q47.5 38 47.5 113q0 85 -48 129t-122 44h-165v-324h165q75 0 122.5 38z" />
    <glyph glyph-name="uni2116" unicode="&#x2116;" horiz-adv-x="946" 
d="M864.5 682q36.5 -38 36.5 -112t-36.5 -112t-93.5 -38t-93.5 38t-36.5 112t36.5 112t93.5 38t93.5 -38zM135 568v-568h-60v700h40l391 -568v568h60v-700h-40zM829 492.5q22 24.5 22 77.5q0 54 -22 78t-58 24t-58 -24t-22 -78t21.5 -78t58.5 -24q36 0 58 24.5z" />
    <glyph glyph-name="trademark" unicode="&#x2122;" horiz-adv-x="768" 
d="M135 657h-124v43h292v-43h-124v-379h-44v379zM679 597l-136 -213h-28l-136 212v-318h-42v422h30l162 -259l164 259h30v-422h-44v319z" />
    <glyph glyph-name="minus" unicode="&#x2212;" horiz-adv-x="601" 
d="M75 379h451v-58h-451v58z" />
    <glyph glyph-name="uni0326" horiz-adv-x="0" 
d="M-122 -143q-19 0 -32 13.5t-13 32.5t13.5 33t32.5 14t32.5 -14t13.5 -33q0 -64 -54 -118l-28 24q26 29 35 48z" />
    </font>
</defs>
</svg>
