<?xml version="1.0" standalone="no"?>
<!DOCTYPE svg PUBLIC "-//W3C//DTD SVG 1.1//EN" "http://www.w3.org/Graphics/SVG/1.1/DTD/svg11.dtd" >
<svg xmlns="http://www.w3.org/2000/svg" xmlns:xlink="http://www.w3.org/1999/xlink" version="1.1">
<metadata>
Created by FontForge 20170731 at Wed Nov 28 13:25:24 2018
 By Aleksey,,,
If you used this font or saw where this font used please send me a photo, or link, or just few words where you saw. Thanks in advance
</metadata>
<defs>
<font id="Myra4FCaps-Bold" horiz-adv-x="730" >
  <font-face 
    font-family="Myra 4F Caps"
    font-weight="700"
    font-variant="small-caps"
    font-stretch="normal"
    units-per-em="1000"
    panose-1="0 0 0 0 0 0 0 0 0 0"
    ascent="750"
    descent="-250"
    x-height="700"
    cap-height="700"
    bbox="-167 -215 1190 875"
    underline-thickness="50"
    underline-position="-150"
    unicode-range="U+0020-2212"
  />
<missing-glyph horiz-adv-x="300" 
 />
    <glyph glyph-name=".notdef" horiz-adv-x="300" 
 />
    <glyph glyph-name=".null" horiz-adv-x="0" 
 />
    <glyph glyph-name="nonmarkingreturn" horiz-adv-x="333" 
 />
    <glyph glyph-name="space" unicode=" " horiz-adv-x="300" 
 />
    <glyph glyph-name="exclam" unicode="!" horiz-adv-x="300" 
d="M65 700h170l-30 -470h-110zM82.5 7.5q-27.5 27.5 -27.5 64.5t27.5 64.5t64.5 27.5q38 0 65 -27t27 -65q0 -37 -27 -64.5t-65 -27.5q-37 0 -64.5 27.5z" />
    <glyph glyph-name="quotedbl" unicode="&#x22;" horiz-adv-x="430" 
d="M60 700h130l-30 -270h-70zM240 700h130l-30 -270h-70z" />
    <glyph glyph-name="numbersign" unicode="#" horiz-adv-x="648" 
d="M276 0l60 222h-92l-31 -118q-22 -79 -28 -104h-98l60 222h-102v85h124l27 95h-102v85h123l57 213h99l-57 -213h91l56 213h99l-57 -213h98v-85h-122l-25 -95h99v-85h-122l-59 -222h-98zM358 307l27 95h-93l-25 -95h91z" />
    <glyph glyph-name="dollar" unicode="$" horiz-adv-x="623" 
d="M271 -23q-69 5 -132 30t-110 64l83 111q28 -26 70.5 -43t88.5 -22v168q-109 20 -166 64.5t-57 137.5q0 100 63.5 160.5t159.5 73.5v129h80v-128q61 -5 120.5 -29.5t104.5 -63.5l-83 -113q-25 25 -63 43t-79 23v-170q82 -17 132 -40t75.5 -61t25.5 -97q0 -101 -66 -161.5
t-167 -73.5v-129h-80v127zM218 550q-20 -20 -20 -53q0 -32 18.5 -46.5t54.5 -23.5v151q-33 -8 -53 -28zM411 148q23 21 23 56q0 32 -20.5 46.5t-62.5 22.5v-153q37 7 60 28z" />
    <glyph glyph-name="percent" unicode="%" horiz-adv-x="657" 
d="M258.5 682q36.5 -38 36.5 -112t-36.5 -112t-93.5 -38t-93.5 38t-36.5 112t36.5 112t93.5 38t93.5 -38zM433 700h117l-327 -700h-117zM201.5 520q14.5 16 14.5 50q0 35 -14 50.5t-37 15.5t-37 -15.5t-14 -50.5q0 -66 51 -66q22 0 36.5 16zM398.5 18q-36.5 38 -36.5 112
t36.5 112t93.5 38t93.5 -38t36.5 -112t-36.5 -112t-93.5 -38t-93.5 38zM529 79.5q14 15.5 14 50.5q0 66 -51 66q-22 0 -36.5 -16t-14.5 -50q0 -35 14 -50.5t37 -15.5t37 15.5z" />
    <glyph glyph-name="ampersand" unicode="&#x26;" horiz-adv-x="768" 
d="M658 -20q-75 0 -170 50q-82 -50 -191 -50q-127 0 -187 59t-60 151q0 61 27.5 113t85.5 84q-23 61 -23 120q0 56 22 105t71 80.5t126 31.5q110 0 194 -65l-83 -111q-42 36 -106 36q-33 0 -53.5 -19.5t-20.5 -55.5q0 -38 23 -91.5t63.5 -108.5t90.5 -98q27 48 32 91t6 48
h148q-3 -46 -17 -103.5t-46 -111.5q40 -15 82 -15q10 0 20.5 1.5t15.5 1.5l21 3l20 -130q-54 -16 -91 -16zM200 201q0 -46 25.5 -63.5t70.5 -17.5q31 0 55 6q-76 68 -126 142q-25 -23 -25 -67z" />
    <glyph glyph-name="quotesingle" unicode="'" horiz-adv-x="250" 
d="M60 700h130l-30 -270h-70z" />
    <glyph glyph-name="parenleft" unicode="(" horiz-adv-x="320" 
d="M102 45q-57 99 -57 305t57 305t173 99v-140q-33 0 -52.5 -24t-28.5 -81.5t-9 -158.5t9 -158.5t28.5 -81.5t52.5 -24v-140q-116 0 -173 99z" />
    <glyph glyph-name="parenright" unicode=")" horiz-adv-x="320" 
d="M97.5 110q19.5 24 28.5 81.5t9 158.5t-9 158.5t-28.5 81.5t-52.5 24v140q116 0 173 -99t57 -305t-57 -305t-173 -99v140q33 0 52.5 24z" />
    <glyph glyph-name="asterisk" unicode="*" horiz-adv-x="445" 
d="M154 365l-71 57l42 56l21 28l-44 15l-57 20l31 84q33 -10 99 -32v107h92v-108q34 12 61 20q12 3 22 6.5t18 6.5l31 -84q-34 -12 -52 -17l-52 -18l65 -84q-12 -10 -18 -14l-53 -42l-68 90z" />
    <glyph glyph-name="plus" unicode="+" horiz-adv-x="701" 
d="M278 280h-203v140h203v205h144v-205h204v-140h-204v-206h-144v206z" />
    <glyph glyph-name="comma" unicode="," horiz-adv-x="294" 
d="M146 -19q-42 1 -71.5 30.5t-29.5 71.5q0 41 30 71.5t72 30.5t72 -29.5t30 -72.5q0 -71 -32 -137.5t-88 -121.5l-62 53q55 57 79 104z" />
    <glyph glyph-name="hyphen" unicode="-" horiz-adv-x="401" 
d="M75 420h251v-140h-251v140z" />
    <glyph glyph-name="period" unicode="." horiz-adv-x="294" 
d="M75 10.5q-30 30.5 -30 71.5t30 71.5t72 30.5t72 -30t30 -72t-30 -72t-72 -30t-72 30.5z" />
    <glyph glyph-name="slash" unicode="/" horiz-adv-x="404" 
d="M327 700h77l-327 -700h-77z" />
    <glyph glyph-name="zero" unicode="0" horiz-adv-x="670" 
d="M485.5 683q65.5 -41 102.5 -125t37 -208t-37 -208t-102.5 -125t-150.5 -41t-150.5 41t-102.5 125t-37 208t37 208t102.5 125t150.5 41t150.5 -41zM231.5 530.5q-36.5 -53.5 -36.5 -180.5t36.5 -180.5t103.5 -53.5t103.5 53.5t36.5 180.5t-36.5 180.5t-103.5 53.5
t-103.5 -53.5z" />
    <glyph glyph-name="one" unicode="1" horiz-adv-x="463" 
d="M208 521l-137 -72l-66 119l252 130l1 2h100v-700h-150v521z" />
    <glyph glyph-name="two" unicode="2" horiz-adv-x="626" 
d="M45 100l31 23q105 75 172 129.5t115 118t48 125.5q0 88 -102 88q-57 0 -85.5 -34.5t-28.5 -119.5h-150q0 146 71.5 220t198.5 74q85 0 140.5 -31.5t80.5 -81t25 -106.5q0 -88 -55 -167.5t-132 -134.5t-139 -73l126 10h220v-140h-536v100z" />
    <glyph glyph-name="three" unicode="3" horiz-adv-x="604" 
d="M269 401h53q32 0 51.5 22.5t19.5 68.5q0 50 -23.5 71t-67.5 21q-55 0 -81 -33.5t-26 -120.5h-150q0 145 69 219.5t185 74.5q70 0 125.5 -28t87 -81t31.5 -124q0 -107 -73 -155q89 -38 89 -143q0 -66 -32.5 -115t-90 -75.5t-130.5 -26.5q-70 0 -138 25.5t-121 69.5l83 111
q36 -31 82.5 -48.5t98.5 -17.5q48 0 73 17t25 58q0 40 -23.5 54.5t-66.5 14.5h-50v141z" />
    <glyph glyph-name="four" unicode="4" horiz-adv-x="652" 
d="M376 160h-341v100l188 440h161l-172 -400h164v170l150 30v-200h91v-140h-91v-160h-150v160z" />
    <glyph glyph-name="five" unicode="5" horiz-adv-x="604" 
d="M212.5 133.5q46.5 -17.5 96.5 -17.5q49 0 74.5 21t25.5 72q0 52 -25.5 71.5t-72.5 19.5q-33 0 -63 -9t-64 -31h-1l-114 25l27 415h426v-140h-295l-8 -138q44 19 110 19q110 0 170 -56t60 -162q0 -79 -32.5 -134.5t-89.5 -84t-130 -28.5q-71 0 -139 25.5t-121 69.5l83 111
q36 -31 82.5 -48.5zM183 259v1l5 -1h-5z" />
    <glyph glyph-name="six" unicode="6" horiz-adv-x="638" 
d="M429.5 574q-48.5 10 -87.5 10q-64 0 -99 -36.5t-45 -130.5q64 23 136 23q114 0 186.5 -59t72.5 -172q0 -109 -69.5 -171t-192.5 -62q-286 0 -286 362q0 197 78.5 291.5t215.5 94.5q61 0 124.5 -17.5t111.5 -47.5l-63 -111q-34 16 -82.5 26zM222 168.5q18 -32.5 44 -42.5
t64 -10q55 0 84 19t29 72q0 51 -27.5 72t-80.5 21q-73 0 -137 -35q6 -64 24 -96.5z" />
    <glyph glyph-name="seven" unicode="7" horiz-adv-x="532" 
d="M336 560h-317v140h494v-100l-257 -600h-161z" />
    <glyph glyph-name="eight" unicode="8" horiz-adv-x="644" 
d="M599 199q0 -68 -36 -118.5t-99 -77.5t-141 -27q-79 0 -142 27t-99.5 77.5t-36.5 118.5q0 111 97 154q-81 47 -81 150q0 65 33.5 115.5t92.5 78t135 27.5q75 0 134.5 -27.5t93 -78t33.5 -115.5q0 -103 -81 -150q97 -43 97 -154zM403 567q-30 20 -81 20t-81 -20t-30 -63
t30 -63t81 -20t81 20t30 63t-30 63zM414 261q-35 19 -89 19q-130 0 -130 -84t130 -84q54 0 89 19t35 65t-35 65z" />
    <glyph glyph-name="nine" unicode="9" horiz-adv-x="638" 
d="M209 126q49 -10 87 -10q63 0 98.5 37t44.5 130q-64 -23 -135 -23q-114 0 -186.5 59t-72.5 172q0 109 69.5 171t192.5 62q286 0 286 -362q0 -197 -78.5 -291.5t-215.5 -94.5q-61 0 -124.5 17.5t-111.5 47.5l63 111q34 -16 83 -26zM415 531.5q-18 32.5 -43.5 42.5t-63.5 10
q-55 0 -84 -19t-29 -72q0 -51 27.5 -72t80.5 -21q76 0 137 35q-7 64 -25 96.5z" />
    <glyph glyph-name="colon" unicode=":" horiz-adv-x="354" 
d="M75 310.5q-30 30.5 -30 71.5t30 71.5t72 30.5t72 -30t30 -72t-30 -72t-72 -30t-72 30.5zM75 10.5q-30 30.5 -30 71.5t30 71.5t72 30.5t72 -30t30 -72t-30 -72t-72 -30t-72 30.5z" />
    <glyph glyph-name="semicolon" unicode=";" horiz-adv-x="354" 
d="M75 310.5q-30 30.5 -30 71.5t30 71.5t72 30.5t72 -30t30 -72t-30 -72t-72 -30t-72 30.5zM146 -19q-42 1 -71.5 30.5t-29.5 71.5q0 41 30 71.5t72 30.5t72 -29.5t30 -72.5q0 -71 -32 -137.5t-88 -121.5l-62 53q55 57 79 104z" />
    <glyph glyph-name="less" unicode="&#x3c;" horiz-adv-x="598" 
d="M50 400l473 262v-166l-283 -146l283 -145v-166l-473 261v100z" />
    <glyph glyph-name="equal" unicode="=" horiz-adv-x="601" 
d="M75 490h451v-110h-451v110zM75 320h451v-110h-451v110z" />
    <glyph glyph-name="greater" unicode="&#x3e;" horiz-adv-x="598" 
d="M75 205l283 145l-283 146v166l473 -262v-100l-473 -261v166z" />
    <glyph glyph-name="question" unicode="?" horiz-adv-x="623" 
d="M259 230l-12 179l62 12q45 9 75.5 27.5t30.5 59.5q0 43 -34 59.5t-82 16.5q-55 0 -99.5 -18.5t-74.5 -49.5l-83 113q53 46 119.5 70.5t137.5 24.5q69 0 129.5 -23t98.5 -72.5t38 -123.5q0 -86 -51.5 -139.5t-140.5 -73.5l-4 -62h-110zM246.5 7.5q-27.5 27.5 -27.5 64.5
t27.5 64.5t64.5 27.5q38 0 65 -27t27 -65q0 -37 -27 -64.5t-65 -27.5q-37 0 -64.5 27.5z" />
    <glyph glyph-name="at" unicode="@" horiz-adv-x="810" 
d="M433 -24q-192 0 -290 92.5t-98 286.5q0 189 93.5 279t279.5 90q180 0 263.5 -80t83.5 -233q0 -129 -52 -188t-128 -59q-54 0 -93 30q-39 -30 -96 -30q-78 0 -123.5 46.5t-45.5 138.5t45.5 138.5t123.5 46.5q62 0 102 -36l14 27h78v-255q75 0 75 135q0 112 -57 168
t-188 56q-139 0 -207 -66t-68 -207q0 -147 73 -216t219 -69q76 0 141 17t113 46l46 -83q-129 -75 -304 -75zM410 422q-63 0 -63 -73t63 -73q33 0 60 19v108q-27 19 -60 19z" />
    <glyph glyph-name="A" unicode="A" horiz-adv-x="815" 
d="M605 120h-275l-50 -120h-159l238 560h-85q-52 0 -79.5 -21.5t-27.5 -52.5q0 -26 15.5 -43.5t44.5 -17.5v-140q-101 0 -154.5 57t-53.5 144q0 97 64.5 155.5t190.5 58.5h244l297 -700h-159zM468 498l-41 -148l-38 -90h158l-38 90z" />
    <glyph glyph-name="B" unicode="B" horiz-adv-x="834" 
d="M274 560q-52 0 -79.5 -21.5t-27.5 -52.5q0 -26 15.5 -43.5t44.5 -17.5v-140q-101 0 -154.5 57t-53.5 144q0 97 64.5 155.5t190.5 58.5h265q63 0 115.5 -23.5t83.5 -69.5t31 -110q0 -96 -74 -142q94 -43 94 -152q0 -64 -31 -110t-83.5 -69.5t-115.5 -23.5h-285v560z
M597.5 434q21.5 14 21.5 56q0 41 -21 55.5t-59 14.5h-115v-140h115q37 0 58.5 14zM618 154.5q21 14.5 21 55.5q0 42 -21.5 56t-58.5 14h-135v-140h135q38 0 59 14.5z" />
    <glyph glyph-name="C" unicode="C" horiz-adv-x="660" 
d="M372 -24q-96 0 -169.5 41.5t-115.5 126.5t-42 212q0 122 38.5 204.5t107 123t157.5 40.5q77 0 139 -32.5t98 -98.5t36 -163h-150q0 154 -123 154q-74 0 -113.5 -53t-39.5 -174q0 -131 45 -186t130 -55q107 0 173 66l83 -111q-107 -95 -254 -95z" />
    <glyph glyph-name="D" unicode="D" horiz-adv-x="878" 
d="M274 560q-52 0 -79.5 -21.5t-27.5 -52.5q0 -26 15.5 -43.5t44.5 -17.5v-140q-101 0 -154.5 57t-53.5 144q0 97 64.5 155.5t190.5 58.5h211q103 0 181 -38.5t122.5 -117t44.5 -194.5t-44.5 -194.5t-122.5 -117t-181 -38.5h-211v560zM631.5 188.5q51.5 48.5 51.5 161.5
t-51.5 161.5t-149.5 48.5h-58v-420h58q98 0 149.5 48.5z" />
    <glyph glyph-name="E" unicode="E" horiz-adv-x="800" 
d="M274 560q-52 0 -79.5 -21.5t-27.5 -52.5q0 -26 15.5 -43.5t44.5 -17.5v-140q-101 0 -154.5 57t-53.5 144q0 97 64.5 155.5t190.5 58.5h475v-140h-325v-140h275v-140h-275v-140h325v-140h-475v560z" />
    <glyph glyph-name="F" unicode="F" horiz-adv-x="783" 
d="M274 560q-52 0 -79.5 -21.5t-27.5 -52.5q0 -26 15.5 -43.5t44.5 -17.5v-140q-101 0 -154.5 57t-53.5 144q0 97 64.5 155.5t190.5 58.5h475v-140h-325v-140h275v-140h-275v-280h-150v560z" />
    <glyph glyph-name="G" unicode="G" horiz-adv-x="700" 
d="M544 29q-89 -53 -196 -53q-89 0 -157.5 40.5t-107 123t-38.5 204.5q0 127 42 212t115.5 126.5t169.5 41.5q147 0 254 -95l-83 -111q-66 66 -173 66q-85 0 -130 -55t-45 -186q0 -121 39.5 -174t113.5 -53q77 0 133 42v122h-118v140h268v-421h-71z" />
    <glyph glyph-name="H" unicode="H" horiz-adv-x="900" 
d="M675 280h-251v-280h-150v560q-52 0 -79.5 -21.5t-27.5 -52.5q0 -26 15.5 -43.5t44.5 -17.5v-140q-101 0 -154.5 57t-53.5 144q0 97 64.5 155.5t190.5 58.5h150v-280h251v280h150v-700h-150v280z" />
    <glyph glyph-name="I" unicode="I" horiz-adv-x="499" 
d="M274 560q-52 0 -79.5 -21.5t-27.5 -52.5q0 -26 15.5 -43.5t44.5 -17.5v-140q-101 0 -154.5 57t-53.5 144q0 97 64.5 155.5t190.5 58.5h150v-700h-150v560z" />
    <glyph glyph-name="J" unicode="J" horiz-adv-x="493" 
d="M130 130q34 -4 55 -4q43 0 66 26.5t23 87.5v320q-52 0 -79.5 -21.5t-27.5 -52.5q0 -26 15.5 -43.5t44.5 -17.5v-140q-101 0 -154.5 57t-53.5 144q0 97 64.5 155.5t190.5 58.5h150v-460q0 -83 -30 -140.5t-82 -85.5t-119 -28q-39 0 -71 6t-72 20l20 130q26 -8 60 -12z" />
    <glyph glyph-name="K" unicode="K" horiz-adv-x="843" 
d="M424 299v-299h-150v560q-52 0 -79.5 -21.5t-27.5 -52.5q0 -26 15.5 -43.5t44.5 -17.5v-140q-101 0 -154.5 57t-53.5 144q0 97 64.5 155.5t190.5 58.5h150v-300l226 300h175l-263 -350l263 -350h-175z" />
    <glyph glyph-name="L" unicode="L" horiz-adv-x="716" 
d="M274 560q-52 0 -79.5 -21.5t-27.5 -52.5q0 -26 15.5 -43.5t44.5 -17.5v-140q-101 0 -154.5 57t-53.5 144q0 97 64.5 155.5t190.5 58.5h150v-560h275v-140h-425v560z" />
    <glyph glyph-name="M" unicode="M" horiz-adv-x="1049" 
d="M824 389l-150 -209h-100l-150 209v-389h-150v560q-52 0 -79.5 -21.5t-27.5 -52.5q0 -26 15.5 -43.5t44.5 -17.5v-140q-101 0 -154.5 57t-53.5 144q0 97 64.5 155.5t190.5 58.5h100l250 -350l250 350h100v-700h-150v389z" />
    <glyph glyph-name="N" unicode="N" horiz-adv-x="900" 
d="M424 400v-400h-150v560q-52 0 -79.5 -21.5t-27.5 -52.5q0 -26 15.5 -43.5t44.5 -17.5v-140q-101 0 -154.5 57t-53.5 144q0 97 64.5 155.5t190.5 58.5h100l301 -400v400h150v-700h-100z" />
    <glyph glyph-name="O" unicode="O" 
d="M531 683q72 -41 113 -125t41 -208t-41 -208t-113 -125t-166 -41t-166 41t-113 125t-41 208t41 208t113 125t166 41t166 -41zM239.5 530.5q-44.5 -53.5 -44.5 -180.5t44.5 -180.5t125.5 -53.5t125.5 53.5t44.5 180.5t-44.5 180.5t-125.5 53.5t-125.5 -53.5z" />
    <glyph glyph-name="P" unicode="P" horiz-adv-x="811" 
d="M274 560q-52 0 -79.5 -21.5t-27.5 -52.5q0 -26 15.5 -43.5t44.5 -17.5v-140q-101 0 -154.5 57t-53.5 144q0 97 64.5 155.5t190.5 58.5h285q64 0 116 -25t83 -77t31 -129q0 -114 -64 -171.5t-166 -57.5h-135v-240h-150v560zM617.5 397.5q21.5 17.5 21.5 71.5t-21 72.5
t-59 18.5h-135v-180h135q37 0 58.5 17.5z" />
    <glyph glyph-name="Q" unicode="Q" 
d="M432 -18q-33 -6 -67 -6q-94 0 -166 41t-113 125t-41 208t41 208t113 125t166 41t166 -41t113 -125t41 -208q0 -110 -32 -188.5t-91 -124.5q45 -76 117 -101l-66 -119q-120 51 -181 165zM490.5 169.5q44.5 53.5 44.5 180.5t-44.5 180.5t-125.5 53.5t-125.5 -53.5
t-44.5 -180.5t44.5 -180.5t125.5 -53.5t125.5 53.5z" />
    <glyph glyph-name="R" unicode="R" horiz-adv-x="836" 
d="M494 240h-70v-240h-150v552q-53 0 -80 -18t-27 -48q0 -23 15.5 -38t44.5 -15v-148q-101 0 -154.5 57t-53.5 144q0 97 64.5 155.5t190.5 58.5h285q64 0 116 -25t83 -77.5t31 -129.5q0 -85 -37.5 -139t-101.5 -75l159 -254h-171zM618 398q21 18 21 72q0 53 -21 71.5
t-59 18.5h-135v-180h135q38 0 59 18z" />
    <glyph glyph-name="S" unicode="S" horiz-adv-x="623" 
d="M197.5 133.5q52.5 -17.5 105.5 -17.5q55 0 93 21t38 67q0 29 -16.5 43.5t-37 19t-76.5 13.5q-82 13 -137 34t-87 62.5t-32 110.5q0 76 38 129.5t99.5 80.5t132.5 27q69 0 138 -25t120 -70l-83 -113q-30 31 -77.5 49.5t-95.5 18.5q-50 0 -86 -21t-36 -66q0 -27 14 -41.5
t34.5 -21t57.5 -13.5q100 -18 159.5 -40.5t90 -62t30.5 -104.5q0 -77 -39 -130.5t-103.5 -80.5t-140.5 -27q-75 0 -147 25.5t-125 69.5l83 111q33 -31 85.5 -48.5z" />
    <glyph glyph-name="T" unicode="T" horiz-adv-x="737" 
d="M393 560h-119q-52 0 -79.5 -21.5t-27.5 -52.5q0 -26 15.5 -43.5t44.5 -17.5v-140q-101 0 -154.5 57t-53.5 144q0 97 64.5 155.5t190.5 58.5h444v-140h-175v-560h-150v560z" />
    <glyph glyph-name="U" unicode="U" horiz-adv-x="907" 
d="M838 700v-467q0 -82 -39 -140.5t-103.5 -87.5t-139.5 -29t-139.5 29t-103.5 87.5t-39 140.5v327q-52 0 -79.5 -21.5t-27.5 -52.5q0 -26 15.5 -43.5t44.5 -17.5v-140q-101 0 -154.5 57t-53.5 144q0 97 64.5 155.5t190.5 58.5h150v-476q0 -57 39.5 -82.5t92.5 -25.5
t92.5 25.5t39.5 82.5v476h150z" />
    <glyph glyph-name="V" unicode="V" horiz-adv-x="893" 
d="M258 559q-44 -3 -67.5 -23.5t-23.5 -49.5q0 -26 15.5 -43.5t44.5 -17.5v-140q-101 0 -154.5 57t-53.5 144q0 97 64.5 155.5t190.5 58.5h84l147 -350l41 -148l41 148l147 350h159l-297 -700h-100z" />
    <glyph glyph-name="W" unicode="W" horiz-adv-x="1060" 
d="M652 288l-23 133l-23 -133l-89 -288h-100l-173 558q-38 -6 -57.5 -26t-19.5 -46t15.5 -43.5t44.5 -17.5v-140q-101 0 -154.5 57t-53.5 144q0 97 64.5 155.5t190.5 58.5h81l89 -318l23 -133l23 133l89 318h101l89 -318l23 -133l23 133l89 318h155l-217 -700h-100z" />
    <glyph glyph-name="X" unicode="X" horiz-adv-x="799" 
d="M478 233l-145 -233h-166l228 366l-121 195v-1q-52 0 -79.5 -21.5t-27.5 -52.5q0 -26 15.5 -43.5t44.5 -17.5v-140q-101 0 -154.5 57t-53.5 144q0 97 64.5 155.5t190.5 58.5h79l125 -201l126 201h166l-209 -334l229 -366h-166z" />
    <glyph glyph-name="Y" unicode="Y" horiz-adv-x="819" 
d="M432 271l-159 289q-52 -1 -79 -22t-27 -52q0 -26 15.5 -43.5t44.5 -17.5v-140q-101 0 -154.5 57t-53.5 144q0 97 64.5 155.5t190.5 58.5h88l145 -283l146 283h166l-237 -429v-271h-150v271z" />
    <glyph glyph-name="Z" unicode="Z" horiz-adv-x="688" 
d="M24 100l304 460h-304v140h494v-100l-304 -460h200q52 0 79.5 21.5t27.5 52.5q0 26 -15.5 43.5t-44.5 17.5v140q101 0 154.5 -57t53.5 -144q0 -97 -64.5 -155.5t-190.5 -58.5h-390v100z" />
    <glyph glyph-name="bracketleft" unicode="[" horiz-adv-x="401" 
d="M75 755h275v-140h-125v-530h125v-140h-275v810z" />
    <glyph glyph-name="backslash" unicode="\" horiz-adv-x="404" 
d="M0 700h77l327 -700h-77z" />
    <glyph glyph-name="bracketright" unicode="]" horiz-adv-x="401" 
d="M51 85h125v530h-125v140h275v-810h-275v140z" />
    <glyph glyph-name="underscore" unicode="_" horiz-adv-x="550" 
d="M0 -100h551v-108h-551v108z" />
    <glyph glyph-name="grave" unicode="`" horiz-adv-x="406" 
d="M101 804l53 71l170 -92l-20 -40z" />
    <glyph glyph-name="a" unicode="a" horiz-adv-x="694" 
d="M484 120h-275l-50 -120h-159l297 700h100l297 -700h-159zM347 498l-41 -148l-38 -90h158l-38 90z" />
    <glyph glyph-name="b" unicode="b" horiz-adv-x="635" 
d="M75 700h265q63 0 115.5 -23.5t83.5 -69.5t31 -110q0 -96 -74 -142q94 -43 94 -152q0 -64 -31 -110t-83.5 -69.5t-115.5 -23.5h-285v700zM398.5 434q21.5 14 21.5 56q0 41 -21 55.5t-59 14.5h-115v-140h115q37 0 58.5 14zM419 154.5q21 14.5 21 55.5q0 42 -21.5 56
t-58.5 14h-135v-140h135q38 0 59 14.5z" />
    <glyph glyph-name="c" unicode="c" horiz-adv-x="660" 
d="M372 -24q-96 0 -169.5 41.5t-115.5 126.5t-42 212q0 122 38.5 204.5t107 123t157.5 40.5q77 0 139 -32.5t98 -98.5t36 -163h-150q0 154 -123 154q-74 0 -113.5 -53t-39.5 -174q0 -131 45 -186t130 -55q107 0 173 66l83 -111q-107 -95 -254 -95z" />
    <glyph glyph-name="d" unicode="d" horiz-adv-x="679" 
d="M75 700h211q103 0 181 -38.5t122.5 -117t44.5 -194.5t-44.5 -194.5t-122.5 -117t-181 -38.5h-211v700zM432.5 188.5q51.5 48.5 51.5 161.5t-51.5 161.5t-149.5 48.5h-58v-420h58q98 0 149.5 48.5z" />
    <glyph glyph-name="e" unicode="e" horiz-adv-x="601" 
d="M75 700h475v-140h-325v-140h275v-140h-275v-140h325v-140h-475v700z" />
    <glyph glyph-name="f" unicode="f" horiz-adv-x="584" 
d="M75 700h475v-140h-325v-140h275v-140h-275v-280h-150v700z" />
    <glyph glyph-name="g" unicode="g" horiz-adv-x="700" 
d="M544 29q-89 -53 -196 -53q-89 0 -157.5 40.5t-107 123t-38.5 204.5q0 127 42 212t115.5 126.5t169.5 41.5q147 0 254 -95l-83 -111q-66 66 -173 66q-85 0 -130 -55t-45 -186q0 -121 39.5 -174t113.5 -53q77 0 133 42v122h-118v140h268v-421h-71z" />
    <glyph glyph-name="h" unicode="h" horiz-adv-x="701" 
d="M476 280h-251v-280h-150v700h150v-280h251v280h150v-700h-150v280z" />
    <glyph glyph-name="i" unicode="i" horiz-adv-x="300" 
d="M75 700h150v-700h-150v700z" />
    <glyph glyph-name="j" unicode="j" horiz-adv-x="448" 
d="M85 130q34 -4 55 -4q43 0 66 26.5t23 87.5v460h150v-460q0 -83 -30 -140.5t-82 -85.5t-119 -28q-39 0 -71 6t-72 20l20 130q26 -8 60 -12z" />
    <glyph glyph-name="k" unicode="k" horiz-adv-x="644" 
d="M225 299v-299h-150v700h150v-300l226 300h175l-263 -350l263 -350h-175z" />
    <glyph glyph-name="l" unicode="l" horiz-adv-x="517" 
d="M75 0v700h150v-560h275v-140h-425z" />
    <glyph glyph-name="m" unicode="m" horiz-adv-x="850" 
d="M625 389l-150 -209h-100l-150 209v-389h-150v700h100l250 -350l250 350h100v-700h-150v389z" />
    <glyph glyph-name="n" unicode="n" horiz-adv-x="701" 
d="M225 400v-400h-150v700h100l301 -400v400h150v-700h-100z" />
    <glyph glyph-name="o" unicode="o" 
d="M531 683q72 -41 113 -125t41 -208t-41 -208t-113 -125t-166 -41t-166 41t-113 125t-41 208t41 208t113 125t166 41t166 -41zM239.5 530.5q-44.5 -53.5 -44.5 -180.5t44.5 -180.5t125.5 -53.5t125.5 53.5t44.5 180.5t-44.5 180.5t-125.5 53.5t-125.5 -53.5z" />
    <glyph glyph-name="p" unicode="p" horiz-adv-x="612" 
d="M75 700h285q64 0 116 -25t83 -77t31 -129q0 -114 -64 -171.5t-166 -57.5h-135v-240h-150v700zM418.5 397.5q21.5 17.5 21.5 71.5t-21 72.5t-59 18.5h-135v-180h135q37 0 58.5 17.5z" />
    <glyph glyph-name="q" unicode="q" 
d="M432 -18q-33 -6 -67 -6q-94 0 -166 41t-113 125t-41 208t41 208t113 125t166 41t166 -41t113 -125t41 -208q0 -110 -32 -188.5t-91 -124.5q45 -76 117 -101l-66 -119q-120 51 -181 165zM490.5 169.5q44.5 53.5 44.5 180.5t-44.5 180.5t-125.5 53.5t-125.5 -53.5
t-44.5 -180.5t44.5 -180.5t125.5 -53.5t125.5 53.5z" />
    <glyph glyph-name="r" unicode="r" horiz-adv-x="638" 
d="M296 240h-70v-240h-150v700h285q64 0 116 -25t83 -77t31 -129q0 -86 -37 -140t-102 -75l159 -254h-171zM419.5 397.5q21.5 17.5 21.5 71.5t-21 72.5t-59 18.5h-135v-180h135q37 0 58.5 17.5z" />
    <glyph glyph-name="s" unicode="s" horiz-adv-x="623" 
d="M197.5 133.5q52.5 -17.5 105.5 -17.5q55 0 93 21t38 67q0 29 -16.5 43.5t-37 19t-76.5 13.5q-82 13 -137 34t-87 62.5t-32 110.5q0 76 38 129.5t99.5 80.5t132.5 27q68 0 135 -25t118 -70l-83 -113q-29 31 -75 49.5t-93 18.5q-50 0 -86 -21t-36 -66q0 -27 14 -41.5
t34.5 -21t57.5 -13.5q100 -18 159.5 -40.5t90 -62t30.5 -104.5q0 -77 -39 -130.5t-103.5 -80.5t-140.5 -27q-75 0 -147 25.5t-125 69.5l83 111q33 -31 85.5 -48.5z" />
    <glyph glyph-name="t" unicode="t" horiz-adv-x="538" 
d="M194 560h-175v140h500v-140h-175v-560h-150v560z" />
    <glyph glyph-name="u" unicode="u" horiz-adv-x="702" 
d="M633 700v-467q0 -82 -39 -140.5t-103.5 -87.5t-139.5 -29t-139.5 29t-103.5 87.5t-39 140.5v467h150v-476q0 -57 39.5 -82.5t92.5 -25.5t92.5 25.5t39.5 82.5v476h150z" />
    <glyph glyph-name="v" unicode="v" horiz-adv-x="694" 
d="M297 0l-297 700h159l147 -350l41 -148l41 148l147 350h159l-297 -700h-100z" />
    <glyph glyph-name="w" unicode="w" horiz-adv-x="859" 
d="M452 288l-23 133l-23 -133l-89 -288h-100l-217 700h155l89 -318l23 -133l23 133l89 318h101l89 -318l23 -133l23 133l89 318h155l-217 -700h-100z" />
    <glyph glyph-name="x" unicode="x" horiz-adv-x="641" 
d="M320 233l-145 -233h-166l228 366l-208 334h166l125 -201l126 201h166l-209 -334l229 -366h-166z" />
    <glyph glyph-name="y" unicode="y" horiz-adv-x="623" 
d="M236 271l-236 429h166l145 -283l146 283h166l-237 -429v-271h-150v271z" />
    <glyph glyph-name="z" unicode="z" horiz-adv-x="555" 
d="M24 100l304 460h-304v140h494v-100l-304 -460h304v-140h-494v100z" />
    <glyph glyph-name="braceleft" unicode="{" horiz-adv-x="421" 
d="M192 7.5q-58 62.5 -58 188.5q0 53 -16.5 78t-44.5 25h-23v102h23q28 0 44.5 25t16.5 78q0 126 58 188.5t154 62.5v-140q-25 0 -38 -10t-18.5 -33t-5.5 -67q0 -116 -85 -155q85 -41 85 -155q0 -44 5.5 -67t18.5 -33t38 -10v-140q-96 0 -154 62.5z" />
    <glyph glyph-name="bar" unicode="|" horiz-adv-x="210" 
d="M65 850h80v-1000h-80v1000z" />
    <glyph glyph-name="braceright" unicode="}" horiz-adv-x="421" 
d="M348 299q-28 0 -44.5 -25t-16.5 -78q0 -126 -58 -188.5t-154 -62.5v140q25 0 38 10t18.5 33t5.5 67q0 115 85 155q-85 39 -85 155q0 44 -5.5 67t-18.5 33t-38 10v140q96 0 154 -62.5t58 -188.5q0 -53 16.5 -78t44.5 -25h23v-102h-23z" />
    <glyph glyph-name="exclamdown" unicode="&#xa1;" horiz-adv-x="300" 
d="M212 563.5q-27 -27.5 -65 -27.5q-37 0 -64.5 27.5t-27.5 64.5q0 38 27.5 65t64.5 27q38 0 65 -27t27 -65q0 -37 -27 -64.5zM65 0l30 470h110l30 -470h-170z" />
    <glyph glyph-name="yen" unicode="&#xa5;" horiz-adv-x="623" 
d="M386 0h-150v119h-150v70h150v80h-150v70h112l-198 361h166l145 -283l146 283h166l-200 -361h114v-70h-151v-80h151v-70h-151v-119z" />
    <glyph glyph-name="dieresis" unicode="&#xa8;" horiz-adv-x="406" 
d="M89 754.5q-14 14.5 -14 35.5t14.5 35.5t35.5 14.5t35.5 -14.5t14.5 -35.5t-14 -35.5t-36 -14.5t-36 14.5zM245.5 754.5q-14.5 14.5 -14.5 35.5t14 35.5t36 14.5t36 -14.5t14 -35.5t-14.5 -35.5t-35.5 -14.5t-35.5 14.5z" />
    <glyph glyph-name="copyright" unicode="&#xa9;" horiz-adv-x="810" 
d="M221 29.5q-82 49.5 -129 134.5t-47 186t47 186t129 134.5t184 49.5t184 -49.5t129 -134.5t47 -186t-47 -186t-129 -134.5t-184 -49.5t-184 49.5zM247 620.5q-68 -41.5 -105 -113t-37 -157.5t37 -157.5t105 -113t158 -41.5t158 41.5t105 113t37 157.5t-37 157.5t-105 113
t-158 41.5t-158 -41.5zM427 126q-89 0 -142.5 57t-53.5 171q0 108 50 164t132 56q72 0 118 -45t46 -131h-90q0 92 -74 92q-44 0 -68 -32t-24 -104q0 -78 27 -111t78 -33q65 0 104 39l50 -66q-64 -57 -153 -57z" />
    <glyph glyph-name="guillemotleft" unicode="&#xab;" horiz-adv-x="588" 
d="M360 602l-189 -252l189 -252h-126l-189 252l189 252h126zM543 574l-168 -224l168 -224h-112l-169 224l169 224h112z" />
    <glyph glyph-name="registered" unicode="&#xae;" horiz-adv-x="810" 
d="M221 29.5q-82 49.5 -129 134.5t-47 186t47 186t129 134.5t184 49.5t184 -49.5t129 -134.5t47 -186t-47 -186t-129 -134.5t-184 -49.5t-184 49.5zM247 620.5q-68 -41.5 -105 -113t-37 -157.5t37 -157.5t105 -113t158 -41.5t158 41.5t105 113t37 157.5t-37 157.5t-105 113
t-158 41.5t-158 -41.5zM387 284h-42v-144h-90v420h171q60 0 99 -35.5t39 -103.5q0 -51 -22 -83.5t-61 -45.5l95 -152h-103zM461.5 378.5q12.5 10.5 12.5 42.5q0 33 -12 44t-36 11h-81v-108h81q23 0 35.5 10.5z" />
    <glyph glyph-name="macron" unicode="&#xaf;" horiz-adv-x="406" 
d="M40 805h326v-50h-326v50z" />
    <glyph glyph-name="degree" unicode="&#xb0;" horiz-adv-x="380" 
d="M114.5 440q-34.5 20 -54.5 54.5t-20 75.5q0 40 20 74.5t54.5 55t75.5 20.5t75.5 -20t54.5 -54.5t20 -75.5t-20 -75.5t-54.5 -54.5t-75.5 -20t-75.5 20zM239.5 519.5q20.5 21.5 20.5 50.5t-20.5 50.5t-49.5 21.5t-49.5 -21t-20.5 -51t20.5 -51t49.5 -21t49.5 21.5z" />
    <glyph glyph-name="acute" unicode="&#xb4;" horiz-adv-x="406" 
d="M101 783l170 92l53 -71l-203 -61z" />
    <glyph glyph-name="cedilla" unicode="&#xb8;" horiz-adv-x="316" 
d="M106.5 -142q9.5 -6 22.5 -6t21 6.5t8 17.5t-7.5 16.5t-18.5 10t-16 6.5l-11 5l29 87h62l-15 -53l10 -4q50 -20 50 -69q0 -33 -23 -51t-61 -18q-25 0 -43 6.5t-39 17.5l19 36q3 -2 12.5 -8z" />
    <glyph glyph-name="guillemotright" unicode="&#xbb;" horiz-adv-x="588" 
d="M354 98h-126l189 252l-189 252h126l189 -252zM157 126h-112l168 224l-168 224h112l169 -224z" />
    <glyph glyph-name="questiondown" unicode="&#xbf;" horiz-adv-x="623" 
d="M360.5 567.5q-27.5 -27.5 -64.5 -27.5t-64.5 27.5t-27.5 64.5q0 38 27.5 65t64.5 27q38 0 65 -27t27 -65q0 -37 -27.5 -64.5zM445.5 4.5q-66.5 -24.5 -137.5 -24.5q-69 0 -129.5 23t-98.5 72.5t-38 123.5q0 86 51.5 139.5t140.5 73.5l4 62h110l12 -179l-62 -12
q-45 -9 -75.5 -27.5t-30.5 -59.5q0 -43 34 -59.5t82 -16.5q55 0 99.5 18.5t74.5 49.5l83 -113q-53 -46 -119.5 -70.5z" />
    <glyph glyph-name="Agrave" unicode="&#xc0;" horiz-adv-x="815" 
d="M296 804l53 71l170 -92l-20 -40zM605 120h-275l-50 -120h-159l238 560h-85q-52 0 -79.5 -21.5t-27.5 -52.5q0 -26 15.5 -43.5t44.5 -17.5v-140q-101 0 -154.5 57t-53.5 144q0 97 64.5 155.5t190.5 58.5h244l297 -700h-159zM468 498l-41 -148l-38 -90h158l-38 90z" />
    <glyph glyph-name="Aacute" unicode="&#xc1;" horiz-adv-x="815" 
d="M354 783l170 92l53 -71l-203 -61zM605 120h-275l-50 -120h-159l238 560h-85q-52 0 -79.5 -21.5t-27.5 -52.5q0 -26 15.5 -43.5t44.5 -17.5v-140q-101 0 -154.5 57t-53.5 144q0 97 64.5 155.5t190.5 58.5h244l297 -700h-159zM468 498l-41 -148l-38 -90h158l-38 90z" />
    <glyph glyph-name="Acircumflex" unicode="&#xc2;" horiz-adv-x="815" 
d="M466 805l-79 -55h-66l90 98h112l90 -98h-68zM605 120h-275l-50 -120h-159l238 560h-85q-52 0 -79.5 -21.5t-27.5 -52.5q0 -26 15.5 -43.5t44.5 -17.5v-140q-101 0 -154.5 57t-53.5 144q0 97 64.5 155.5t190.5 58.5h244l297 -700h-159zM468 498l-41 -148l-38 -90h158
l-38 90z" />
    <glyph glyph-name="Atilde" unicode="&#xc3;" horiz-adv-x="815" 
d="M569.5 759q-17.5 -22 -49.5 -22q-23 0 -62 15q-26 10 -34 10q-14 0 -22 -7t-15 -24l-52 16q13 44 30.5 66.5t48.5 22.5q15 0 28 -4t34 -12q26 -10 34 -10q14 0 22 7.5t15 24.5l52 -16q-12 -45 -29.5 -67zM605 120h-275l-50 -120h-159l238 560h-85q-52 0 -79.5 -21.5
t-27.5 -52.5q0 -26 15.5 -43.5t44.5 -17.5v-140q-101 0 -154.5 57t-53.5 144q0 97 64.5 155.5t190.5 58.5h244l297 -700h-159zM468 498l-41 -148l-38 -90h158l-38 90z" />
    <glyph glyph-name="Adieresis" unicode="&#xc4;" horiz-adv-x="815" 
d="M350 754.5q-14 14.5 -14 35.5t14.5 35.5t35.5 14.5t35.5 -14.5t14.5 -35.5t-14 -35.5t-36 -14.5t-36 14.5zM506.5 754.5q-14.5 14.5 -14.5 35.5t14 35.5t36 14.5t36 -14.5t14 -35.5t-14.5 -35.5t-35.5 -14.5t-35.5 14.5zM605 120h-275l-50 -120h-159l238 560h-85
q-52 0 -79.5 -21.5t-27.5 -52.5q0 -26 15.5 -43.5t44.5 -17.5v-140q-101 0 -154.5 57t-53.5 144q0 97 64.5 155.5t190.5 58.5h244l297 -700h-159zM468 498l-41 -148l-38 -90h158l-38 90z" />
    <glyph glyph-name="Aring" unicode="&#xc5;" horiz-adv-x="815" 
d="M605 120h-275l-50 -120h-159l238 560h-85q-52 0 -79.5 -21.5t-27.5 -52.5q0 -26 15.5 -43.5t44.5 -17.5v-140q-101 0 -154.5 57t-53.5 144q0 97 64.5 155.5t190.5 58.5h134q-27 25 -27 65q0 38 25.5 63t62.5 25q38 0 63 -25t25 -63q0 -23 -9.5 -42t-26.5 -30l294 -693
h-159zM497.5 793.5q-11.5 11.5 -28.5 11.5q-16 0 -28 -11.5t-12 -28.5t11.5 -28.5t28.5 -11.5t28.5 11.5t11.5 28.5t-11.5 28.5zM468 498l-41 -148l-38 -90h158l-38 90z" />
    <glyph glyph-name="AE" unicode="&#xc6;" horiz-adv-x="1085" 
d="M579 120h-250l-50 -120h-159l237 560h-83q-52 0 -79.5 -21.5t-27.5 -52.5q0 -26 15.5 -43.5t44.5 -17.5v-140q-101 0 -154.5 57t-53.5 144q0 97 64.5 155.5t190.5 58.5h760v-140h-305v-140h255v-140h-255v-140h305v-140h-455v120zM515 560l-127 -300h191v300h-64z" />
    <glyph glyph-name="Ccedilla" unicode="&#xc7;" horiz-adv-x="660" 
d="M293.5 -142q9.5 -6 22.5 -6t21 6.5t8 17.5t-7.5 16.5t-18.5 10t-16 6.5l-11 5l22 66q-123 18 -196 112.5t-73 263.5q0 122 38.5 204.5t107 123t157.5 40.5q77 0 139 -32.5t98 -98.5t36 -163h-150q0 154 -123 154q-74 0 -113.5 -53t-39.5 -174q0 -131 45 -186t130 -55
q107 0 173 66l83 -111q-104 -94 -250 -95l-8 -28l10 -4q50 -20 50 -69q0 -33 -23 -51t-61 -18q-25 0 -43 6.5t-39 17.5l19 36q3 -2 12.5 -8z" />
    <glyph glyph-name="Egrave" unicode="&#xc8;" horiz-adv-x="800" 
d="M375 804l53 71l170 -92l-20 -40zM274 560q-52 0 -79.5 -21.5t-27.5 -52.5q0 -26 15.5 -43.5t44.5 -17.5v-140q-101 0 -154.5 57t-53.5 144q0 97 64.5 155.5t190.5 58.5h475v-140h-325v-140h275v-140h-275v-140h325v-140h-475v560z" />
    <glyph glyph-name="Eacute" unicode="&#xc9;" horiz-adv-x="800" 
d="M400 783l170 92l53 -71l-203 -61zM274 560q-52 0 -79.5 -21.5t-27.5 -52.5q0 -26 15.5 -43.5t44.5 -17.5v-140q-101 0 -154.5 57t-53.5 144q0 97 64.5 155.5t190.5 58.5h475v-140h-325v-140h275v-140h-275v-140h325v-140h-475v560z" />
    <glyph glyph-name="Ecircumflex" unicode="&#xca;" horiz-adv-x="800" 
d="M508 805l-79 -55h-66l90 98h112l90 -98h-68zM274 560q-52 0 -79.5 -21.5t-27.5 -52.5q0 -26 15.5 -43.5t44.5 -17.5v-140q-101 0 -154.5 57t-53.5 144q0 97 64.5 155.5t190.5 58.5h475v-140h-325v-140h275v-140h-275v-140h325v-140h-475v560z" />
    <glyph glyph-name="Edieresis" unicode="&#xcb;" horiz-adv-x="800" 
d="M426 754.5q-14 14.5 -14 35.5t14.5 35.5t35.5 14.5t35.5 -14.5t14.5 -35.5t-14 -35.5t-36 -14.5t-36 14.5zM582.5 754.5q-14.5 14.5 -14.5 35.5t14 35.5t36 14.5t36 -14.5t14 -35.5t-14.5 -35.5t-35.5 -14.5t-35.5 14.5zM274 560q-52 0 -79.5 -21.5t-27.5 -52.5
q0 -26 15.5 -43.5t44.5 -17.5v-140q-101 0 -154.5 57t-53.5 144q0 97 64.5 155.5t190.5 58.5h475v-140h-325v-140h275v-140h-275v-140h325v-140h-475v560z" />
    <glyph glyph-name="Igrave" unicode="&#xcc;" horiz-adv-x="499" 
d="M200 804l53 71l170 -92l-20 -40zM274 560q-52 0 -79.5 -21.5t-27.5 -52.5q0 -26 15.5 -43.5t44.5 -17.5v-140q-101 0 -154.5 57t-53.5 144q0 97 64.5 155.5t190.5 58.5h150v-700h-150v560z" />
    <glyph glyph-name="Iacute" unicode="&#xcd;" horiz-adv-x="499" 
d="M240 783l170 92l53 -71l-203 -61zM274 560q-52 0 -79.5 -21.5t-27.5 -52.5q0 -26 15.5 -43.5t44.5 -17.5v-140q-101 0 -154.5 57t-53.5 144q0 97 64.5 155.5t190.5 58.5h150v-700h-150v560z" />
    <glyph glyph-name="Icircumflex" unicode="&#xce;" horiz-adv-x="499" 
d="M350 805l-79 -55h-66l90 98h112l90 -98h-68zM274 560q-52 0 -79.5 -21.5t-27.5 -52.5q0 -26 15.5 -43.5t44.5 -17.5v-140q-101 0 -154.5 57t-53.5 144q0 97 64.5 155.5t190.5 58.5h150v-700h-150v560z" />
    <glyph glyph-name="Idieresis" unicode="&#xcf;" horiz-adv-x="499" 
d="M235 754.5q-14 14.5 -14 35.5t14.5 35.5t35.5 14.5t35.5 -14.5t14.5 -35.5t-14 -35.5t-36 -14.5t-36 14.5zM391.5 754.5q-14.5 14.5 -14.5 35.5t14 35.5t36 14.5t36 -14.5t14 -35.5t-14.5 -35.5t-35.5 -14.5t-35.5 14.5zM274 560q-52 0 -79.5 -21.5t-27.5 -52.5
q0 -26 15.5 -43.5t44.5 -17.5v-140q-101 0 -154.5 57t-53.5 144q0 97 64.5 155.5t190.5 58.5h150v-700h-150v560z" />
    <glyph glyph-name="Eth" unicode="&#xd0;" horiz-adv-x="878" 
d="M274 285h-47q-101 0 -154.5 57t-53.5 144q0 97 64.5 155.5t190.5 58.5h211q103 0 181 -38.5t122.5 -117t44.5 -194.5t-44.5 -194.5t-122.5 -117t-181 -38.5h-211v285zM194.5 538.5q-27.5 -21.5 -27.5 -52.5q0 -26 15.5 -43.5t44.5 -17.5h47v135q-52 0 -79.5 -21.5z
M631.5 188.5q51.5 48.5 51.5 161.5t-51.5 161.5t-149.5 48.5h-58v-135h136v-140h-136v-145h58q98 0 149.5 48.5z" />
    <glyph glyph-name="Ntilde" unicode="&#xd1;" horiz-adv-x="900" 
d="M651.5 759q-17.5 -22 -49.5 -22q-23 0 -62 15q-26 10 -34 10q-14 0 -22 -7t-15 -24l-52 16q13 44 30.5 66.5t48.5 22.5q15 0 28 -4t34 -12q26 -10 34 -10q14 0 22 7.5t15 24.5l52 -16q-12 -45 -29.5 -67zM424 400v-400h-150v560q-52 0 -79.5 -21.5t-27.5 -52.5
q0 -26 15.5 -43.5t44.5 -17.5v-140q-101 0 -154.5 57t-53.5 144q0 97 64.5 155.5t190.5 58.5h100l301 -400v400h150v-700h-100z" />
    <glyph glyph-name="Ograve" unicode="&#xd2;" 
d="M253 804l53 71l170 -92l-20 -40zM531 683q72 -41 113 -125t41 -208t-41 -208t-113 -125t-166 -41t-166 41t-113 125t-41 208t41 208t113 125t166 41t166 -41zM239.5 530.5q-44.5 -53.5 -44.5 -180.5t44.5 -180.5t125.5 -53.5t125.5 53.5t44.5 180.5t-44.5 180.5
t-125.5 53.5t-125.5 -53.5z" />
    <glyph glyph-name="Oacute" unicode="&#xd3;" 
d="M253 783l170 92l53 -71l-203 -61zM531 683q72 -41 113 -125t41 -208t-41 -208t-113 -125t-166 -41t-166 41t-113 125t-41 208t41 208t113 125t166 41t166 -41zM239.5 530.5q-44.5 -53.5 -44.5 -180.5t44.5 -180.5t125.5 -53.5t125.5 53.5t44.5 180.5t-44.5 180.5
t-125.5 53.5t-125.5 -53.5z" />
    <glyph glyph-name="Ocircumflex" unicode="&#xd4;" 
d="M364 805l-79 -55h-66l90 98h112l90 -98h-68zM531 683q72 -41 113 -125t41 -208t-41 -208t-113 -125t-166 -41t-166 41t-113 125t-41 208t41 208t113 125t166 41t166 -41zM239.5 530.5q-44.5 -53.5 -44.5 -180.5t44.5 -180.5t125.5 -53.5t125.5 53.5t44.5 180.5
t-44.5 180.5t-125.5 53.5t-125.5 -53.5z" />
    <glyph glyph-name="Otilde" unicode="&#xd5;" 
d="M467.5 759q-17.5 -22 -49.5 -22q-23 0 -62 15q-26 10 -34 10q-14 0 -22 -7t-15 -24l-52 16q13 44 30.5 66.5t48.5 22.5q15 0 28 -4t34 -12q26 -10 34 -10q14 0 22 7.5t15 24.5l52 -16q-12 -45 -29.5 -67zM531 683q72 -41 113 -125t41 -208t-41 -208t-113 -125t-166 -41
t-166 41t-113 125t-41 208t41 208t113 125t166 41t166 -41zM239.5 530.5q-44.5 -53.5 -44.5 -180.5t44.5 -180.5t125.5 -53.5t125.5 53.5t44.5 180.5t-44.5 180.5t-125.5 53.5t-125.5 -53.5z" />
    <glyph glyph-name="Odieresis" unicode="&#xd6;" 
d="M251 754.5q-14 14.5 -14 35.5t14.5 35.5t35.5 14.5t35.5 -14.5t14.5 -35.5t-14 -35.5t-36 -14.5t-36 14.5zM407.5 754.5q-14.5 14.5 -14.5 35.5t14 35.5t36 14.5t36 -14.5t14 -35.5t-14.5 -35.5t-35.5 -14.5t-35.5 14.5zM531 683q72 -41 113 -125t41 -208t-41 -208
t-113 -125t-166 -41t-166 41t-113 125t-41 208t41 208t113 125t166 41t166 -41zM239.5 530.5q-44.5 -53.5 -44.5 -180.5t44.5 -180.5t125.5 -53.5t125.5 53.5t44.5 180.5t-44.5 180.5t-125.5 53.5t-125.5 -53.5z" />
    <glyph glyph-name="multiply" unicode="&#xd7;" horiz-adv-x="701" 
d="M205 106l-99 99l143 143l-145 145l102 102l145 -145l144 144l99 -99l-144 -144l146 -146l-102 -102l-146 146z" />
    <glyph glyph-name="Oslash" unicode="&#xd8;" 
d="M88 136q-43 86 -43 214q0 124 41 208t113 125t166 41q100 0 176 -47l56 66l115 -96l-70 -84q43 -89 43 -213t-41 -208t-113 -125t-166 -41q-101 0 -177 47l-55 -66l-115 96zM490.5 169.5q44.5 53.5 44.5 180.5t-44.5 180.5t-125.5 53.5t-125.5 -53.5t-44.5 -180.5
t44.5 -180.5t125.5 -53.5t125.5 53.5z" />
    <glyph glyph-name="Ugrave" unicode="&#xd9;" horiz-adv-x="907" 
d="M378 804l53 71l170 -92l-20 -40zM838 700v-467q0 -82 -39 -140.5t-103.5 -87.5t-139.5 -29t-139.5 29t-103.5 87.5t-39 140.5v327q-52 0 -79.5 -21.5t-27.5 -52.5q0 -26 15.5 -43.5t44.5 -17.5v-140q-101 0 -154.5 57t-53.5 144q0 97 64.5 155.5t190.5 58.5h150v-476
q0 -57 39.5 -82.5t92.5 -25.5t92.5 25.5t39.5 82.5v476h150z" />
    <glyph glyph-name="Uacute" unicode="&#xda;" horiz-adv-x="907" 
d="M466 783l170 92l53 -71l-203 -61zM838 700v-467q0 -82 -39 -140.5t-103.5 -87.5t-139.5 -29t-139.5 29t-103.5 87.5t-39 140.5v327q-52 0 -79.5 -21.5t-27.5 -52.5q0 -26 15.5 -43.5t44.5 -17.5v-140q-101 0 -154.5 57t-53.5 144q0 97 64.5 155.5t190.5 58.5h150v-476
q0 -57 39.5 -82.5t92.5 -25.5t92.5 25.5t39.5 82.5v476h150z" />
    <glyph glyph-name="Ucircumflex" unicode="&#xdb;" horiz-adv-x="907" 
d="M558 805l-79 -55h-66l90 98h112l90 -98h-68zM838 700v-467q0 -82 -39 -140.5t-103.5 -87.5t-139.5 -29t-139.5 29t-103.5 87.5t-39 140.5v327q-52 0 -79.5 -21.5t-27.5 -52.5q0 -26 15.5 -43.5t44.5 -17.5v-140q-101 0 -154.5 57t-53.5 144q0 97 64.5 155.5t190.5 58.5
h150v-476q0 -57 39.5 -82.5t92.5 -25.5t92.5 25.5t39.5 82.5v476h150z" />
    <glyph glyph-name="Udieresis" unicode="&#xdc;" horiz-adv-x="907" 
d="M448 754.5q-14 14.5 -14 35.5t14.5 35.5t35.5 14.5t35.5 -14.5t14.5 -35.5t-14 -35.5t-36 -14.5t-36 14.5zM604.5 754.5q-14.5 14.5 -14.5 35.5t14 35.5t36 14.5t36 -14.5t14 -35.5t-14.5 -35.5t-35.5 -14.5t-35.5 14.5zM838 700v-467q0 -82 -39 -140.5t-103.5 -87.5
t-139.5 -29t-139.5 29t-103.5 87.5t-39 140.5v327q-52 0 -79.5 -21.5t-27.5 -52.5q0 -26 15.5 -43.5t44.5 -17.5v-140q-101 0 -154.5 57t-53.5 144q0 97 64.5 155.5t190.5 58.5h150v-476q0 -57 39.5 -82.5t92.5 -25.5t92.5 25.5t39.5 82.5v476h150z" />
    <glyph glyph-name="Yacute" unicode="&#xdd;" horiz-adv-x="819" 
d="M395 783l170 92l53 -71l-203 -61zM432 271l-159 289q-52 -1 -79 -22t-27 -52q0 -26 15.5 -43.5t44.5 -17.5v-140q-101 0 -154.5 57t-53.5 144q0 97 64.5 155.5t190.5 58.5h88l145 -283l146 283h166l-237 -429v-271h-150v271z" />
    <glyph glyph-name="Thorn" unicode="&#xde;" horiz-adv-x="612" 
d="M225 0h-150v700h150v-120h135q64 0 116 -25t83 -77t31 -129q0 -114 -64 -171.5t-166 -57.5h-135v-120zM418.5 277.5q21.5 17.5 21.5 71.5t-21 72.5t-59 18.5h-135v-180h135q37 0 58.5 17.5z" />
    <glyph glyph-name="germandbls" unicode="&#xdf;" horiz-adv-x="634" 
d="M299 140h42q49 0 73.5 19.5t24.5 65.5q0 48 -24.5 66.5t-65.5 18.5h-50v141h33q27 0 44 15t17 48q0 70 -80 70q-46 0 -67 -29t-21 -105v-450h-150v450q0 136 63.5 205t171.5 69q66 0 119.5 -26t83.5 -73.5t30 -110.5q0 -85 -56 -125q102 -41 102 -162q0 -70 -32.5 -121.5
t-90 -78.5t-130.5 -27h-37v140z" />
    <glyph glyph-name="agrave" unicode="&#xe0;" horiz-adv-x="694" 
d="M235 804l53 71l170 -92l-20 -40zM484 120h-275l-50 -120h-159l297 700h100l297 -700h-159zM347 498l-41 -148l-38 -90h158l-38 90z" />
    <glyph glyph-name="aacute" unicode="&#xe1;" horiz-adv-x="694" 
d="M235 783l170 92l53 -71l-203 -61zM484 120h-275l-50 -120h-159l297 700h100l297 -700h-159zM347 498l-41 -148l-38 -90h158l-38 90z" />
    <glyph glyph-name="acircumflex" unicode="&#xe2;" horiz-adv-x="694" 
d="M346 805l-79 -55h-66l90 98h112l90 -98h-68zM484 120h-275l-50 -120h-159l297 700h100l297 -700h-159zM347 498l-41 -148l-38 -90h158l-38 90z" />
    <glyph glyph-name="atilde" unicode="&#xe3;" horiz-adv-x="694" 
d="M449.5 759q-17.5 -22 -49.5 -22q-23 0 -62 15q-26 10 -34 10q-14 0 -22 -7t-15 -24l-52 16q13 44 30.5 66.5t48.5 22.5q15 0 28 -4t34 -12q26 -10 34 -10q14 0 22 7.5t15 24.5l52 -16q-12 -45 -29.5 -67zM484 120h-275l-50 -120h-159l297 700h100l297 -700h-159zM347 498
l-41 -148l-38 -90h158l-38 90z" />
    <glyph glyph-name="adieresis" unicode="&#xe4;" horiz-adv-x="694" 
d="M233 754.5q-14 14.5 -14 35.5t14.5 35.5t35.5 14.5t35.5 -14.5t14.5 -35.5t-14 -35.5t-36 -14.5t-36 14.5zM389.5 754.5q-14.5 14.5 -14.5 35.5t14 35.5t36 14.5t36 -14.5t14 -35.5t-14.5 -35.5t-35.5 -14.5t-35.5 14.5zM484 120h-275l-50 -120h-159l297 700h100
l297 -700h-159zM347 498l-41 -148l-38 -90h158l-38 90z" />
    <glyph glyph-name="aring" unicode="&#xe5;" horiz-adv-x="694" 
d="M484 120h-275l-50 -120h-159l293 690q-18 12 -28.5 31.5t-10.5 43.5q0 38 25.5 63t62.5 25q38 0 63 -25t25 -63q0 -21 -8.5 -39t-23.5 -30l296 -696h-159zM370.5 793.5q-11.5 11.5 -28.5 11.5q-16 0 -28 -11.5t-12 -28.5t11.5 -28.5t28.5 -11.5t28.5 11.5t11.5 28.5
t-11.5 28.5zM347 498l-41 -148l-38 -90h158l-38 90z" />
    <glyph glyph-name="ae" unicode="&#xe6;" horiz-adv-x="964" 
d="M458 120h-249l-50 -120h-159l297 700h616v-140h-305v-140h255v-140h-255v-140h305v-140h-455v120zM395 560l-127 -300h190v300h-63z" />
    <glyph glyph-name="ccedilla" unicode="&#xe7;" horiz-adv-x="660" 
d="M283.5 -142q9.5 -6 22.5 -6t21 6.5t8 17.5t-7.5 16.5t-18.5 10t-16 6.5l-11 5l22 68q-119 20 -189 114t-70 260q0 122 38.5 204.5t107 123t157.5 40.5q77 0 139 -32.5t98 -98.5t36 -163h-150q0 154 -123 154q-74 0 -113.5 -53t-39.5 -174q0 -131 45 -186t130 -55
q107 0 173 66l83 -111q-107 -95 -254 -95h-6l-8 -28l10 -4q50 -20 50 -69q0 -33 -23 -51t-61 -18q-25 0 -43 6.5t-39 17.5l19 36q3 -2 12.5 -8z" />
    <glyph glyph-name="egrave" unicode="&#xe8;" horiz-adv-x="601" 
d="M189 804l53 71l170 -92l-20 -40zM75 700h475v-140h-325v-140h275v-140h-275v-140h325v-140h-475v700z" />
    <glyph glyph-name="eacute" unicode="&#xe9;" horiz-adv-x="601" 
d="M189 783l170 92l53 -71l-203 -61zM75 700h475v-140h-325v-140h275v-140h-275v-140h325v-140h-475v700z" />
    <glyph glyph-name="ecircumflex" unicode="&#xea;" horiz-adv-x="601" 
d="M299 805l-79 -55h-66l90 98h112l90 -98h-68zM75 700h475v-140h-325v-140h275v-140h-275v-140h325v-140h-475v700z" />
    <glyph glyph-name="edieresis" unicode="&#xeb;" horiz-adv-x="601" 
d="M186 754.5q-14 14.5 -14 35.5t14.5 35.5t35.5 14.5t35.5 -14.5t14.5 -35.5t-14 -35.5t-36 -14.5t-36 14.5zM342.5 754.5q-14.5 14.5 -14.5 35.5t14 35.5t36 14.5t36 -14.5t14 -35.5t-14.5 -35.5t-35.5 -14.5t-35.5 14.5zM75 700h475v-140h-325v-140h275v-140h-275v-140
h325v-140h-475v700z" />
    <glyph glyph-name="igrave" unicode="&#xec;" horiz-adv-x="300" 
d="M39 804l53 71l170 -92l-20 -40zM75 700h150v-700h-150v700z" />
    <glyph glyph-name="iacute" unicode="&#xed;" horiz-adv-x="300" 
d="M39 783l170 92l53 -71l-203 -61zM75 700h150v-700h-150v700z" />
    <glyph glyph-name="icircumflex" unicode="&#xee;" horiz-adv-x="300" 
d="M149 805l-79 -55h-66l90 98h112l90 -98h-68zM75 700h150v-700h-150v700z" />
    <glyph glyph-name="idieresis" unicode="&#xef;" horiz-adv-x="300" 
d="M36 754.5q-14 14.5 -14 35.5t14.5 35.5t35.5 14.5t35.5 -14.5t14.5 -35.5t-14 -35.5t-36 -14.5t-36 14.5zM192.5 754.5q-14.5 14.5 -14.5 35.5t14 35.5t36 14.5t36 -14.5t14 -35.5t-14.5 -35.5t-35.5 -14.5t-35.5 14.5zM75 700h150v-700h-150v700z" />
    <glyph glyph-name="eth" unicode="&#xf0;" horiz-adv-x="700" 
d="M96 285h-77v140h77v275h211q103 0 181 -38.5t122.5 -117t44.5 -194.5t-44.5 -194.5t-122.5 -117t-181 -38.5h-211v285zM453.5 188.5q51.5 48.5 51.5 161.5t-51.5 161.5t-149.5 48.5h-58v-135h136v-140h-136v-145h58q98 0 149.5 48.5z" />
    <glyph glyph-name="ntilde" unicode="&#xf1;" horiz-adv-x="701" 
d="M452.5 759q-17.5 -22 -49.5 -22q-23 0 -62 15q-26 10 -34 10q-14 0 -22 -7t-15 -24l-52 16q13 44 30.5 66.5t48.5 22.5q15 0 28 -4t34 -12q26 -10 34 -10q14 0 22 7.5t15 24.5l52 -16q-12 -45 -29.5 -67zM225 400v-400h-150v700h100l301 -400v400h150v-700h-100z" />
    <glyph glyph-name="ograve" unicode="&#xf2;" 
d="M253 804l53 71l170 -92l-20 -40zM531 683q72 -41 113 -125t41 -208t-41 -208t-113 -125t-166 -41t-166 41t-113 125t-41 208t41 208t113 125t166 41t166 -41zM239.5 530.5q-44.5 -53.5 -44.5 -180.5t44.5 -180.5t125.5 -53.5t125.5 53.5t44.5 180.5t-44.5 180.5
t-125.5 53.5t-125.5 -53.5z" />
    <glyph glyph-name="oacute" unicode="&#xf3;" 
d="M253 783l170 92l53 -71l-203 -61zM531 683q72 -41 113 -125t41 -208t-41 -208t-113 -125t-166 -41t-166 41t-113 125t-41 208t41 208t113 125t166 41t166 -41zM239.5 530.5q-44.5 -53.5 -44.5 -180.5t44.5 -180.5t125.5 -53.5t125.5 53.5t44.5 180.5t-44.5 180.5
t-125.5 53.5t-125.5 -53.5z" />
    <glyph glyph-name="ocircumflex" unicode="&#xf4;" 
d="M364 805l-79 -55h-66l90 98h112l90 -98h-68zM531 683q72 -41 113 -125t41 -208t-41 -208t-113 -125t-166 -41t-166 41t-113 125t-41 208t41 208t113 125t166 41t166 -41zM239.5 530.5q-44.5 -53.5 -44.5 -180.5t44.5 -180.5t125.5 -53.5t125.5 53.5t44.5 180.5
t-44.5 180.5t-125.5 53.5t-125.5 -53.5z" />
    <glyph glyph-name="otilde" unicode="&#xf5;" 
d="M467.5 759q-17.5 -22 -49.5 -22q-23 0 -62 15q-26 10 -34 10q-14 0 -22 -7t-15 -24l-52 16q13 44 30.5 66.5t48.5 22.5q15 0 28 -4t34 -12q26 -10 34 -10q14 0 22 7.5t15 24.5l52 -16q-12 -45 -29.5 -67zM531 683q72 -41 113 -125t41 -208t-41 -208t-113 -125t-166 -41
t-166 41t-113 125t-41 208t41 208t113 125t166 41t166 -41zM239.5 530.5q-44.5 -53.5 -44.5 -180.5t44.5 -180.5t125.5 -53.5t125.5 53.5t44.5 180.5t-44.5 180.5t-125.5 53.5t-125.5 -53.5z" />
    <glyph glyph-name="odieresis" unicode="&#xf6;" 
d="M251 754.5q-14 14.5 -14 35.5t14.5 35.5t35.5 14.5t35.5 -14.5t14.5 -35.5t-14 -35.5t-36 -14.5t-36 14.5zM407.5 754.5q-14.5 14.5 -14.5 35.5t14 35.5t36 14.5t36 -14.5t14 -35.5t-14.5 -35.5t-35.5 -14.5t-35.5 14.5zM531 683q72 -41 113 -125t41 -208t-41 -208
t-113 -125t-166 -41t-166 41t-113 125t-41 208t41 208t113 125t166 41t166 -41zM239.5 530.5q-44.5 -53.5 -44.5 -180.5t44.5 -180.5t125.5 -53.5t125.5 53.5t44.5 180.5t-44.5 180.5t-125.5 53.5t-125.5 -53.5z" />
    <glyph glyph-name="oslash" unicode="&#xf8;" 
d="M88 136q-43 86 -43 214q0 124 41 208t113 125t166 41q100 0 176 -47l56 66l115 -96l-70 -84q43 -89 43 -213t-41 -208t-113 -125t-166 -41q-101 0 -177 47l-55 -66l-115 96zM490.5 169.5q44.5 53.5 44.5 180.5t-44.5 180.5t-125.5 53.5t-125.5 -53.5t-44.5 -180.5
t44.5 -180.5t125.5 -53.5t125.5 53.5z" />
    <glyph glyph-name="ugrave" unicode="&#xf9;" horiz-adv-x="702" 
d="M239 804l53 71l170 -92l-20 -40zM633 700v-467q0 -82 -39 -140.5t-103.5 -87.5t-139.5 -29t-139.5 29t-103.5 87.5t-39 140.5v467h150v-476q0 -57 39.5 -82.5t92.5 -25.5t92.5 25.5t39.5 82.5v476h150z" />
    <glyph glyph-name="uacute" unicode="&#xfa;" horiz-adv-x="702" 
d="M239 783l170 92l53 -71l-203 -61zM633 700v-467q0 -82 -39 -140.5t-103.5 -87.5t-139.5 -29t-139.5 29t-103.5 87.5t-39 140.5v467h150v-476q0 -57 39.5 -82.5t92.5 -25.5t92.5 25.5t39.5 82.5v476h150z" />
    <glyph glyph-name="ucircumflex" unicode="&#xfb;" horiz-adv-x="702" 
d="M350 805l-79 -55h-66l90 98h112l90 -98h-68zM633 700v-467q0 -82 -39 -140.5t-103.5 -87.5t-139.5 -29t-139.5 29t-103.5 87.5t-39 140.5v467h150v-476q0 -57 39.5 -82.5t92.5 -25.5t92.5 25.5t39.5 82.5v476h150z" />
    <glyph glyph-name="udieresis" unicode="&#xfc;" horiz-adv-x="702" 
d="M237 754.5q-14 14.5 -14 35.5t14.5 35.5t35.5 14.5t35.5 -14.5t14.5 -35.5t-14 -35.5t-36 -14.5t-36 14.5zM393.5 754.5q-14.5 14.5 -14.5 35.5t14 35.5t36 14.5t36 -14.5t14 -35.5t-14.5 -35.5t-35.5 -14.5t-35.5 14.5zM633 700v-467q0 -82 -39 -140.5t-103.5 -87.5
t-139.5 -29t-139.5 29t-103.5 87.5t-39 140.5v467h150v-476q0 -57 39.5 -82.5t92.5 -25.5t92.5 25.5t39.5 82.5v476h150z" />
    <glyph glyph-name="yacute" unicode="&#xfd;" horiz-adv-x="623" 
d="M200 783l170 92l53 -71l-203 -61zM236 271l-236 429h166l145 -283l146 283h166l-237 -429v-271h-150v271z" />
    <glyph glyph-name="thorn" unicode="&#xfe;" horiz-adv-x="612" 
d="M225 0h-150v700h150v-120h135q64 0 116 -25t83 -77t31 -129q0 -114 -64 -171.5t-166 -57.5h-135v-120zM418.5 277.5q21.5 17.5 21.5 71.5t-21 72.5t-59 18.5h-135v-180h135q37 0 58.5 17.5z" />
    <glyph glyph-name="ydieresis" unicode="&#xff;" horiz-adv-x="623" 
d="M197 754.5q-14 14.5 -14 35.5t14.5 35.5t35.5 14.5t35.5 -14.5t14.5 -35.5t-14 -35.5t-36 -14.5t-36 14.5zM353.5 754.5q-14.5 14.5 -14.5 35.5t14 35.5t36 14.5t36 -14.5t14 -35.5t-14.5 -35.5t-35.5 -14.5t-35.5 14.5zM236 271l-236 429h166l145 -283l146 283h166
l-237 -429v-271h-150v271z" />
    <glyph glyph-name="Amacron" unicode="&#x100;" horiz-adv-x="815" 
d="M305 805h326v-50h-326v50zM605 120h-275l-50 -120h-159l238 560h-85q-52 0 -79.5 -21.5t-27.5 -52.5q0 -26 15.5 -43.5t44.5 -17.5v-140q-101 0 -154.5 57t-53.5 144q0 97 64.5 155.5t190.5 58.5h244l297 -700h-159zM468 498l-41 -148l-38 -90h158l-38 90z" />
    <glyph glyph-name="amacron" unicode="&#x101;" horiz-adv-x="694" 
d="M184 805h326v-50h-326v50zM484 120h-275l-50 -120h-159l297 700h100l297 -700h-159zM347 498l-41 -148l-38 -90h158l-38 90z" />
    <glyph glyph-name="Abreve" unicode="&#x102;" horiz-adv-x="815" 
d="M466 740q-76 0 -130 49l43 57q31 -34 89 -34q53 0 86 34l42 -57q-54 -49 -130 -49zM605 120h-275l-50 -120h-159l238 560h-85q-52 0 -79.5 -21.5t-27.5 -52.5q0 -26 15.5 -43.5t44.5 -17.5v-140q-101 0 -154.5 57t-53.5 144q0 97 64.5 155.5t190.5 58.5h244l297 -700
h-159zM468 498l-41 -148l-38 -90h158l-38 90z" />
    <glyph glyph-name="abreve" unicode="&#x103;" horiz-adv-x="694" 
d="M346 740q-76 0 -130 49l43 57q31 -34 89 -34q53 0 86 34l42 -57q-54 -49 -130 -49zM484 120h-275l-50 -120h-159l297 700h100l297 -700h-159zM347 498l-41 -148l-38 -90h158l-38 90z" />
    <glyph glyph-name="Aogonek" unicode="&#x104;" horiz-adv-x="815" 
d="M752 -166q-34 0 -53.5 20t-19.5 52q0 56 60 94h-83l-51 120h-275l-50 -120h-159l238 560h-85q-52 0 -79.5 -21.5t-27.5 -52.5q0 -26 15.5 -43.5t44.5 -17.5v-140q-101 0 -154.5 57t-53.5 144q0 97 64.5 155.5t190.5 58.5h244l297 -700q-25 -16 -43.5 -33t-18.5 -44
q0 -33 38 -33q8 0 20 2l7 -43q-34 -15 -66 -15zM468 498l-41 -148l-38 -90h158l-38 90z" />
    <glyph glyph-name="aogonek" unicode="&#x105;" horiz-adv-x="694" 
d="M631 -166q-34 0 -53.5 20t-19.5 52q0 56 60 94h-83l-51 120h-275l-50 -120h-159l297 700h100l297 -700q-25 -16 -43.5 -33t-18.5 -44q0 -33 38 -33q8 0 20 2l7 -43q-34 -15 -66 -15zM347 498l-41 -148l-38 -90h158l-38 90z" />
    <glyph glyph-name="Cacute" unicode="&#x106;" horiz-adv-x="660" 
d="M266 783l170 92l53 -71l-203 -61zM372 -24q-96 0 -169.5 41.5t-115.5 126.5t-42 212q0 122 38.5 204.5t107 123t157.5 40.5q77 0 139 -32.5t98 -98.5t36 -163h-150q0 154 -123 154q-74 0 -113.5 -53t-39.5 -174q0 -131 45 -186t130 -55q107 0 173 66l83 -111
q-107 -95 -254 -95z" />
    <glyph glyph-name="cacute" unicode="&#x107;" horiz-adv-x="660" 
d="M223 783l170 92l53 -71l-203 -61zM372 -24q-96 0 -169.5 41.5t-115.5 126.5t-42 212q0 122 38.5 204.5t107 123t157.5 40.5q77 0 139 -32.5t98 -98.5t36 -163h-150q0 154 -123 154q-74 0 -113.5 -53t-39.5 -174q0 -131 45 -186t130 -55q107 0 173 66l83 -111
q-107 -95 -254 -95z" />
    <glyph glyph-name="Ccaron" unicode="&#x10c;" horiz-adv-x="660" 
d="M215 848h66l79 -55l79 55h68l-90 -98h-112zM372 -24q-96 0 -169.5 41.5t-115.5 126.5t-42 212q0 122 38.5 204.5t107 123t157.5 40.5q77 0 139 -32.5t98 -98.5t36 -163h-150q0 154 -123 154q-74 0 -113.5 -53t-39.5 -174q0 -131 45 -186t130 -55q107 0 173 66l83 -111
q-107 -95 -254 -95z" />
    <glyph glyph-name="ccaron" unicode="&#x10d;" horiz-adv-x="660" 
d="M189 848h66l79 -55l79 55h68l-90 -98h-112zM372 -24q-96 0 -169.5 41.5t-115.5 126.5t-42 212q0 122 38.5 204.5t107 123t157.5 40.5q77 0 139 -32.5t98 -98.5t36 -163h-150q0 154 -123 154q-74 0 -113.5 -53t-39.5 -174q0 -131 45 -186t130 -55q107 0 173 66l83 -111
q-107 -95 -254 -95z" />
    <glyph glyph-name="Dcaron" unicode="&#x10e;" horiz-adv-x="878" 
d="M353 848h66l79 -55l79 55h68l-90 -98h-112zM274 560q-52 0 -79.5 -21.5t-27.5 -52.5q0 -26 15.5 -43.5t44.5 -17.5v-140q-101 0 -154.5 57t-53.5 144q0 97 64.5 155.5t190.5 58.5h211q103 0 181 -38.5t122.5 -117t44.5 -194.5t-44.5 -194.5t-122.5 -117t-181 -38.5h-211
v560zM631.5 188.5q51.5 48.5 51.5 161.5t-51.5 161.5t-149.5 48.5h-58v-420h58q98 0 149.5 48.5z" />
    <glyph glyph-name="dcaron" unicode="&#x10f;" horiz-adv-x="679" 
d="M193 848h66l79 -55l79 55h68l-90 -98h-112zM75 700h211q103 0 181 -38.5t122.5 -117t44.5 -194.5t-44.5 -194.5t-122.5 -117t-181 -38.5h-211v700zM432.5 188.5q51.5 48.5 51.5 161.5t-51.5 161.5t-149.5 48.5h-58v-420h58q98 0 149.5 48.5z" />
    <glyph glyph-name="Dcroat" unicode="&#x110;" horiz-adv-x="878" 
d="M274 285h-47q-101 0 -154.5 57t-53.5 144q0 97 64.5 155.5t190.5 58.5h211q103 0 181 -38.5t122.5 -117t44.5 -194.5t-44.5 -194.5t-122.5 -117t-181 -38.5h-211v285zM194.5 538.5q-27.5 -21.5 -27.5 -52.5q0 -26 15.5 -43.5t44.5 -17.5h47v135q-52 0 -79.5 -21.5z
M631.5 188.5q51.5 48.5 51.5 161.5t-51.5 161.5t-149.5 48.5h-58v-135h136v-140h-136v-145h58q98 0 149.5 48.5z" />
    <glyph glyph-name="dcroat" unicode="&#x111;" horiz-adv-x="700" 
d="M96 285h-77v140h77v275h211q103 0 181 -38.5t122.5 -117t44.5 -194.5t-44.5 -194.5t-122.5 -117t-181 -38.5h-211v285zM453.5 188.5q51.5 48.5 51.5 161.5t-51.5 161.5t-149.5 48.5h-58v-135h136v-140h-136v-145h58q98 0 149.5 48.5z" />
    <glyph glyph-name="Emacron" unicode="&#x112;" horiz-adv-x="800" 
d="M355 805h326v-50h-326v50zM274 560q-52 0 -79.5 -21.5t-27.5 -52.5q0 -26 15.5 -43.5t44.5 -17.5v-140q-101 0 -154.5 57t-53.5 144q0 97 64.5 155.5t190.5 58.5h475v-140h-325v-140h275v-140h-275v-140h325v-140h-475v560z" />
    <glyph glyph-name="emacron" unicode="&#x113;" horiz-adv-x="601" 
d="M137 805h326v-50h-326v50zM75 700h475v-140h-325v-140h275v-140h-275v-140h325v-140h-475v700z" />
    <glyph glyph-name="ebreve" unicode="&#x115;" horiz-adv-x="601" 
d="M300 740q-76 0 -130 49l43 57q31 -34 89 -34q53 0 86 34l42 -57q-54 -49 -130 -49zM75 700h475v-140h-325v-140h275v-140h-275v-140h325v-140h-475v700z" />
    <glyph glyph-name="Edotaccent" unicode="&#x116;" horiz-adv-x="800" 
d="M488 749.5q-14 14.5 -14 35.5t14.5 35.5t35.5 14.5t35.5 -14.5t14.5 -35.5t-14 -35.5t-36 -14.5t-36 14.5zM274 560q-52 0 -79.5 -21.5t-27.5 -52.5q0 -26 15.5 -43.5t44.5 -17.5v-140q-101 0 -154.5 57t-53.5 144q0 97 64.5 155.5t190.5 58.5h475v-140h-325v-140h275
v-140h-275v-140h325v-140h-475v560z" />
    <glyph glyph-name="edotaccent" unicode="&#x117;" horiz-adv-x="601" 
d="M264 749.5q-14 14.5 -14 35.5t14.5 35.5t35.5 14.5t35.5 -14.5t14.5 -35.5t-14 -35.5t-36 -14.5t-36 14.5zM75 700h475v-140h-325v-140h275v-140h-275v-140h325v-140h-475v700z" />
    <glyph glyph-name="Eogonek" unicode="&#x118;" horiz-adv-x="800" 
d="M686 -166q-34 0 -53.5 20t-19.5 52q0 56 60 94h-399v560q-52 0 -79.5 -21.5t-27.5 -52.5q0 -26 15.5 -43.5t44.5 -17.5v-140q-101 0 -154.5 57t-53.5 144q0 97 64.5 155.5t190.5 58.5h475v-140h-325v-140h275v-140h-275v-140h325v-140q-25 -16 -43.5 -33t-18.5 -44
q0 -33 38 -33q8 0 20 2l7 -43q-34 -15 -66 -15z" />
    <glyph glyph-name="eogonek" unicode="&#x119;" horiz-adv-x="601" 
d="M487 -166q-34 0 -53.5 20t-19.5 52q0 56 60 94h-399v700h475v-140h-325v-140h275v-140h-275v-140h325v-140q-25 -16 -43.5 -33t-18.5 -44q0 -33 38 -33q8 0 20 2l7 -43q-34 -15 -66 -15z" />
    <glyph glyph-name="Ecaron" unicode="&#x11a;" horiz-adv-x="800" 
d="M359 848h66l79 -55l79 55h68l-90 -98h-112zM274 560q-52 0 -79.5 -21.5t-27.5 -52.5q0 -26 15.5 -43.5t44.5 -17.5v-140q-101 0 -154.5 57t-53.5 144q0 97 64.5 155.5t190.5 58.5h475v-140h-325v-140h275v-140h-275v-140h325v-140h-475v560z" />
    <glyph glyph-name="ecaron" unicode="&#x11b;" horiz-adv-x="601" 
d="M154 848h66l79 -55l79 55h68l-90 -98h-112zM75 700h475v-140h-325v-140h275v-140h-275v-140h325v-140h-475v700z" />
    <glyph glyph-name="Gbreve" unicode="&#x11e;" horiz-adv-x="700" 
d="M364 740q-76 0 -130 49l43 57q31 -34 89 -34q53 0 86 34l42 -57q-54 -49 -130 -49zM544 29q-89 -53 -196 -53q-89 0 -157.5 40.5t-107 123t-38.5 204.5q0 127 42 212t115.5 126.5t169.5 41.5q147 0 254 -95l-83 -111q-66 66 -173 66q-85 0 -130 -55t-45 -186
q0 -121 39.5 -174t113.5 -53q77 0 133 42v122h-118v140h268v-421h-71z" />
    <glyph glyph-name="gbreve" unicode="&#x11f;" horiz-adv-x="700" 
d="M363 740q-76 0 -130 49l43 57q31 -34 89 -34q53 0 86 34l42 -57q-54 -49 -130 -49zM544 29q-89 -53 -196 -53q-89 0 -157.5 40.5t-107 123t-38.5 204.5q0 127 42 212t115.5 126.5t169.5 41.5q147 0 254 -95l-83 -111q-66 66 -173 66q-85 0 -130 -55t-45 -186
q0 -121 39.5 -174t113.5 -53q77 0 133 42v122h-118v140h268v-421h-71z" />
    <glyph glyph-name="uni0122" unicode="&#x122;" horiz-adv-x="700" 
d="M544 29q-89 -53 -196 -53q-89 0 -157.5 40.5t-107 123t-38.5 204.5q0 127 42 212t115.5 126.5t169.5 41.5q147 0 254 -95l-83 -111q-66 66 -173 66q-85 0 -130 -55t-45 -186q0 -121 39.5 -174t113.5 -53q77 0 133 42v122h-118v140h268v-421h-71zM362 -143q-19 0 -32 13.5
t-13 32.5t13.5 33t32.5 14t32.5 -14t13.5 -33q0 -64 -54 -118l-28 24q26 29 35 48z" />
    <glyph glyph-name="uni0123" unicode="&#x123;" horiz-adv-x="700" 
d="M544 29q-89 -53 -196 -53q-89 0 -157.5 40.5t-107 123t-38.5 204.5q0 127 42 212t115.5 126.5t169.5 41.5q147 0 254 -95l-83 -111q-66 66 -173 66q-85 0 -130 -55t-45 -186q0 -121 39.5 -174t113.5 -53q77 0 133 42v122h-118v140h268v-421h-71zM362 -143q-19 0 -32 13.5
t-13 32.5t13.5 33t32.5 14t32.5 -14t13.5 -33q0 -64 -54 -118l-28 24q26 29 35 48z" />
    <glyph glyph-name="Imacron" unicode="&#x12a;" horiz-adv-x="499" 
d="M187 805h326v-50h-326v50zM274 560q-52 0 -79.5 -21.5t-27.5 -52.5q0 -26 15.5 -43.5t44.5 -17.5v-140q-101 0 -154.5 57t-53.5 144q0 97 64.5 155.5t190.5 58.5h150v-700h-150v560z" />
    <glyph glyph-name="imacron" unicode="&#x12b;" horiz-adv-x="300" 
d="M-13 805h326v-50h-326v50zM75 700h150v-700h-150v700z" />
    <glyph glyph-name="Iogonek" unicode="&#x12e;" horiz-adv-x="499" 
d="M361 -166q-34 0 -53.5 20t-19.5 52q0 56 60 94h-74v560q-52 0 -79.5 -21.5t-27.5 -52.5q0 -26 15.5 -43.5t44.5 -17.5v-140q-101 0 -154.5 57t-53.5 144q0 97 64.5 155.5t190.5 58.5h150v-700q-25 -16 -43.5 -33t-18.5 -44q0 -33 38 -33q8 0 20 2l7 -43q-34 -15 -66 -15z
" />
    <glyph glyph-name="iogonek" unicode="&#x12f;" horiz-adv-x="300" 
d="M162 -166q-34 0 -53.5 20t-19.5 52q0 56 60 94h-74v700h150v-700q-25 -16 -43.5 -33t-18.5 -44q0 -33 38 -33q8 0 20 2l7 -43q-34 -15 -66 -15z" />
    <glyph glyph-name="Idotaccent" unicode="&#x130;" horiz-adv-x="499" 
d="M313 749.5q-14 14.5 -14 35.5t14.5 35.5t35.5 14.5t35.5 -14.5t14.5 -35.5t-14 -35.5t-36 -14.5t-36 14.5zM274 560q-52 0 -79.5 -21.5t-27.5 -52.5q0 -26 15.5 -43.5t44.5 -17.5v-140q-101 0 -154.5 57t-53.5 144q0 97 64.5 155.5t190.5 58.5h150v-700h-150v560z" />
    <glyph glyph-name="dotlessi" unicode="&#x131;" horiz-adv-x="300" 
d="M75 700h150v-700h-150v700z" />
    <glyph glyph-name="uni0136" unicode="&#x136;" horiz-adv-x="843" 
d="M424 299v-299h-150v560q-52 0 -79.5 -21.5t-27.5 -52.5q0 -26 15.5 -43.5t44.5 -17.5v-140q-101 0 -154.5 57t-53.5 144q0 97 64.5 155.5t190.5 58.5h150v-300l226 300h175l-263 -350l263 -350h-175zM533 -143q-19 0 -32 13.5t-13 32.5t13.5 33t32.5 14t32.5 -14
t13.5 -33q0 -64 -54 -118l-28 24q26 29 35 48z" />
    <glyph glyph-name="uni0137" unicode="&#x137;" horiz-adv-x="644" 
d="M225 299v-299h-150v700h150v-300l226 300h175l-263 -350l263 -350h-175zM321 -143q-19 0 -32 13.5t-13 32.5t13.5 33t32.5 14t32.5 -14t13.5 -33q0 -64 -54 -118l-28 24q26 29 35 48z" />
    <glyph glyph-name="Lacute" unicode="&#x139;" horiz-adv-x="716" 
d="M246 783l170 92l53 -71l-203 -61zM274 560q-52 0 -79.5 -21.5t-27.5 -52.5q0 -26 15.5 -43.5t44.5 -17.5v-140q-101 0 -154.5 57t-53.5 144q0 97 64.5 155.5t190.5 58.5h150v-560h275v-140h-425v560z" />
    <glyph glyph-name="lacute" unicode="&#x13a;" horiz-adv-x="517" 
d="M147 783l170 92l53 -71l-203 -61zM75 0v700h150v-560h275v-140h-425z" />
    <glyph glyph-name="uni013B" unicode="&#x13b;" horiz-adv-x="716" 
d="M274 560q-52 0 -79.5 -21.5t-27.5 -52.5q0 -26 15.5 -43.5t44.5 -17.5v-140q-101 0 -154.5 57t-53.5 144q0 97 64.5 155.5t190.5 58.5h150v-560h275v-140h-425v560zM505 -143q-19 0 -32 13.5t-13 32.5t13.5 33t32.5 14t32.5 -14t13.5 -33q0 -64 -54 -118l-28 24
q26 29 35 48z" />
    <glyph glyph-name="uni013C" unicode="&#x13c;" horiz-adv-x="517" 
d="M75 0v700h150v-560h275v-140h-425zM297 -143q-19 0 -32 13.5t-13 32.5t13.5 33t32.5 14t32.5 -14t13.5 -33q0 -64 -54 -118l-28 24q26 29 35 48z" />
    <glyph glyph-name="Lcaron" unicode="&#x13d;" horiz-adv-x="716" 
d="M205 848h66l79 -55l79 55h68l-90 -98h-112zM274 560q-52 0 -79.5 -21.5t-27.5 -52.5q0 -26 15.5 -43.5t44.5 -17.5v-140q-101 0 -154.5 57t-53.5 144q0 97 64.5 155.5t190.5 58.5h150v-560h275v-140h-425v560z" />
    <glyph glyph-name="lcaron" unicode="&#x13e;" horiz-adv-x="517" 
d="M6 848h66l79 -55l79 55h68l-90 -98h-112zM75 0v700h150v-560h275v-140h-425z" />
    <glyph glyph-name="Lslash" unicode="&#x141;" horiz-adv-x="716" 
d="M274 231l-73 -51l-57 82l37 26q-79 13 -120.5 67.5t-41.5 130.5q0 97 64.5 155.5t190.5 58.5h150v-243l90 63l57 -82l-147 -103v-195h275v-140h-425v231zM194.5 538.5q-27.5 -21.5 -27.5 -52.5q0 -26 15.5 -43.5t44.5 -17.5v-105l47 33v207q-52 0 -79.5 -21.5z" />
    <glyph glyph-name="lslash" unicode="&#x142;" horiz-adv-x="572" 
d="M130 231l-73 -51l-57 82l130 90v348h150v-243l90 63l57 -82l-147 -103v-195h275v-140h-425v231z" />
    <glyph glyph-name="Nacute" unicode="&#x143;" horiz-adv-x="900" 
d="M446 783l170 92l53 -71l-203 -61zM424 400v-400h-150v560q-52 0 -79.5 -21.5t-27.5 -52.5q0 -26 15.5 -43.5t44.5 -17.5v-140q-101 0 -154.5 57t-53.5 144q0 97 64.5 155.5t190.5 58.5h100l301 -400v400h150v-700h-100z" />
    <glyph glyph-name="nacute" unicode="&#x144;" horiz-adv-x="701" 
d="M239 783l170 92l53 -71l-203 -61zM225 400v-400h-150v700h100l301 -400v400h150v-700h-100z" />
    <glyph glyph-name="uni0145" unicode="&#x145;" horiz-adv-x="900" 
d="M424 400v-400h-150v560q-52 0 -79.5 -21.5t-27.5 -52.5q0 -26 15.5 -43.5t44.5 -17.5v-140q-101 0 -154.5 57t-53.5 144q0 97 64.5 155.5t190.5 58.5h100l301 -400v400h150v-700h-100zM571 -143q-19 0 -32 13.5t-13 32.5t13.5 33t32.5 14t32.5 -14t13.5 -33
q0 -64 -54 -118l-28 24q26 29 35 48z" />
    <glyph glyph-name="uni0146" unicode="&#x146;" horiz-adv-x="701" 
d="M225 400v-400h-150v700h100l301 -400v400h150v-700h-100zM349 -143q-19 0 -32 13.5t-13 32.5t13.5 33t32.5 14t32.5 -14t13.5 -33q0 -64 -54 -118l-28 24q26 29 35 48z" />
    <glyph glyph-name="Ncaron" unicode="&#x147;" horiz-adv-x="900" 
d="M389 848h66l79 -55l79 55h68l-90 -98h-112zM424 400v-400h-150v560q-52 0 -79.5 -21.5t-27.5 -52.5q0 -26 15.5 -43.5t44.5 -17.5v-140q-101 0 -154.5 57t-53.5 144q0 97 64.5 155.5t190.5 58.5h100l301 -400v400h150v-700h-100z" />
    <glyph glyph-name="ncaron" unicode="&#x148;" horiz-adv-x="701" 
d="M204 848h66l79 -55l79 55h68l-90 -98h-112zM225 400v-400h-150v700h100l301 -400v400h150v-700h-100z" />
    <glyph glyph-name="Omacron" unicode="&#x14c;" 
d="M202 805h326v-50h-326v50zM531 683q72 -41 113 -125t41 -208t-41 -208t-113 -125t-166 -41t-166 41t-113 125t-41 208t41 208t113 125t166 41t166 -41zM239.5 530.5q-44.5 -53.5 -44.5 -180.5t44.5 -180.5t125.5 -53.5t125.5 53.5t44.5 180.5t-44.5 180.5t-125.5 53.5
t-125.5 -53.5z" />
    <glyph glyph-name="omacron" unicode="&#x14d;" 
d="M202 805h326v-50h-326v50zM531 683q72 -41 113 -125t41 -208t-41 -208t-113 -125t-166 -41t-166 41t-113 125t-41 208t41 208t113 125t166 41t166 -41zM239.5 530.5q-44.5 -53.5 -44.5 -180.5t44.5 -180.5t125.5 -53.5t125.5 53.5t44.5 180.5t-44.5 180.5t-125.5 53.5
t-125.5 -53.5z" />
    <glyph glyph-name="Ohungarumlaut" unicode="&#x150;" 
d="M150 783l170 92l53 -71l-203 -61zM356 783l170 92l53 -71l-203 -61zM531 683q72 -41 113 -125t41 -208t-41 -208t-113 -125t-166 -41t-166 41t-113 125t-41 208t41 208t113 125t166 41t166 -41zM239.5 530.5q-44.5 -53.5 -44.5 -180.5t44.5 -180.5t125.5 -53.5
t125.5 53.5t44.5 180.5t-44.5 180.5t-125.5 53.5t-125.5 -53.5z" />
    <glyph glyph-name="ohungarumlaut" unicode="&#x151;" 
d="M150 783l170 92l53 -71l-203 -61zM356 783l170 92l53 -71l-203 -61zM531 683q72 -41 113 -125t41 -208t-41 -208t-113 -125t-166 -41t-166 41t-113 125t-41 208t41 208t113 125t166 41t166 -41zM239.5 530.5q-44.5 -53.5 -44.5 -180.5t44.5 -180.5t125.5 -53.5
t125.5 53.5t44.5 180.5t-44.5 180.5t-125.5 53.5t-125.5 -53.5z" />
    <glyph glyph-name="OE" unicode="&#x152;" horiz-adv-x="980" 
d="M475 37q-60 -61 -152 -61q-77 0 -140 41.5t-100.5 125.5t-37.5 207t37.5 207t100.5 125.5t140 41.5q92 0 152 -61v37h455v-140h-305v-140h255v-140h-255v-140h305v-140h-455v37zM438.5 169.5q36.5 53.5 36.5 180.5t-36.5 180.5t-103.5 53.5t-103.5 -53.5t-36.5 -180.5
t36.5 -180.5t103.5 -53.5t103.5 53.5z" />
    <glyph glyph-name="oe" unicode="&#x153;" horiz-adv-x="980" 
d="M475 37q-60 -61 -152 -61q-77 0 -140 41.5t-100.5 125.5t-37.5 207t37.5 207t100.5 125.5t140 41.5q92 0 152 -61v37h455v-140h-305v-140h255v-140h-255v-140h305v-140h-455v37zM438.5 169.5q36.5 53.5 36.5 180.5t-36.5 180.5t-103.5 53.5t-103.5 -53.5t-36.5 -180.5
t36.5 -180.5t103.5 -53.5t103.5 53.5z" />
    <glyph glyph-name="Racute" unicode="&#x154;" horiz-adv-x="836" 
d="M396 783l170 92l53 -71l-203 -61zM494 240h-70v-240h-150v552q-53 0 -80 -18t-27 -48q0 -23 15.5 -38t44.5 -15v-148q-101 0 -154.5 57t-53.5 144q0 97 64.5 155.5t190.5 58.5h285q64 0 116 -25t83 -77.5t31 -129.5q0 -85 -37.5 -139t-101.5 -75l159 -254h-171zM618 398
q21 18 21 72q0 53 -21 71.5t-59 18.5h-135v-180h135q38 0 59 18z" />
    <glyph glyph-name="racute" unicode="&#x155;" horiz-adv-x="638" 
d="M207 783l170 92l53 -71l-203 -61zM296 240h-70v-240h-150v700h285q64 0 116 -25t83 -77t31 -129q0 -86 -37 -140t-102 -75l159 -254h-171zM419.5 397.5q21.5 17.5 21.5 71.5t-21 72.5t-59 18.5h-135v-180h135q37 0 58.5 17.5z" />
    <glyph glyph-name="uni0156" unicode="&#x156;" horiz-adv-x="836" 
d="M494 240h-70v-240h-150v552q-53 0 -80 -18t-27 -48q0 -23 15.5 -38t44.5 -15v-148q-101 0 -154.5 57t-53.5 144q0 97 64.5 155.5t190.5 58.5h285q64 0 116 -25t83 -77.5t31 -129.5q0 -85 -37.5 -139t-101.5 -75l159 -254h-171zM618 398q21 18 21 72q0 53 -21 71.5
t-59 18.5h-135v-180h135q38 0 59 18zM526 -143q-19 0 -32 13.5t-13 32.5t13.5 33t32.5 14t32.5 -14t13.5 -33q0 -64 -54 -118l-28 24q26 29 35 48z" />
    <glyph glyph-name="uni0157" unicode="&#x157;" horiz-adv-x="638" 
d="M296 240h-70v-240h-150v700h285q64 0 116 -25t83 -77t31 -129q0 -86 -37 -140t-102 -75l159 -254h-171zM419.5 397.5q21.5 17.5 21.5 71.5t-21 72.5t-59 18.5h-135v-180h135q37 0 58.5 17.5zM318 -143q-19 0 -32 13.5t-13 32.5t13.5 33t32.5 14t32.5 -14t13.5 -33
q0 -64 -54 -118l-28 24q26 29 35 48z" />
    <glyph glyph-name="Rcaron" unicode="&#x158;" horiz-adv-x="836" 
d="M350 848h66l79 -55l79 55h68l-90 -98h-112zM494 240h-70v-240h-150v552q-53 0 -80 -18t-27 -48q0 -23 15.5 -38t44.5 -15v-148q-101 0 -154.5 57t-53.5 144q0 97 64.5 155.5t190.5 58.5h285q64 0 116 -25t83 -77.5t31 -129.5q0 -85 -37.5 -139t-101.5 -75l159 -254h-171z
M618 398q21 18 21 72q0 53 -21 71.5t-59 18.5h-135v-180h135q38 0 59 18z" />
    <glyph glyph-name="rcaron" unicode="&#x159;" horiz-adv-x="638" 
d="M173 848h66l79 -55l79 55h68l-90 -98h-112zM296 240h-70v-240h-150v700h285q64 0 116 -25t83 -77t31 -129q0 -86 -37 -140t-102 -75l159 -254h-171zM419.5 397.5q21.5 17.5 21.5 71.5t-21 72.5t-59 18.5h-135v-180h135q37 0 58.5 17.5z" />
    <glyph glyph-name="Sacute" unicode="&#x15a;" horiz-adv-x="623" 
d="M239 783l170 92l53 -71l-203 -61zM197.5 133.5q52.5 -17.5 105.5 -17.5q55 0 93 21t38 67q0 29 -16.5 43.5t-37 19t-76.5 13.5q-82 13 -137 34t-87 62.5t-32 110.5q0 76 38 129.5t99.5 80.5t132.5 27q69 0 138 -25t120 -70l-83 -113q-30 31 -77.5 49.5t-95.5 18.5
q-50 0 -86 -21t-36 -66q0 -27 14 -41.5t34.5 -21t57.5 -13.5q100 -18 159.5 -40.5t90 -62t30.5 -104.5q0 -77 -39 -130.5t-103.5 -80.5t-140.5 -27q-75 0 -147 25.5t-125 69.5l83 111q33 -31 85.5 -48.5z" />
    <glyph glyph-name="sacute" unicode="&#x15b;" horiz-adv-x="623" 
d="M200 783l170 92l53 -71l-203 -61zM197.5 133.5q52.5 -17.5 105.5 -17.5q55 0 93 21t38 67q0 29 -16.5 43.5t-37 19t-76.5 13.5q-82 13 -137 34t-87 62.5t-32 110.5q0 76 38 129.5t99.5 80.5t132.5 27q68 0 135 -25t118 -70l-83 -113q-29 31 -75 49.5t-93 18.5
q-50 0 -86 -21t-36 -66q0 -27 14 -41.5t34.5 -21t57.5 -13.5q100 -18 159.5 -40.5t90 -62t30.5 -104.5q0 -77 -39 -130.5t-103.5 -80.5t-140.5 -27q-75 0 -147 25.5t-125 69.5l83 111q33 -31 85.5 -48.5z" />
    <glyph glyph-name="Scedilla" unicode="&#x15e;" horiz-adv-x="623" 
d="M259.5 -142q9.5 -6 22.5 -6t21 6.5t8 17.5t-7.5 16.5t-18.5 10t-16 6.5l-11 5l21 63q-70 4 -135.5 29t-114.5 65l83 111q33 -31 85.5 -48.5t105.5 -17.5q55 0 93 21t38 67q0 29 -16.5 43.5t-37 19t-76.5 13.5q-82 13 -137 34t-87 62.5t-32 110.5q0 76 38 129.5t99.5 80.5
t132.5 27q69 0 138 -25t120 -70l-83 -113q-30 31 -77.5 49.5t-95.5 18.5q-50 0 -86 -21t-36 -66q0 -27 14 -41.5t34.5 -21t57.5 -13.5q100 -18 159.5 -40.5t90 -62t30.5 -104.5q0 -103 -69 -164t-173 -71l-8 -31l10 -4q50 -20 50 -69q0 -33 -23 -51t-61 -18q-25 0 -43 6.5
t-39 17.5l19 36q3 -2 12.5 -8z" />
    <glyph glyph-name="scedilla" unicode="&#x15f;" horiz-adv-x="623" 
d="M259.5 -142q9.5 -6 22.5 -6t21 6.5t8 17.5t-7.5 16.5t-18.5 10t-16 6.5l-11 5l21 63q-70 4 -135.5 29t-114.5 65l83 111q33 -31 85.5 -48.5t105.5 -17.5q55 0 93 21t38 67q0 29 -16.5 43.5t-37 19t-76.5 13.5q-82 13 -137 34t-87 62.5t-32 110.5q0 76 38 129.5t99.5 80.5
t132.5 27q68 0 135 -25t118 -70l-83 -113q-29 31 -75 49.5t-93 18.5q-50 0 -86 -21t-36 -66q0 -27 14 -41.5t34.5 -21t57.5 -13.5q100 -18 159.5 -40.5t90 -62t30.5 -104.5q0 -103 -69 -164t-173 -71l-8 -31l10 -4q50 -20 50 -69q0 -33 -23 -51t-61 -18q-25 0 -43 6.5
t-39 17.5l19 36q3 -2 12.5 -8z" />
    <glyph glyph-name="Scaron" unicode="&#x160;" horiz-adv-x="623" 
d="M165 848h66l79 -55l79 55h68l-90 -98h-112zM197.5 133.5q52.5 -17.5 105.5 -17.5q55 0 93 21t38 67q0 29 -16.5 43.5t-37 19t-76.5 13.5q-82 13 -137 34t-87 62.5t-32 110.5q0 76 38 129.5t99.5 80.5t132.5 27q69 0 138 -25t120 -70l-83 -113q-30 31 -77.5 49.5
t-95.5 18.5q-50 0 -86 -21t-36 -66q0 -27 14 -41.5t34.5 -21t57.5 -13.5q100 -18 159.5 -40.5t90 -62t30.5 -104.5q0 -77 -39 -130.5t-103.5 -80.5t-140.5 -27q-75 0 -147 25.5t-125 69.5l83 111q33 -31 85.5 -48.5z" />
    <glyph glyph-name="scaron" unicode="&#x161;" horiz-adv-x="623" 
d="M165 848h66l79 -55l79 55h68l-90 -98h-112zM197.5 133.5q52.5 -17.5 105.5 -17.5q55 0 93 21t38 67q0 29 -16.5 43.5t-37 19t-76.5 13.5q-82 13 -137 34t-87 62.5t-32 110.5q0 76 38 129.5t99.5 80.5t132.5 27q68 0 135 -25t118 -70l-83 -113q-29 31 -75 49.5t-93 18.5
q-50 0 -86 -21t-36 -66q0 -27 14 -41.5t34.5 -21t57.5 -13.5q100 -18 159.5 -40.5t90 -62t30.5 -104.5q0 -77 -39 -130.5t-103.5 -80.5t-140.5 -27q-75 0 -147 25.5t-125 69.5l83 111q33 -31 85.5 -48.5z" />
    <glyph glyph-name="uni0162" unicode="&#x162;" horiz-adv-x="737" 
d="M393 560h-119q-52 0 -79.5 -21.5t-27.5 -52.5q0 -26 15.5 -43.5t44.5 -17.5v-140q-101 0 -154.5 57t-53.5 144q0 97 64.5 155.5t190.5 58.5h444v-140h-175v-560h-150v560zM466 -143q-19 0 -32 13.5t-13 32.5t13.5 33t32.5 14t32.5 -14t13.5 -33q0 -64 -54 -118l-28 24
q26 29 35 48z" />
    <glyph glyph-name="uni0163" unicode="&#x163;" horiz-adv-x="538" 
d="M194 560h-175v140h500v-140h-175v-560h-150v560zM268 -143q-19 0 -32 13.5t-13 32.5t13.5 33t32.5 14t32.5 -14t13.5 -33q0 -64 -54 -118l-28 24q26 29 35 48z" />
    <glyph glyph-name="Tcaron" unicode="&#x164;" horiz-adv-x="737" 
d="M325 848h66l79 -55l79 55h68l-90 -98h-112zM393 560h-119q-52 0 -79.5 -21.5t-27.5 -52.5q0 -26 15.5 -43.5t44.5 -17.5v-140q-101 0 -154.5 57t-53.5 144q0 97 64.5 155.5t190.5 58.5h444v-140h-175v-560h-150v560z" />
    <glyph glyph-name="tcaron" unicode="&#x165;" horiz-adv-x="538" 
d="M123 848h66l79 -55l79 55h68l-90 -98h-112zM194 560h-175v140h500v-140h-175v-560h-150v560z" />
    <glyph glyph-name="Umacron" unicode="&#x16a;" horiz-adv-x="907" 
d="M397 805h326v-50h-326v50zM838 700v-467q0 -82 -39 -140.5t-103.5 -87.5t-139.5 -29t-139.5 29t-103.5 87.5t-39 140.5v327q-52 0 -79.5 -21.5t-27.5 -52.5q0 -26 15.5 -43.5t44.5 -17.5v-140q-101 0 -154.5 57t-53.5 144q0 97 64.5 155.5t190.5 58.5h150v-476
q0 -57 39.5 -82.5t92.5 -25.5t92.5 25.5t39.5 82.5v476h150z" />
    <glyph glyph-name="umacron" unicode="&#x16b;" horiz-adv-x="702" 
d="M188 805h326v-50h-326v50zM633 700v-467q0 -82 -39 -140.5t-103.5 -87.5t-139.5 -29t-139.5 29t-103.5 87.5t-39 140.5v467h150v-476q0 -57 39.5 -82.5t92.5 -25.5t92.5 25.5t39.5 82.5v476h150z" />
    <glyph glyph-name="Uring" unicode="&#x16e;" horiz-adv-x="907" 
d="M496 702q-25 25 -25 63t25.5 63t62.5 25q38 0 63 -25t25 -63t-25 -63t-63 -25t-63 25zM587.5 793.5q-11.5 11.5 -28.5 11.5q-16 0 -28 -11.5t-12 -28.5t11.5 -28.5t28.5 -11.5t28.5 11.5t11.5 28.5t-11.5 28.5zM838 700v-467q0 -82 -39 -140.5t-103.5 -87.5t-139.5 -29
t-139.5 29t-103.5 87.5t-39 140.5v327q-52 0 -79.5 -21.5t-27.5 -52.5q0 -26 15.5 -43.5t44.5 -17.5v-140q-101 0 -154.5 57t-53.5 144q0 97 64.5 155.5t190.5 58.5h150v-476q0 -57 39.5 -82.5t92.5 -25.5t92.5 25.5t39.5 82.5v476h150z" />
    <glyph glyph-name="uring" unicode="&#x16f;" horiz-adv-x="702" 
d="M288 702q-25 25 -25 63t25.5 63t62.5 25q38 0 63 -25t25 -63t-25 -63t-63 -25t-63 25zM379.5 793.5q-11.5 11.5 -28.5 11.5q-16 0 -28 -11.5t-12 -28.5t11.5 -28.5t28.5 -11.5t28.5 11.5t11.5 28.5t-11.5 28.5zM633 700v-467q0 -82 -39 -140.5t-103.5 -87.5t-139.5 -29
t-139.5 29t-103.5 87.5t-39 140.5v467h150v-476q0 -57 39.5 -82.5t92.5 -25.5t92.5 25.5t39.5 82.5v476h150z" />
    <glyph glyph-name="Uhungarumlaut" unicode="&#x170;" horiz-adv-x="907" 
d="M349 783l170 92l53 -71l-203 -61zM555 783l170 92l53 -71l-203 -61zM838 700v-467q0 -82 -39 -140.5t-103.5 -87.5t-139.5 -29t-139.5 29t-103.5 87.5t-39 140.5v327q-52 0 -79.5 -21.5t-27.5 -52.5q0 -26 15.5 -43.5t44.5 -17.5v-140q-101 0 -154.5 57t-53.5 144
q0 97 64.5 155.5t190.5 58.5h150v-476q0 -57 39.5 -82.5t92.5 -25.5t92.5 25.5t39.5 82.5v476h150z" />
    <glyph glyph-name="uhungarumlaut" unicode="&#x171;" horiz-adv-x="702" 
d="M136 783l170 92l53 -71l-203 -61zM342 783l170 92l53 -71l-203 -61zM633 700v-467q0 -82 -39 -140.5t-103.5 -87.5t-139.5 -29t-139.5 29t-103.5 87.5t-39 140.5v467h150v-476q0 -57 39.5 -82.5t92.5 -25.5t92.5 25.5t39.5 82.5v476h150z" />
    <glyph glyph-name="Uogonek" unicode="&#x172;" horiz-adv-x="907" 
d="M620 -166q-34 0 -53.5 20t-19.5 52q0 41 30 71q-7 -1 -21 -1q-75 0 -139.5 29t-103.5 87.5t-39 140.5v327q-52 0 -79.5 -21.5t-27.5 -52.5q0 -26 15.5 -43.5t44.5 -17.5v-140q-101 0 -154.5 57t-53.5 144q0 97 64.5 155.5t190.5 58.5h150v-476q0 -57 39.5 -82.5
t92.5 -25.5t92.5 25.5t39.5 82.5v476h150v-467q0 -86 -42 -145t-113 -88q-25 -16 -43.5 -33t-18.5 -44q0 -33 38 -33q8 0 20 2l7 -43q-34 -15 -66 -15z" />
    <glyph glyph-name="uogonek" unicode="&#x173;" horiz-adv-x="702" 
d="M415 -166q-34 0 -53.5 20t-19.5 52q0 41 30 71q-7 -1 -21 -1q-75 0 -139.5 29t-103.5 87.5t-39 140.5v467h150v-476q0 -57 39.5 -82.5t92.5 -25.5t92.5 25.5t39.5 82.5v476h150v-467q0 -86 -42 -145t-113 -88q-25 -16 -43.5 -33t-18.5 -44q0 -33 38 -33q8 0 20 2l7 -43
q-34 -15 -66 -15z" />
    <glyph glyph-name="Ydieresis" unicode="&#x178;" horiz-adv-x="819" 
d="M392 754.5q-14 14.5 -14 35.5t14.5 35.5t35.5 14.5t35.5 -14.5t14.5 -35.5t-14 -35.5t-36 -14.5t-36 14.5zM548.5 754.5q-14.5 14.5 -14.5 35.5t14 35.5t36 14.5t36 -14.5t14 -35.5t-14.5 -35.5t-35.5 -14.5t-35.5 14.5zM432 271l-159 289q-52 -1 -79 -22t-27 -52
q0 -26 15.5 -43.5t44.5 -17.5v-140q-101 0 -154.5 57t-53.5 144q0 97 64.5 155.5t190.5 58.5h88l145 -283l146 283h166l-237 -429v-271h-150v271z" />
    <glyph glyph-name="Zacute" unicode="&#x179;" horiz-adv-x="688" 
d="M194 783l170 92l53 -71l-203 -61zM24 100l304 460h-304v140h494v-100l-304 -460h200q52 0 79.5 21.5t27.5 52.5q0 26 -15.5 43.5t-44.5 17.5v140q101 0 154.5 -57t53.5 -144q0 -97 -64.5 -155.5t-190.5 -58.5h-390v100z" />
    <glyph glyph-name="zacute" unicode="&#x17a;" horiz-adv-x="555" 
d="M166 783l170 92l53 -71l-203 -61zM24 100l304 460h-304v140h494v-100l-304 -460h304v-140h-494v100z" />
    <glyph glyph-name="Zdotaccent" unicode="&#x17b;" horiz-adv-x="688" 
d="M308 749.5q-14 14.5 -14 35.5t14.5 35.5t35.5 14.5t35.5 -14.5t14.5 -35.5t-14 -35.5t-36 -14.5t-36 14.5zM24 100l304 460h-304v140h494v-100l-304 -460h200q52 0 79.5 21.5t27.5 52.5q0 26 -15.5 43.5t-44.5 17.5v140q101 0 154.5 -57t53.5 -144q0 -97 -64.5 -155.5
t-190.5 -58.5h-390v100z" />
    <glyph glyph-name="zdotaccent" unicode="&#x17c;" horiz-adv-x="555" 
d="M241 749.5q-14 14.5 -14 35.5t14.5 35.5t35.5 14.5t35.5 -14.5t14.5 -35.5t-14 -35.5t-36 -14.5t-36 14.5zM24 100l304 460h-304v140h494v-100l-304 -460h304v-140h-494v100z" />
    <glyph glyph-name="Zcaron" unicode="&#x17d;" horiz-adv-x="688" 
d="M99 848h66l79 -55l79 55h68l-90 -98h-112zM24 100l304 460h-304v140h494v-100l-304 -460h200q52 0 79.5 21.5t27.5 52.5q0 26 -15.5 43.5t-44.5 17.5v140q101 0 154.5 -57t53.5 -144q0 -97 -64.5 -155.5t-190.5 -58.5h-390v100z" />
    <glyph glyph-name="zcaron" unicode="&#x17e;" horiz-adv-x="555" 
d="M131 848h66l79 -55l79 55h68l-90 -98h-112zM24 100l304 460h-304v140h494v-100l-304 -460h304v-140h-494v100z" />
    <glyph glyph-name="circumflex" unicode="&#x2c6;" horiz-adv-x="312" 
d="M155 805l-79 -55h-66l90 98h112l90 -98h-68z" />
    <glyph glyph-name="caron" unicode="&#x2c7;" horiz-adv-x="312" 
d="M10 848h66l79 -55l79 55h68l-90 -98h-112z" />
    <glyph glyph-name="breve" unicode="&#x2d8;" horiz-adv-x="363" 
d="M181 740q-76 0 -130 49l43 57q31 -34 89 -34q53 0 86 34l42 -57q-54 -49 -130 -49z" />
    <glyph glyph-name="dotaccent" unicode="&#x2d9;" horiz-adv-x="250" 
d="M89 749.5q-14 14.5 -14 35.5t14.5 35.5t35.5 14.5t35.5 -14.5t14.5 -35.5t-14 -35.5t-36 -14.5t-36 14.5z" />
    <glyph glyph-name="ring" unicode="&#x2da;" horiz-adv-x="326" 
d="M100 702q-25 25 -25 63t25.5 63t62.5 25q38 0 63 -25t25 -63t-25 -63t-63 -25t-63 25zM191.5 793.5q-11.5 11.5 -28.5 11.5q-16 0 -28 -11.5t-12 -28.5t11.5 -28.5t28.5 -11.5t28.5 11.5t11.5 28.5t-11.5 28.5z" />
    <glyph glyph-name="ogonek" unicode="&#x2db;" horiz-adv-x="289" 
d="M148 -166q-34 0 -53.5 20t-19.5 52q0 38 21.5 61t39.5 34t22 13l53 -14q-25 -16 -43.5 -33t-18.5 -44q0 -33 38 -33q8 0 20 2l7 -43q-34 -15 -66 -15z" />
    <glyph glyph-name="tilde" unicode="&#x2dc;" horiz-adv-x="406" 
d="M303.5 759q-17.5 -22 -49.5 -22q-23 0 -62 15q-26 10 -34 10q-14 0 -22 -7t-15 -24l-52 16q13 44 30.5 66.5t48.5 22.5q15 0 28 -4t34 -12q26 -10 34 -10q14 0 22 7.5t15 24.5l52 -16q-12 -45 -29.5 -67z" />
    <glyph glyph-name="hungarumlaut" unicode="&#x2dd;" horiz-adv-x="579" 
d="M75 783l170 92l53 -71l-203 -61zM281 783l170 92l53 -71l-203 -61z" />
    <glyph glyph-name="uni0400" unicode="&#x400;" horiz-adv-x="800" 
d="M350 804l53 71l170 -92l-20 -40zM274 560q-52 0 -79.5 -21.5t-27.5 -52.5q0 -26 15.5 -43.5t44.5 -17.5v-140q-101 0 -154.5 57t-53.5 144q0 97 64.5 155.5t190.5 58.5h475v-140h-325v-140h275v-140h-275v-140h325v-140h-475v560z" />
    <glyph glyph-name="uni0401" unicode="&#x401;" horiz-adv-x="800" 
d="M390 754.5q-14 14.5 -14 35.5t14.5 35.5t35.5 14.5t35.5 -14.5t14.5 -35.5t-14 -35.5t-36 -14.5t-36 14.5zM546.5 754.5q-14.5 14.5 -14.5 35.5t14 35.5t36 14.5t36 -14.5t14 -35.5t-14.5 -35.5t-35.5 -14.5t-35.5 14.5zM274 560q-52 0 -79.5 -21.5t-27.5 -52.5
q0 -26 15.5 -43.5t44.5 -17.5v-140q-101 0 -154.5 57t-53.5 144q0 97 64.5 155.5t190.5 58.5h475v-140h-325v-140h275v-140h-275v-140h325v-140h-475v560z" />
    <glyph glyph-name="uni0402" unicode="&#x402;" horiz-adv-x="754" 
d="M433 140h46q37 0 58.5 17.5t21.5 71.5t-21 72.5t-59 18.5h-135v-320h-150v560h-175v140h500v-140h-175v-100h135q64 0 116 -25t83 -77t31 -129q0 -114 -64 -171.5t-166 -57.5h-46v140z" />
    <glyph glyph-name="uni0403" unicode="&#x403;" horiz-adv-x="719" 
d="M371 783l170 92l53 -71l-203 -61zM274 560q-52 0 -79.5 -21.5t-27.5 -52.5q0 -26 15.5 -43.5t44.5 -17.5v-140q-101 0 -154.5 57t-53.5 144q0 97 64.5 155.5t190.5 58.5h425v-140h-275v-560h-150v560z" />
    <glyph glyph-name="uni0404" unicode="&#x404;" horiz-adv-x="641" 
d="M372 -24q-96 0 -169.5 41.5t-115.5 126.5t-42 212q0 124 42 206t115.5 122t169.5 40q147 0 254 -95l-83 -111q-66 66 -173 66q-72 0 -116.5 -38.5t-55.5 -125.5h263v-140h-261q12 -89 55.5 -126.5t114.5 -37.5q107 0 173 66l83 -111q-107 -95 -254 -95z" />
    <glyph glyph-name="uni0405" unicode="&#x405;" horiz-adv-x="623" 
d="M197.5 133.5q52.5 -17.5 105.5 -17.5q55 0 93 21t38 67q0 29 -16.5 43.5t-37 19t-76.5 13.5q-82 13 -137 34t-87 62.5t-32 110.5q0 76 38 129.5t99.5 80.5t132.5 27q69 0 138 -25t120 -70l-83 -113q-30 31 -77.5 49.5t-95.5 18.5q-50 0 -86 -21t-36 -66q0 -27 14 -41.5
t34.5 -21t57.5 -13.5q100 -18 159.5 -40.5t90 -62t30.5 -104.5q0 -77 -39 -130.5t-103.5 -80.5t-140.5 -27q-75 0 -147 25.5t-125 69.5l83 111q33 -31 85.5 -48.5z" />
    <glyph glyph-name="uni0406" unicode="&#x406;" horiz-adv-x="300" 
d="M274 560q-52 0 -79.5 -21.5t-27.5 -52.5q0 -26 15.5 -43.5t44.5 -17.5v-140q-101 0 -154.5 57t-53.5 144q0 97 64.5 155.5t190.5 58.5h150v-700h-150v560z" />
    <glyph glyph-name="uni0407" unicode="&#x407;" horiz-adv-x="499" 
d="M255 755.5q-12 12.5 -12 29.5t12.5 29.5t29.5 12.5t29.5 -12.5t12.5 -29.5t-12 -29.5t-30 -12.5t-30 12.5zM385.5 755.5q-12.5 12.5 -12.5 29.5t12 29.5t30 12.5t30 -12.5t12 -29.5t-12.5 -29.5t-29.5 -12.5t-29.5 12.5zM274 560q-52 0 -79.5 -21.5t-27.5 -52.5
q0 -26 15.5 -43.5t44.5 -17.5v-140q-101 0 -154.5 57t-53.5 144q0 97 64.5 155.5t190.5 58.5h150v-700h-150v560z" />
    <glyph glyph-name="uni0408" unicode="&#x408;" horiz-adv-x="448" 
d="M130 130q34 -4 55 -4q43 0 66 26.5t23 87.5v320q-52 0 -79.5 -21.5t-27.5 -52.5q0 -26 15.5 -43.5t44.5 -17.5v-140q-101 0 -154.5 57t-53.5 144q0 97 64.5 155.5t190.5 58.5h150v-460q0 -83 -30 -140.5t-82 -85.5t-119 -28q-39 0 -71 6t-72 20l20 130q26 -8 60 -12z" />
    <glyph glyph-name="uni0409" unicode="&#x409;" horiz-adv-x="1154" 
d="M604 560h-146l-36 -340q-13 -120 -54 -177t-115 -57q-21 0 -52.5 4t-61.5 12l20 130q34 -6 62 -6q25 0 36 20t16 74l35 340h-34q-52 0 -79.5 -21.5t-27.5 -52.5q0 -26 15.5 -43.5t44.5 -17.5v-140q-101 0 -154.5 57t-53.5 144q0 97 64.5 155.5t190.5 58.5h480v-240h135
q102 0 166 -57.5t64 -171.5q0 -77 -31 -129t-83 -77t-116 -25h-285v560zM948 158.5q21 18.5 21 72.5t-21.5 71.5t-58.5 17.5h-135v-180h135q38 0 59 18.5z" />
    <glyph glyph-name="uni040A" unicode="&#x40a;" horiz-adv-x="1225" 
d="M675 280h-251v-280h-150v560q-52 0 -79.5 -21.5t-27.5 -52.5q0 -26 15.5 -43.5t44.5 -17.5v-140q-101 0 -154.5 57t-53.5 144q0 97 64.5 155.5t190.5 58.5h150v-280h251v280h150v-240h135q102 0 166 -57.5t64 -171.5q0 -77 -31 -129t-83 -77t-116 -25h-285v280z
M1019 158.5q21 18.5 21 72.5t-21.5 71.5t-58.5 17.5h-135v-180h135q38 0 59 18.5z" />
    <glyph glyph-name="uni040B" unicode="&#x40b;" horiz-adv-x="754" 
d="M569 261q0 54 -24 71.5t-66 17.5q-79 0 -135 -37v-313h-150v560h-175v140h500v-140h-175v-93q61 23 135 23q106 0 173 -57.5t67 -171.5v-261h-150v261z" />
    <glyph glyph-name="uni040C" unicode="&#x40c;" horiz-adv-x="843" 
d="M447 783l170 92l53 -71l-203 -61zM424 299v-299h-150v560q-52 0 -79.5 -21.5t-27.5 -52.5q0 -26 15.5 -43.5t44.5 -17.5v-140q-101 0 -154.5 57t-53.5 144q0 97 64.5 155.5t190.5 58.5h150v-300l226 300h175l-263 -350l263 -350h-175z" />
    <glyph glyph-name="uni040D" unicode="&#x40d;" horiz-adv-x="900" 
d="M389 804l53 71l170 -92l-20 -40zM675 400l-251 -334l-10 -66h-140v560q-52 0 -79.5 -21.5t-27.5 -52.5q0 -26 15.5 -43.5t44.5 -17.5v-140q-101 0 -154.5 57t-53.5 144q0 97 64.5 155.5t190.5 58.5h150v-400l251 333l10 67h140v-700h-150v400z" />
    <glyph glyph-name="uni040E" unicode="&#x40e;" horiz-adv-x="841" 
d="M535 740q-76 0 -130 49l43 57q31 -34 89 -34q53 0 86 34l42 -57q-54 -49 -130 -49zM194.5 538.5q-27.5 -21.5 -27.5 -52.5q0 -26 15.5 -43.5t44.5 -17.5v-140q-101 0 -154.5 57t-53.5 144q0 97 64.5 155.5t190.5 58.5h92l168 -332l143 332h164l-202 -460
q-44 -102 -73 -151.5t-71.5 -76t-111.5 -26.5q-32 0 -62 6t-67 20l20 130q24 -8 55 -12t52 -4q23 0 36.5 7t23 23t24.5 50l-191 354q-52 0 -79.5 -21.5z" />
    <glyph glyph-name="uni040F" unicode="&#x40f;" horiz-adv-x="900" 
d="M624 -130h-150v130h-200v560q-52 0 -79.5 -21.5t-27.5 -52.5q0 -26 15.5 -43.5t44.5 -17.5v-140q-101 0 -154.5 57t-53.5 144q0 97 64.5 155.5t190.5 58.5h150v-560h251v560h150v-700h-201v-130z" />
    <glyph glyph-name="uni0410" unicode="&#x410;" horiz-adv-x="815" 
d="M605 120h-275l-50 -120h-159l238 560h-85q-52 0 -79.5 -21.5t-27.5 -52.5q0 -26 15.5 -43.5t44.5 -17.5v-140q-101 0 -154.5 57t-53.5 144q0 97 64.5 155.5t190.5 58.5h244l297 -700h-159zM468 498l-41 -148l-38 -90h158l-38 90z" />
    <glyph glyph-name="uni0411" unicode="&#x411;" horiz-adv-x="834" 
d="M274 560q-52 0 -79.5 -21.5t-27.5 -52.5q0 -26 15.5 -43.5t44.5 -17.5v-140q-101 0 -154.5 57t-53.5 144q0 97 64.5 155.5t190.5 58.5h465v-140h-315v-120h135q102 0 166 -55t64 -164q0 -74 -31 -123.5t-83 -73.5t-116 -24h-285v560zM618 156.5q21 16.5 21 64.5
t-21.5 63.5t-58.5 15.5h-135v-160h135q38 0 59 16.5z" />
    <glyph glyph-name="uni0412" unicode="&#x412;" horiz-adv-x="834" 
d="M274 560q-52 0 -79.5 -21.5t-27.5 -52.5q0 -26 15.5 -43.5t44.5 -17.5v-140q-101 0 -154.5 57t-53.5 144q0 97 64.5 155.5t190.5 58.5h265q63 0 115.5 -23.5t83.5 -69.5t31 -110q0 -96 -74 -142q94 -43 94 -152q0 -64 -31 -110t-83.5 -69.5t-115.5 -23.5h-285v560z
M597.5 434q21.5 14 21.5 56q0 41 -21 55.5t-59 14.5h-115v-140h115q37 0 58.5 14zM618 154.5q21 14.5 21 55.5q0 42 -21.5 56t-58.5 14h-135v-140h135q38 0 59 14.5z" />
    <glyph glyph-name="uni0413" unicode="&#x413;" horiz-adv-x="719" 
d="M274 560q-52 0 -79.5 -21.5t-27.5 -52.5q0 -26 15.5 -43.5t44.5 -17.5v-140q-101 0 -154.5 57t-53.5 144q0 97 64.5 155.5t190.5 58.5h425v-140h-275v-560h-150v560z" />
    <glyph glyph-name="uni0414" unicode="&#x414;" horiz-adv-x="843" 
d="M708 0h-409v-150h-130v290h23q32 0 50 33t25 91l30 296h-23q-52 0 -79.5 -21.5t-27.5 -52.5q0 -26 15.5 -43.5t44.5 -17.5v-140q-101 0 -154.5 57t-53.5 144q0 97 64.5 155.5t190.5 58.5h489v-560h75v-290h-130v150zM446 560l-26 -260q-12 -104 -43 -160h236v420h-167z
" />
    <glyph glyph-name="uni0415" unicode="&#x415;" horiz-adv-x="800" 
d="M274 560q-52 0 -79.5 -21.5t-27.5 -52.5q0 -26 15.5 -43.5t44.5 -17.5v-140q-101 0 -154.5 57t-53.5 144q0 97 64.5 155.5t190.5 58.5h475v-140h-325v-140h275v-140h-275v-140h325v-140h-475v560z" />
    <glyph glyph-name="uni0416" unicode="&#x416;" horiz-adv-x="1149" 
d="M698 293v-293h-150v293l-196 -293h-175l243 350l-146 210q-52 0 -79.5 -21.5t-27.5 -52.5q0 -26 15.5 -43.5t44.5 -17.5v-140q-101 0 -154.5 57t-53.5 144q0 97 64.5 155.5t190.5 58.5h78l196 -293v293h150v-293l196 293h175l-243 -350l243 -350h-175z" />
    <glyph glyph-name="uni0417" unicode="&#x417;" horiz-adv-x="596" 
d="M201 421h93q41 0 66 20t25 63q0 44 -26.5 62t-76.5 18q-104 0 -170 -66l-83 111q107 95 254 95q73 0 130 -27t89.5 -77t32.5 -117q0 -103 -81 -150q97 -43 97 -154q0 -69 -35 -119.5t-95.5 -77t-135.5 -26.5q-74 0 -137.5 25.5t-113.5 69.5l83 111q66 -66 173 -66
q54 0 82.5 18t28.5 62q0 84 -110 84h-90v141z" />
    <glyph glyph-name="uni0418" unicode="&#x418;" horiz-adv-x="900" 
d="M675 400l-251 -334l-10 -66h-140v560q-52 0 -79.5 -21.5t-27.5 -52.5q0 -26 15.5 -43.5t44.5 -17.5v-140q-101 0 -154.5 57t-53.5 144q0 97 64.5 155.5t190.5 58.5h150v-400l251 333l10 67h140v-700h-150v400z" />
    <glyph glyph-name="uni0419" unicode="&#x419;" horiz-adv-x="900" 
d="M535 740q-76 0 -130 49l43 57q31 -34 89 -34q53 0 86 34l42 -57q-54 -49 -130 -49zM675 400l-251 -334l-10 -66h-140v560q-52 0 -79.5 -21.5t-27.5 -52.5q0 -26 15.5 -43.5t44.5 -17.5v-140q-101 0 -154.5 57t-53.5 144q0 97 64.5 155.5t190.5 58.5h150v-400l251 333
l10 67h140v-700h-150v400z" />
    <glyph glyph-name="uni041A" unicode="&#x41a;" horiz-adv-x="843" 
d="M424 299v-299h-150v560q-52 0 -79.5 -21.5t-27.5 -52.5q0 -26 15.5 -43.5t44.5 -17.5v-140q-101 0 -154.5 57t-53.5 144q0 97 64.5 155.5t190.5 58.5h150v-300l226 300h175l-263 -350l263 -350h-175z" />
    <glyph glyph-name="uni041B" unicode="&#x41b;" horiz-adv-x="829" 
d="M604 560h-146l-36 -340q-13 -120 -54 -177t-115 -57q-21 0 -52.5 4t-61.5 12l20 130q34 -6 62 -6q25 0 36 20t16 74l35 340h-34q-52 0 -79.5 -21.5t-27.5 -52.5q0 -26 15.5 -43.5t44.5 -17.5v-140q-101 0 -154.5 57t-53.5 144q0 97 64.5 155.5t190.5 58.5h480v-700h-150
v560z" />
    <glyph glyph-name="uni041C" unicode="&#x41c;" horiz-adv-x="1049" 
d="M824 389l-150 -209h-100l-150 209v-389h-150v560q-52 0 -79.5 -21.5t-27.5 -52.5q0 -26 15.5 -43.5t44.5 -17.5v-140q-101 0 -154.5 57t-53.5 144q0 97 64.5 155.5t190.5 58.5h100l250 -350l250 350h100v-700h-150v389z" />
    <glyph glyph-name="uni041D" unicode="&#x41d;" horiz-adv-x="900" 
d="M675 280h-251v-280h-150v560q-52 0 -79.5 -21.5t-27.5 -52.5q0 -26 15.5 -43.5t44.5 -17.5v-140q-101 0 -154.5 57t-53.5 144q0 97 64.5 155.5t190.5 58.5h150v-280h251v280h150v-700h-150v280z" />
    <glyph glyph-name="uni041E" unicode="&#x41e;" 
d="M531 683q72 -41 113 -125t41 -208t-41 -208t-113 -125t-166 -41t-166 41t-113 125t-41 208t41 208t113 125t166 41t166 -41zM239.5 530.5q-44.5 -53.5 -44.5 -180.5t44.5 -180.5t125.5 -53.5t125.5 53.5t44.5 180.5t-44.5 180.5t-125.5 53.5t-125.5 -53.5z" />
    <glyph glyph-name="uni041F" unicode="&#x41f;" horiz-adv-x="900" 
d="M675 560h-251v-560h-150v560q-52 0 -79.5 -21.5t-27.5 -52.5q0 -26 15.5 -43.5t44.5 -17.5v-140q-101 0 -154.5 57t-53.5 144q0 97 64.5 155.5t190.5 58.5h551v-700h-150v560z" />
    <glyph glyph-name="uni0420" unicode="&#x420;" horiz-adv-x="811" 
d="M274 560q-52 0 -79.5 -21.5t-27.5 -52.5q0 -26 15.5 -43.5t44.5 -17.5v-140q-101 0 -154.5 57t-53.5 144q0 97 64.5 155.5t190.5 58.5h285q64 0 116 -25t83 -77t31 -129q0 -114 -64 -171.5t-166 -57.5h-135v-240h-150v560zM617.5 397.5q21.5 17.5 21.5 71.5t-21 72.5
t-59 18.5h-135v-180h135q37 0 58.5 17.5z" />
    <glyph glyph-name="uni0421" unicode="&#x421;" horiz-adv-x="660" 
d="M372 -24q-96 0 -169.5 41.5t-115.5 126.5t-42 212q0 122 38.5 204.5t107 123t157.5 40.5q77 0 139 -32.5t98 -98.5t36 -163h-150q0 154 -123 154q-74 0 -113.5 -53t-39.5 -174q0 -131 45 -186t130 -55q107 0 173 66l83 -111q-107 -95 -254 -95z" />
    <glyph glyph-name="uni0422" unicode="&#x422;" horiz-adv-x="737" 
d="M393 560h-119q-52 0 -79.5 -21.5t-27.5 -52.5q0 -26 15.5 -43.5t44.5 -17.5v-140q-101 0 -154.5 57t-53.5 144q0 97 64.5 155.5t190.5 58.5h444v-140h-175v-560h-150v560z" />
    <glyph glyph-name="uni0423" unicode="&#x423;" horiz-adv-x="841" 
d="M194.5 538.5q-27.5 -21.5 -27.5 -52.5q0 -26 15.5 -43.5t44.5 -17.5v-140q-101 0 -154.5 57t-53.5 144q0 97 64.5 155.5t190.5 58.5h92l168 -332l143 332h164l-202 -460q-44 -102 -73 -151.5t-71.5 -76t-111.5 -26.5q-32 0 -62 6t-67 20l20 130q24 -8 55 -12t52 -4
q23 0 36.5 7t23 23t24.5 50l-191 354q-52 0 -79.5 -21.5z" />
    <glyph glyph-name="uni0424" unicode="&#x424;" horiz-adv-x="798" 
d="M324 120h-35q-111 0 -180.5 65t-69.5 194q0 87 33.5 145.5t90 87t126.5 28.5h35v60h150v-60h35q70 0 126.5 -28.5t90 -87t33.5 -145.5t-33 -145t-89.5 -86t-127.5 -28h-35v-120h-150v120zM289 500q-47 0 -73.5 -24.5t-26.5 -96.5t26.5 -95.5t73.5 -23.5h35v240h-35z
M582.5 283.5q26.5 23.5 26.5 95.5t-26.5 96.5t-73.5 24.5h-35v-240h35q47 0 73.5 23.5z" />
    <glyph glyph-name="uni0425" unicode="&#x425;" horiz-adv-x="799" 
d="M478 233l-145 -233h-166l228 366l-121 195v-1q-52 0 -79.5 -21.5t-27.5 -52.5q0 -26 15.5 -43.5t44.5 -17.5v-140q-101 0 -154.5 57t-53.5 144q0 97 64.5 155.5t190.5 58.5h79l125 -201l126 201h166l-209 -334l229 -366h-166z" />
    <glyph glyph-name="uni0426" unicode="&#x426;" horiz-adv-x="900" 
d="M770 0h-496v560q-52 0 -79.5 -21.5t-27.5 -52.5q0 -26 15.5 -43.5t44.5 -17.5v-140q-101 0 -154.5 57t-53.5 144q0 97 64.5 155.5t190.5 58.5h150v-560h251v560h150v-560h75v-290h-130v150z" />
    <glyph glyph-name="uni0427" unicode="&#x427;" horiz-adv-x="874" 
d="M649 233q-61 -23 -135 -23q-106 0 -173 57.5t-67 171.5v121q-52 0 -79.5 -21.5t-27.5 -52.5q0 -26 15.5 -43.5t44.5 -17.5v-140q-101 0 -154.5 57t-53.5 144q0 97 64.5 155.5t190.5 58.5h150v-261q0 -54 24 -71.5t66 -17.5q77 0 135 36v314h150v-700h-150v233z" />
    <glyph glyph-name="uni0428" unicode="&#x428;" horiz-adv-x="1100" 
d="M274 560q-52 0 -79.5 -21.5t-27.5 -52.5q0 -26 15.5 -43.5t44.5 -17.5v-140q-101 0 -154.5 57t-53.5 144q0 97 64.5 155.5t190.5 58.5h150v-560h150v560h150v-560h151v560h150v-700h-751v560z" />
    <glyph glyph-name="uni0429" unicode="&#x429;" horiz-adv-x="1100" 
d="M970 0h-696v560q-52 0 -79.5 -21.5t-27.5 -52.5q0 -26 15.5 -43.5t44.5 -17.5v-140q-101 0 -154.5 57t-53.5 144q0 97 64.5 155.5t190.5 58.5h150v-560h150v560h150v-560h151v560h150v-560h75v-290h-130v150z" />
    <glyph glyph-name="uni042A" unicode="&#x42a;" horiz-adv-x="684" 
d="M140 560h-140v140h290v-240h135q102 0 166 -57.5t64 -171.5q0 -77 -31 -129t-83 -77t-116 -25h-285v560zM484 158.5q21 18.5 21 72.5t-21.5 71.5t-58.5 17.5h-135v-180h135q38 0 59 18.5z" />
    <glyph glyph-name="uni042B" unicode="&#x42b;" horiz-adv-x="1083" 
d="M858 482l-159 -84q60 -60 60 -167q0 -77 -31 -129t-83 -77t-116 -25h-255v560q-52 0 -79.5 -21.5t-27.5 -52.5q0 -26 15.5 -43.5t44.5 -17.5v-140q-101 0 -154.5 57t-53.5 144q0 97 64.5 155.5t190.5 58.5h150v-560h105q38 0 59 18.5t21 72.5t-21.5 71.5t-58.5 17.5h-24
v140h25l328 173l10 67h140v-700h-150v482z" />
    <glyph glyph-name="uni042C" unicode="&#x42c;" horiz-adv-x="818" 
d="M274 560q-52 0 -79.5 -21.5t-27.5 -52.5q0 -26 15.5 -43.5t44.5 -17.5v-140q-101 0 -154.5 57t-53.5 144q0 97 64.5 155.5t190.5 58.5h150v-240h135q102 0 166 -57.5t64 -171.5q0 -77 -31 -129t-83 -77t-116 -25h-285v560zM618 158.5q21 18.5 21 72.5t-21.5 71.5
t-58.5 17.5h-135v-180h135q38 0 59 18.5z" />
    <glyph glyph-name="uni042D" unicode="&#x42d;" horiz-adv-x="641" 
d="M388.5 557q-43.5 41 -117.5 41q-107 0 -173 -66l-83 111q107 95 254 95q96 0 169.5 -41.5t115.5 -127t42 -213.5q0 -127 -42 -212t-115.5 -126.5t-169.5 -41.5q-147 0 -254 95l83 111q66 -66 173 -66q71 0 114 38t56 126h-261v140h263q-11 96 -54.5 137z" />
    <glyph glyph-name="uni042E" unicode="&#x42e;" horiz-adv-x="1169" 
d="M274 560q-52 0 -79.5 -21.5t-27.5 -52.5q0 -26 15.5 -43.5t44.5 -17.5v-140q-101 0 -154.5 57t-53.5 144q0 97 64.5 155.5t190.5 58.5h150v-280h103q16 150 95.5 227t201.5 77q88 0 155.5 -41t106 -125t38.5 -208t-38.5 -208t-106 -125t-155.5 -41q-122 0 -201.5 76.5
t-95.5 227.5h-103v-280h-150v560zM935 169.5q39 53.5 39 180.5t-39 180.5t-111 53.5t-111 -53.5t-39 -180.5t39 -180.5t111 -53.5t111 53.5z" />
    <glyph glyph-name="uni042F" unicode="&#x42f;" horiz-adv-x="639" 
d="M414 0v240h-70l-144 -240h-171l158 254q-64 21 -101 75t-37 140q0 77 31 129t83 77t116 25h285v-700h-150zM414 560h-135q-38 0 -59 -18.5t-21 -72.5t21.5 -71.5t58.5 -17.5h135v180z" />
    <glyph glyph-name="uni0430" unicode="&#x430;" horiz-adv-x="694" 
d="M484 120h-275l-50 -120h-159l297 700h100l297 -700h-159zM347 498l-41 -148l-38 -90h158l-38 90z" />
    <glyph glyph-name="uni0431" unicode="&#x431;" horiz-adv-x="635" 
d="M75 700h465v-140h-315v-120h135q102 0 166 -55t64 -164q0 -74 -31 -123.5t-83 -73.5t-116 -24h-285v700zM419 156.5q21 16.5 21 64.5t-21.5 63.5t-58.5 15.5h-135v-160h135q38 0 59 16.5z" />
    <glyph glyph-name="uni0432" unicode="&#x432;" horiz-adv-x="635" 
d="M75 700h265q63 0 115.5 -23.5t83.5 -69.5t31 -110q0 -96 -74 -142q94 -43 94 -152q0 -64 -31 -110t-83.5 -69.5t-115.5 -23.5h-285v700zM398.5 434q21.5 14 21.5 56q0 41 -21 55.5t-59 14.5h-115v-140h115q37 0 58.5 14zM419 154.5q21 14.5 21 55.5q0 42 -21.5 56
t-58.5 14h-135v-140h135q38 0 59 14.5z" />
    <glyph glyph-name="uni0433" unicode="&#x433;" horiz-adv-x="517" 
d="M75 700h425v-140h-275v-560h-150v700z" />
    <glyph glyph-name="uni0434" unicode="&#x434;" horiz-adv-x="679" 
d="M544 0h-409v-150h-130v290h23q32 0 50 33t25 91l45 436h451v-560h75v-290h-130v150zM282 560l-26 -260q-12 -104 -43 -160h236v420h-167z" />
    <glyph glyph-name="uni0435" unicode="&#x435;" horiz-adv-x="601" 
d="M75 700h475v-140h-325v-140h275v-140h-275v-140h325v-140h-475v700z" />
    <glyph glyph-name="uni0436" unicode="&#x436;" horiz-adv-x="1052" 
d="M601 293v-293h-150v293l-196 -293h-175l243 350l-243 350h175l196 -293v293h150v-293l196 293h175l-243 -350l243 -350h-175z" />
    <glyph glyph-name="uni0437" unicode="&#x437;" horiz-adv-x="596" 
d="M201 421h93q41 0 66 20t25 63q0 44 -26.5 62t-76.5 18q-104 0 -170 -66l-83 111q107 95 254 95q73 0 130 -27t89.5 -77t32.5 -117q0 -103 -81 -150q97 -43 97 -154q0 -69 -35 -119.5t-95.5 -77t-135.5 -26.5q-74 0 -137.5 25.5t-113.5 69.5l83 111q66 -66 173 -66
q54 0 82.5 18t28.5 62q0 84 -110 84h-90v141z" />
    <glyph glyph-name="uni0438" unicode="&#x438;" horiz-adv-x="701" 
d="M476 400l-251 -334l-10 -66h-140v700h150v-400l251 333l10 67h140v-700h-150v400z" />
    <glyph glyph-name="uni0439" unicode="&#x439;" horiz-adv-x="701" 
d="M350 740q-76 0 -130 49l43 57q31 -34 89 -34q53 0 86 34l42 -57q-54 -49 -130 -49zM476 400l-251 -334l-10 -66h-140v700h150v-400l251 333l10 67h140v-700h-150v400z" />
    <glyph glyph-name="uni043A" unicode="&#x43a;" horiz-adv-x="644" 
d="M225 299v-299h-150v700h150v-300l226 300h175l-263 -350l263 -350h-175z" />
    <glyph glyph-name="uni043B" unicode="&#x43b;" horiz-adv-x="695" 
d="M470 560h-146l-36 -340q-13 -120 -54 -177t-115 -57q-21 0 -52.5 4t-61.5 12l20 130q35 -6 62 -6q25 0 36 20t16 74l50 480h431v-700h-150v560z" />
    <glyph glyph-name="uni043C" unicode="&#x43c;" horiz-adv-x="850" 
d="M625 389l-150 -209h-100l-150 209v-389h-150v700h100l250 -350l250 350h100v-700h-150v389z" />
    <glyph glyph-name="uni043D" unicode="&#x43d;" horiz-adv-x="701" 
d="M476 280h-251v-280h-150v700h150v-280h251v280h150v-700h-150v280z" />
    <glyph glyph-name="uni043E" unicode="&#x43e;" 
d="M531 683q72 -41 113 -125t41 -208t-41 -208t-113 -125t-166 -41t-166 41t-113 125t-41 208t41 208t113 125t166 41t166 -41zM239.5 530.5q-44.5 -53.5 -44.5 -180.5t44.5 -180.5t125.5 -53.5t125.5 53.5t44.5 180.5t-44.5 180.5t-125.5 53.5t-125.5 -53.5z" />
    <glyph glyph-name="uni043F" unicode="&#x43f;" horiz-adv-x="701" 
d="M476 560h-251v-560h-150v700h551v-700h-150v560z" />
    <glyph glyph-name="uni0440" unicode="&#x440;" horiz-adv-x="612" 
d="M75 700h285q64 0 116 -25t83 -77t31 -129q0 -114 -64 -171.5t-166 -57.5h-135v-240h-150v700zM418.5 397.5q21.5 17.5 21.5 71.5t-21 72.5t-59 18.5h-135v-180h135q37 0 58.5 17.5z" />
    <glyph glyph-name="uni0441" unicode="&#x441;" horiz-adv-x="660" 
d="M372 -24q-96 0 -169.5 41.5t-115.5 126.5t-42 212q0 122 38.5 204.5t107 123t157.5 40.5q77 0 139 -32.5t98 -98.5t36 -163h-150q0 154 -123 154q-74 0 -113.5 -53t-39.5 -174q0 -131 45 -186t130 -55q107 0 173 66l83 -111q-107 -95 -254 -95z" />
    <glyph glyph-name="uni0442" unicode="&#x442;" horiz-adv-x="538" 
d="M194 560h-175v140h500v-140h-175v-560h-150v560z" />
    <glyph glyph-name="uni0443" unicode="&#x443;" horiz-adv-x="647" 
d="M172 700l168 -332l143 332h164l-202 -460q-44 -102 -73 -151.5t-71.5 -76t-111.5 -26.5q-32 0 -62 6t-67 20l20 130q24 -8 55 -12t52 -4q23 0 36.5 7t23 23t24.5 50l-266 494h167z" />
    <glyph glyph-name="uni0444" unicode="&#x444;" horiz-adv-x="798" 
d="M324 120h-35q-111 0 -180.5 65t-69.5 194q0 87 33.5 145.5t90 87t126.5 28.5h35v60h150v-60h35q70 0 126.5 -28.5t90 -87t33.5 -145.5t-33 -145t-89.5 -86t-127.5 -28h-35v-120h-150v120zM289 500q-47 0 -73.5 -24.5t-26.5 -96.5t26.5 -95.5t73.5 -23.5h35v240h-35z
M582.5 283.5q26.5 23.5 26.5 95.5t-26.5 96.5t-73.5 24.5h-35v-240h35q47 0 73.5 23.5z" />
    <glyph glyph-name="uni0445" unicode="&#x445;" horiz-adv-x="641" 
d="M320 233l-145 -233h-166l228 366l-208 334h166l125 -201l126 201h166l-209 -334l229 -366h-166z" />
    <glyph glyph-name="uni0446" unicode="&#x446;" horiz-adv-x="701" 
d="M571 0h-496v700h150v-560h251v560h150v-560h75v-290h-130v150z" />
    <glyph glyph-name="uni0447" unicode="&#x447;" horiz-adv-x="645" 
d="M420 233q-61 -23 -135 -23q-106 0 -173 57.5t-67 171.5v261h150v-261q0 -54 24 -71.5t66 -17.5q77 0 135 36v314h150v-700h-150v233z" />
    <glyph glyph-name="uni0448" unicode="&#x448;" horiz-adv-x="901" 
d="M75 700h150v-560h150v560h150v-560h151v560h150v-700h-751v700z" />
    <glyph glyph-name="uni0449" unicode="&#x449;" horiz-adv-x="901" 
d="M771 0h-696v700h150v-560h150v560h150v-560h151v560h150v-560h75v-290h-130v150z" />
    <glyph glyph-name="uni044A" unicode="&#x44a;" horiz-adv-x="684" 
d="M140 560h-140v140h290v-240h135q102 0 166 -57.5t64 -171.5q0 -77 -31 -129t-83 -77t-116 -25h-285v560zM484 158.5q21 18.5 21 72.5t-21.5 71.5t-58.5 17.5h-135v-180h135q38 0 59 18.5z" />
    <glyph glyph-name="uni044B" unicode="&#x44b;" horiz-adv-x="884" 
d="M659 482l-159 -84q60 -60 60 -167q0 -77 -31 -129t-83 -77t-116 -25h-255v700h150v-560h105q38 0 59 18.5t21 72.5t-21.5 71.5t-58.5 17.5h-24v140h25l328 173l10 67h140v-700h-150v482z" />
    <glyph glyph-name="uni044C" unicode="&#x44c;" horiz-adv-x="619" 
d="M75 700h150v-240h135q102 0 166 -57.5t64 -171.5q0 -77 -31 -129t-83 -77t-116 -25h-285v700zM419 158.5q21 18.5 21 72.5t-21.5 71.5t-58.5 17.5h-135v-180h135q38 0 59 18.5z" />
    <glyph glyph-name="uni044D" unicode="&#x44d;" horiz-adv-x="641" 
d="M388.5 557q-43.5 41 -117.5 41q-107 0 -173 -66l-83 111q107 95 254 95q96 0 169.5 -41.5t115.5 -127t42 -213.5q0 -127 -42 -212t-115.5 -126.5t-169.5 -41.5q-147 0 -254 95l83 111q66 -66 173 -66q71 0 114 38t56 126h-261v140h263q-11 96 -54.5 137z" />
    <glyph glyph-name="uni044E" unicode="&#x44e;" horiz-adv-x="970" 
d="M75 700h150v-280h103q16 150 95.5 227t201.5 77q88 0 155.5 -41t106 -125t38.5 -208t-38.5 -208t-106 -125t-155.5 -41q-122 0 -201.5 76.5t-95.5 227.5h-103v-280h-150v700zM736 169.5q39 53.5 39 180.5t-39 180.5t-111 53.5t-111 -53.5t-39 -180.5t39 -180.5t111 -53.5
t111 53.5z" />
    <glyph glyph-name="uni044F" unicode="&#x44f;" horiz-adv-x="639" 
d="M414 0v240h-70l-144 -240h-171l158 254q-64 21 -101 75t-37 140q0 77 31 129t83 77t116 25h285v-700h-150zM414 560h-135q-38 0 -59 -18.5t-21 -72.5t21.5 -71.5t58.5 -17.5h135v180z" />
    <glyph glyph-name="uni0450" unicode="&#x450;" horiz-adv-x="601" 
d="M189 804l53 71l170 -92l-20 -40zM75 700h475v-140h-325v-140h275v-140h-275v-140h325v-140h-475v700z" />
    <glyph glyph-name="uni0451" unicode="&#x451;" horiz-adv-x="601" 
d="M186 754.5q-14 14.5 -14 35.5t14.5 35.5t35.5 14.5t35.5 -14.5t14.5 -35.5t-14 -35.5t-36 -14.5t-36 14.5zM342.5 754.5q-14.5 14.5 -14.5 35.5t14 35.5t36 14.5t36 -14.5t14 -35.5t-14.5 -35.5t-35.5 -14.5t-35.5 14.5zM75 700h475v-140h-325v-140h275v-140h-275v-140
h325v-140h-475v700z" />
    <glyph glyph-name="uni0452" unicode="&#x452;" horiz-adv-x="754" 
d="M433 140h46q37 0 58.5 17.5t21.5 71.5t-21 72.5t-59 18.5h-135v-320h-150v560h-175v140h500v-140h-175v-100h135q64 0 116 -25t83 -77t31 -129q0 -114 -64 -171.5t-166 -57.5h-46v140z" />
    <glyph glyph-name="uni0453" unicode="&#x453;" horiz-adv-x="517" 
d="M204 783l170 92l53 -71l-203 -61zM75 700h425v-140h-275v-560h-150v700z" />
    <glyph glyph-name="uni0454" unicode="&#x454;" horiz-adv-x="641" 
d="M372 -24q-96 0 -169.5 41.5t-115.5 126.5t-42 212q0 124 42 206t115.5 122t169.5 40q147 0 254 -95l-83 -111q-66 66 -173 66q-72 0 -116.5 -38.5t-55.5 -125.5h263v-140h-261q12 -89 55.5 -126.5t114.5 -37.5q107 0 173 66l83 -111q-107 -95 -254 -95z" />
    <glyph glyph-name="uni0455" unicode="&#x455;" horiz-adv-x="623" 
d="M197.5 133.5q52.5 -17.5 105.5 -17.5q55 0 93 21t38 67q0 29 -16.5 43.5t-37 19t-76.5 13.5q-82 13 -137 34t-87 62.5t-32 110.5q0 76 38 129.5t99.5 80.5t132.5 27q68 0 135 -25t118 -70l-83 -113q-29 31 -75 49.5t-93 18.5q-50 0 -86 -21t-36 -66q0 -27 14 -41.5
t34.5 -21t57.5 -13.5q100 -18 159.5 -40.5t90 -62t30.5 -104.5q0 -77 -39 -130.5t-103.5 -80.5t-140.5 -27q-75 0 -147 25.5t-125 69.5l83 111q33 -31 85.5 -48.5z" />
    <glyph glyph-name="uni0456" unicode="&#x456;" horiz-adv-x="300" 
d="M75 700h150v-700h-150v700z" />
    <glyph glyph-name="uni0457" unicode="&#x457;" horiz-adv-x="300" 
d="M55 755.5q-12 12.5 -12 29.5t12 29.5t30 12.5t30 -12.5t12 -29.5t-12 -29.5t-30 -12.5t-30 12.5zM185.5 755.5q-12.5 12.5 -12.5 29.5t12 29.5t30 12.5t30 -12.5t12 -29.5t-12.5 -29.5t-29.5 -12.5t-29.5 12.5zM75 700h150v-700h-150v700z" />
    <glyph glyph-name="uni0458" unicode="&#x458;" horiz-adv-x="448" 
d="M85 130q34 -4 55 -4q43 0 66 26.5t23 87.5v460h150v-460q0 -83 -30 -140.5t-82 -85.5t-119 -28q-39 0 -71 6t-72 20l20 130q26 -8 60 -12z" />
    <glyph glyph-name="uni0459" unicode="&#x459;" horiz-adv-x="1020" 
d="M470 560h-146l-36 -340q-13 -120 -54 -177t-115 -57q-21 0 -52.5 4t-61.5 12l20 130q35 -6 62 -6q25 0 36 20t16 74l50 480h431v-240h135q102 0 166 -57.5t64 -171.5q0 -77 -31 -129t-83 -77t-116 -25h-285v560zM814 158.5q21 18.5 21 72.5t-21.5 71.5t-58.5 17.5h-135
v-180h135q38 0 59 18.5z" />
    <glyph glyph-name="uni045A" unicode="&#x45a;" horiz-adv-x="1026" 
d="M476 280h-251v-280h-150v700h150v-280h251v280h150v-240h135q102 0 166 -57.5t64 -171.5q0 -77 -31 -129t-83 -77t-116 -25h-285v280zM820 158.5q21 18.5 21 72.5t-21.5 71.5t-58.5 17.5h-135v-180h135q38 0 59 18.5z" />
    <glyph glyph-name="uni045B" unicode="&#x45b;" horiz-adv-x="754" 
d="M569 261q0 54 -24 71.5t-66 17.5q-79 0 -135 -37v-313h-150v560h-175v140h500v-140h-175v-93q61 23 135 23q106 0 173 -57.5t67 -171.5v-261h-150v261z" />
    <glyph glyph-name="uni045C" unicode="&#x45c;" horiz-adv-x="644" 
d="M278 783l170 92l53 -71l-203 -61zM225 299v-299h-150v700h150v-300l226 300h175l-263 -350l263 -350h-175z" />
    <glyph glyph-name="uni045D" unicode="&#x45d;" horiz-adv-x="701" 
d="M190 804l53 71l170 -92l-20 -40zM476 400l-251 -334l-10 -66h-140v700h150v-400l251 333l10 67h140v-700h-150v400z" />
    <glyph glyph-name="uni045E" unicode="&#x45e;" horiz-adv-x="647" 
d="M323 740q-76 0 -130 49l43 57q31 -34 89 -34q53 0 86 34l42 -57q-54 -49 -130 -49zM172 700l168 -332l143 332h164l-202 -460q-44 -102 -73 -151.5t-71.5 -76t-111.5 -26.5q-32 0 -62 6t-67 20l20 130q24 -8 55 -12t52 -4q23 0 36.5 7t23 23t24.5 50l-266 494h167z" />
    <glyph glyph-name="uni045F" unicode="&#x45f;" horiz-adv-x="701" 
d="M425 -130h-150v130h-200v700h150v-560h251v560h150v-700h-201v-130z" />
    <glyph glyph-name="uni0462" unicode="&#x462;" horiz-adv-x="754" 
d="M194 560h-175v140h500v-140h-175v-100h135q102 0 166 -57.5t64 -171.5q0 -77 -31 -129t-83 -77t-116 -25h-285v560zM538 158.5q21 18.5 21 72.5t-21.5 71.5t-58.5 17.5h-135v-180h135q38 0 59 18.5z" />
    <glyph glyph-name="uni0463" unicode="&#x463;" horiz-adv-x="754" 
d="M194 560h-175v140h500v-140h-175v-100h135q102 0 166 -57.5t64 -171.5q0 -77 -31 -129t-83 -77t-116 -25h-285v560zM538 158.5q21 18.5 21 72.5t-21.5 71.5t-58.5 17.5h-135v-180h135q38 0 59 18.5z" />
    <glyph glyph-name="uni0490" unicode="&#x490;" horiz-adv-x="719" 
d="M274 560q-52 0 -79.5 -21.5t-27.5 -52.5q0 -26 15.5 -43.5t44.5 -17.5v-140q-101 0 -154.5 57t-53.5 144q0 97 64.5 155.5t190.5 58.5h295l10 87h120v-227h-275v-560h-150v560z" />
    <glyph glyph-name="uni0491" unicode="&#x491;" horiz-adv-x="540" 
d="M95 700h295l10 87h120v-227h-275v-560h-150v700z" />
    <glyph glyph-name="endash" unicode="&#x2013;" horiz-adv-x="601" 
d="M75 420h451v-140h-451v140z" />
    <glyph glyph-name="emdash" unicode="&#x2014;" horiz-adv-x="701" 
d="M75 420h551v-140h-551v140z" />
    <glyph glyph-name="quoteleft" unicode="&#x2018;" horiz-adv-x="260" 
d="M131 588q35 -1 59.5 -25.5t24.5 -59.5t-25 -60t-60 -25t-60 25t-25 60q0 59 26.5 114.5t73.5 101.5l52 -44q-48 -49 -66 -87z" />
    <glyph glyph-name="quoteright" unicode="&#x2019;" horiz-adv-x="260" 
d="M129 549q-35 1 -59.5 25.5t-24.5 59.5t25 60t60 25t60 -25t25 -60q0 -59 -26.5 -114.5t-73.5 -101.5l-52 44q48 49 66 87z" />
    <glyph glyph-name="quotesinglbase" unicode="&#x201a;" horiz-adv-x="260" 
d="M129 -20q-35 1 -59.5 25.5t-24.5 59.5t25 60t60 25t60 -25t25 -60q0 -59 -26.5 -114.5t-73.5 -101.5l-52 44q48 49 66 87z" />
    <glyph glyph-name="quotedblleft" unicode="&#x201c;" horiz-adv-x="460" 
d="M131 588q35 -1 59.5 -25.5t24.5 -59.5t-25 -60t-60 -25t-60 25t-25 60q0 59 26.5 114.5t73.5 101.5l52 -44q-48 -49 -66 -87zM331 588q35 -1 59.5 -25.5t24.5 -59.5t-25 -60t-60 -25t-60 25t-25 60q0 59 26.5 114.5t73.5 101.5l52 -44q-48 -49 -66 -87z" />
    <glyph glyph-name="quotedblright" unicode="&#x201d;" horiz-adv-x="460" 
d="M129 549q-35 1 -59.5 25.5t-24.5 59.5t25 60t60 25t60 -25t25 -60q0 -59 -26.5 -114.5t-73.5 -101.5l-52 44q48 49 66 87zM329 549q-35 1 -59.5 25.5t-24.5 59.5t25 60t60 25t60 -25t25 -60q0 -59 -26.5 -114.5t-73.5 -101.5l-52 44q48 49 66 87z" />
    <glyph glyph-name="quotedblbase" unicode="&#x201e;" horiz-adv-x="460" 
d="M129 -20q-35 1 -59.5 25.5t-24.5 59.5t25 60t60 25t60 -25t25 -60q0 -59 -26.5 -114.5t-73.5 -101.5l-52 44q48 49 66 87zM329 -20q-35 1 -59.5 25.5t-24.5 59.5t25 60t60 25t60 -25t25 -60q0 -59 -26.5 -114.5t-73.5 -101.5l-52 44q48 49 66 87z" />
    <glyph glyph-name="bullet" unicode="&#x2022;" horiz-adv-x="394" 
d="M136 244.5q-28 16.5 -44.5 45t-16.5 60.5t16.5 60.5t44.5 45t61 16.5q50 0 86 -36t36 -86t-36 -86t-86 -36q-33 0 -61 16.5z" />
    <glyph glyph-name="ellipsis" unicode="&#x2026;" horiz-adv-x="882" 
d="M75 10.5q-30 30.5 -30 71.5t30 71.5t72 30.5t72 -30t30 -72t-30 -72t-72 -30t-72 30.5zM369 10.5q-30 30.5 -30 71.5t30 71.5t72 30.5t72 -30t30 -72t-30 -72t-72 -30t-72 30.5zM663 10.5q-30 30.5 -30 71.5t30 71.5t72 30.5t72 -30t30 -72t-30 -72t-72 -30t-72 30.5z
" />
    <glyph glyph-name="guilsinglleft" unicode="&#x2039;" horiz-adv-x="405" 
d="M360 602l-189 -252l189 -252h-126l-189 252l189 252h126z" />
    <glyph glyph-name="guilsinglright" unicode="&#x203a;" horiz-adv-x="405" 
d="M171 98h-126l189 252l-189 252h126l189 -252z" />
    <glyph glyph-name="Euro" unicode="&#x20ac;" horiz-adv-x="716" 
d="M447 -24q-123 0 -208 67.5t-110 201.5h-84v70h76q-1 13 -1 41q0 26 1 39h-76v70h85q25 129 109.5 194t207.5 65q147 0 254 -95l-83 -111q-66 66 -173 66q-63 0 -104 -28t-59 -91h214v-70h-225q-1 -12 -1 -38q0 -29 1 -42h225v-70h-215q17 -69 58.5 -99t105.5 -30
q107 0 173 66l83 -111q-107 -95 -254 -95z" />
    <glyph glyph-name="uni20B4" unicode="&#x20b4;" horiz-adv-x="713" 
d="M45 465h371q24 26 24 58q0 37 -24.5 49t-66.5 12q-56 0 -92 -14t-67 -44l-83 113q47 40 109 62.5t129 22.5q63 0 119 -20.5t91 -65.5t35 -114q0 -33 -9 -59h87v-70h-623v70zM273 187q0 -37 25.5 -49t66.5 -12q66 0 105 15t73 43l83 -113q-53 -41 -119.5 -63t-134.5 -22
q-66 0 -122.5 20.5t-91.5 65.5t-35 114q0 34 9 59h-87v70h623v-70h-371q-24 -26 -24 -58z" />
    <glyph glyph-name="uni20B8" unicode="&#x20b8;" horiz-adv-x="538" 
d="M19 700h500v-70h-500v70zM194 480h-175v70h500v-70h-175v-480h-150v480z" />
    <glyph glyph-name="uni20BB" unicode="&#x20bb;" horiz-adv-x="667" 
d="M280 0h-150v120h-85v70h85v80h-85v70h85v360h285q64 0 116 -25.5t83 -76t31 -123.5q0 -105 -63.5 -155t-166.5 -50h-135v-80h226v-70h-226v-120zM474 398q21 18 21 72q0 53 -21 71.5t-59 18.5h-135v-180h135q38 0 59 18z" />
    <glyph glyph-name="uni20BC" unicode="&#x20bc;" horiz-adv-x="667" 
d="M280 0h-150v120h-85v70h85v80h-85v70h85v360h285q64 0 116 -25.5t83 -76t31 -123.5q0 -105 -63.5 -155t-166.5 -50h-135v-80h226v-70h-226v-120zM474 398q21 18 21 72q0 53 -21 71.5t-59 18.5h-135v-180h135q38 0 59 18z" />
    <glyph glyph-name="uni20BD" unicode="&#x20bd;" horiz-adv-x="667" 
d="M280 0h-150v120h-85v70h85v80h-85v70h85v360h285q64 0 116 -25.5t83 -76t31 -123.5q0 -105 -63.5 -155t-166.5 -50h-135v-80h226v-70h-226v-120zM474 398q21 18 21 72q0 53 -21 71.5t-59 18.5h-135v-180h135q38 0 59 18z" />
    <glyph glyph-name="uni20BE" unicode="&#x20be;" horiz-adv-x="667" 
d="M280 0h-150v120h-85v70h85v80h-85v70h85v360h285q64 0 116 -25.5t83 -76t31 -123.5q0 -105 -63.5 -155t-166.5 -50h-135v-80h226v-70h-226v-120zM474 398q21 18 21 72q0 53 -21 71.5t-59 18.5h-135v-180h135q38 0 59 18z" />
    <glyph glyph-name="uni20BF" unicode="&#x20bf;" horiz-adv-x="667" 
d="M280 0h-150v120h-85v70h85v80h-85v70h85v360h285q64 0 116 -25.5t83 -76t31 -123.5q0 -105 -63.5 -155t-166.5 -50h-135v-80h226v-70h-226v-120zM474 398q21 18 21 72q0 53 -21 71.5t-59 18.5h-135v-180h135q38 0 59 18z" />
    <glyph glyph-name="uni20C0" unicode="&#x20c0;" horiz-adv-x="667" 
d="M280 0h-150v120h-85v70h85v80h-85v70h85v360h285q64 0 116 -25.5t83 -76t31 -123.5q0 -105 -63.5 -155t-166.5 -50h-135v-80h226v-70h-226v-120zM474 398q21 18 21 72q0 53 -21 71.5t-59 18.5h-135v-180h135q38 0 59 18z" />
    <glyph glyph-name="uni20C1" unicode="&#x20c1;" horiz-adv-x="667" 
d="M280 0h-150v120h-85v70h85v80h-85v70h85v360h285q64 0 116 -25.5t83 -76t31 -123.5q0 -105 -63.5 -155t-166.5 -50h-135v-80h226v-70h-226v-120zM474 398q21 18 21 72q0 53 -21 71.5t-59 18.5h-135v-180h135q38 0 59 18z" />
    <glyph glyph-name="uni20C2" unicode="&#x20c2;" horiz-adv-x="667" 
d="M280 0h-150v120h-85v70h85v80h-85v70h85v360h285q64 0 116 -25.5t83 -76t31 -123.5q0 -105 -63.5 -155t-166.5 -50h-135v-80h226v-70h-226v-120zM474 398q21 18 21 72q0 53 -21 71.5t-59 18.5h-135v-180h135q38 0 59 18z" />
    <glyph glyph-name="uni20C3" unicode="&#x20c3;" horiz-adv-x="667" 
d="M280 0h-150v120h-85v70h85v80h-85v70h85v360h285q64 0 116 -25.5t83 -76t31 -123.5q0 -105 -63.5 -155t-166.5 -50h-135v-80h226v-70h-226v-120zM474 398q21 18 21 72q0 53 -21 71.5t-59 18.5h-135v-180h135q38 0 59 18z" />
    <glyph glyph-name="uni20C4" unicode="&#x20c4;" horiz-adv-x="667" 
d="M280 0h-150v120h-85v70h85v80h-85v70h85v360h285q64 0 116 -25.5t83 -76t31 -123.5q0 -105 -63.5 -155t-166.5 -50h-135v-80h226v-70h-226v-120zM474 398q21 18 21 72q0 53 -21 71.5t-59 18.5h-135v-180h135q38 0 59 18z" />
    <glyph glyph-name="uni20C5" unicode="&#x20c5;" horiz-adv-x="667" 
d="M280 0h-150v120h-85v70h85v80h-85v70h85v360h285q64 0 116 -25.5t83 -76t31 -123.5q0 -105 -63.5 -155t-166.5 -50h-135v-80h226v-70h-226v-120zM474 398q21 18 21 72q0 53 -21 71.5t-59 18.5h-135v-180h135q38 0 59 18z" />
    <glyph glyph-name="uni20C6" unicode="&#x20c6;" horiz-adv-x="667" 
d="M280 0h-150v120h-85v70h85v80h-85v70h85v360h285q64 0 116 -25.5t83 -76t31 -123.5q0 -105 -63.5 -155t-166.5 -50h-135v-80h226v-70h-226v-120zM474 398q21 18 21 72q0 53 -21 71.5t-59 18.5h-135v-180h135q38 0 59 18z" />
    <glyph glyph-name="uni20C7" unicode="&#x20c7;" horiz-adv-x="667" 
d="M280 0h-150v120h-85v70h85v80h-85v70h85v360h285q64 0 116 -25.5t83 -76t31 -123.5q0 -105 -63.5 -155t-166.5 -50h-135v-80h226v-70h-226v-120zM474 398q21 18 21 72q0 53 -21 71.5t-59 18.5h-135v-180h135q38 0 59 18z" />
    <glyph glyph-name="uni20C8" unicode="&#x20c8;" horiz-adv-x="667" 
d="M280 0h-150v120h-85v70h85v80h-85v70h85v360h285q64 0 116 -25.5t83 -76t31 -123.5q0 -105 -63.5 -155t-166.5 -50h-135v-80h226v-70h-226v-120zM474 398q21 18 21 72q0 53 -21 71.5t-59 18.5h-135v-180h135q38 0 59 18z" />
    <glyph glyph-name="uni20C9" unicode="&#x20c9;" horiz-adv-x="667" 
d="M280 0h-150v120h-85v70h85v80h-85v70h85v360h285q64 0 116 -25.5t83 -76t31 -123.5q0 -105 -63.5 -155t-166.5 -50h-135v-80h226v-70h-226v-120zM474 398q21 18 21 72q0 53 -21 71.5t-59 18.5h-135v-180h135q38 0 59 18z" />
    <glyph glyph-name="uni20CA" unicode="&#x20ca;" horiz-adv-x="667" 
d="M280 0h-150v120h-85v70h85v80h-85v70h85v360h285q64 0 116 -25.5t83 -76t31 -123.5q0 -105 -63.5 -155t-166.5 -50h-135v-80h226v-70h-226v-120zM474 398q21 18 21 72q0 53 -21 71.5t-59 18.5h-135v-180h135q38 0 59 18z" />
    <glyph glyph-name="uni20CB" unicode="&#x20cb;" horiz-adv-x="667" 
d="M280 0h-150v120h-85v70h85v80h-85v70h85v360h285q64 0 116 -25.5t83 -76t31 -123.5q0 -105 -63.5 -155t-166.5 -50h-135v-80h226v-70h-226v-120zM474 398q21 18 21 72q0 53 -21 71.5t-59 18.5h-135v-180h135q38 0 59 18z" />
    <glyph glyph-name="uni20CC" unicode="&#x20cc;" horiz-adv-x="667" 
d="M280 0h-150v120h-85v70h85v80h-85v70h85v360h285q64 0 116 -25.5t83 -76t31 -123.5q0 -105 -63.5 -155t-166.5 -50h-135v-80h226v-70h-226v-120zM474 398q21 18 21 72q0 53 -21 71.5t-59 18.5h-135v-180h135q38 0 59 18z" />
    <glyph glyph-name="uni20CD" unicode="&#x20cd;" horiz-adv-x="667" 
d="M280 0h-150v120h-85v70h85v80h-85v70h85v360h285q64 0 116 -25.5t83 -76t31 -123.5q0 -105 -63.5 -155t-166.5 -50h-135v-80h226v-70h-226v-120zM474 398q21 18 21 72q0 53 -21 71.5t-59 18.5h-135v-180h135q38 0 59 18z" />
    <glyph glyph-name="uni20CE" unicode="&#x20ce;" horiz-adv-x="667" 
d="M280 0h-150v120h-85v70h85v80h-85v70h85v360h285q64 0 116 -25.5t83 -76t31 -123.5q0 -105 -63.5 -155t-166.5 -50h-135v-80h226v-70h-226v-120zM474 398q21 18 21 72q0 53 -21 71.5t-59 18.5h-135v-180h135q38 0 59 18z" />
    <glyph glyph-name="uni20CF" unicode="&#x20cf;" horiz-adv-x="667" 
d="M280 0h-150v120h-85v70h85v80h-85v70h85v360h285q64 0 116 -25.5t83 -76t31 -123.5q0 -105 -63.5 -155t-166.5 -50h-135v-80h226v-70h-226v-120zM474 398q21 18 21 72q0 53 -21 71.5t-59 18.5h-135v-180h135q38 0 59 18z" />
    <glyph glyph-name="uni2116" unicode="&#x2116;" horiz-adv-x="1005" 
d="M923.5 682q36.5 -38 36.5 -112t-36.5 -112t-93.5 -38t-93.5 38t-36.5 112t36.5 112t93.5 38t93.5 -38zM225 400v-400h-150v700h100l301 -400v400h150v-700h-100zM866.5 520q14.5 16 14.5 50q0 35 -14 50.5t-37 15.5t-37 -15.5t-14 -50.5q0 -66 51 -66q22 0 36.5 16z" />
    <glyph glyph-name="trademark" unicode="&#x2122;" horiz-adv-x="817" 
d="M116 616h-105v84h300v-84h-105v-336h-90v336zM682 513l-90 -125h-60l-90 125v-233h-90v420h60l150 -210l150 210h60v-420h-90v233z" />
    <glyph glyph-name="minus" unicode="&#x2212;" horiz-adv-x="601" 
d="M75 420h451v-140h-451v140z" />
    <glyph glyph-name="uni0326" horiz-adv-x="0" 
d="M-122 -143q-19 0 -32 13.5t-13 32.5t13.5 33t32.5 14t32.5 -14t13.5 -33q0 -64 -54 -118l-28 24q26 29 35 48z" />
    </font>
</defs>
</svg>
